<svg width="4" height="17" viewBox="0 0 4 17" fill="none" xmlns="http://www.w3.org/2000/svg">
<path d="M2.19408 16.125C2.85355 16.125 3.38816 15.5904 3.38816 14.9309C3.38816 14.2714 2.85355 13.7368 2.19408 13.7368C1.53461 13.7368 1 14.2714 1 14.9309C1 15.5904 1.53461 16.125 2.19408 16.125Z" fill="white"/>
<path d="M2.19408 9.75658C2.85355 9.75658 3.38816 9.22197 3.38816 8.5625C3.38816 7.90303 2.85355 7.36842 2.19408 7.36842C1.53461 7.36842 1 7.90303 1 8.5625C1 9.22197 1.53461 9.75658 2.19408 9.75658Z" fill="white"/>
<path d="M2.19408 3.38816C2.85355 3.38816 3.38816 2.85355 3.38816 2.19408C3.38816 1.53461 2.85355 1 2.19408 1C1.53461 1 1 1.53461 1 2.19408C1 2.85355 1.53461 3.38816 2.19408 3.38816Z" fill="white"/>
<path d="M2.19408 16.125C2.85355 16.125 3.38816 15.5904 3.38816 14.9309C3.38816 14.2714 2.85355 13.7368 2.19408 13.7368C1.53461 13.7368 1 14.2714 1 14.9309C1 15.5904 1.53461 16.125 2.19408 16.125Z" stroke="white" stroke-width="1.0614"/>
<path d="M2.19408 9.75658C2.85355 9.75658 3.38816 9.22197 3.38816 8.5625C3.38816 7.90303 2.85355 7.36842 2.19408 7.36842C1.53461 7.36842 1 7.90303 1 8.5625C1 9.22197 1.53461 9.75658 2.19408 9.75658Z" stroke="white" stroke-width="1.0614"/>
<path d="M2.19408 3.38816C2.85355 3.38816 3.38816 2.85355 3.38816 2.19408C3.38816 1.53461 2.85355 1 2.19408 1C1.53461 1 1 1.53461 1 2.19408C1 2.85355 1.53461 3.38816 2.19408 3.38816Z" stroke="white" stroke-width="1.0614"/>
</svg>
