<svg width="16" height="16" viewBox="0 0 16 16" fill="none" xmlns="http://www.w3.org/2000/svg">
<path d="M1.28784 0.75H14.7122C14.8332 0.75 14.9517 0.785171 15.0532 0.851238C15.1546 0.917305 15.2347 1.01142 15.2837 1.12215C15.3327 1.23288 15.3485 1.35546 15.3291 1.47498C15.3097 1.5945 15.2561 1.70583 15.1746 1.79542L10.0375 7.44621C9.93295 7.56125 9.875 7.71115 9.875 7.86663V12.2905C9.875 12.3934 9.84959 12.4947 9.80104 12.5854C9.75249 12.6761 9.6823 12.7535 9.59669 12.8105L7.09669 14.4772C7.00256 14.54 6.89317 14.576 6.78017 14.5814C6.66718 14.5869 6.55483 14.5616 6.45509 14.5082C6.35535 14.4548 6.27197 14.3754 6.21383 14.2784C6.1557 14.1813 6.125 14.0703 6.125 13.9572V7.86663C6.125 7.71115 6.06705 7.56125 5.96246 7.44621L0.82538 1.79542C0.743931 1.70583 0.690261 1.5945 0.670891 1.47498C0.651522 1.35546 0.667287 1.23288 0.716271 1.12215C0.765255 1.01142 0.845348 0.917305 0.946817 0.851238C1.04829 0.785171 1.16676 0.75 1.28784 0.75V0.75Z" stroke="#969696" stroke-linecap="round" stroke-linejoin="round"/>
</svg>
