<svg width="16" height="16" viewBox="0 0 16 16" fill="none" xmlns="http://www.w3.org/2000/svg">
<path d="M5.5 14.8751H1.75C1.58424 14.8751 1.42527 14.8093 1.30806 14.6921C1.19085 14.5749 1.125 14.4159 1.125 14.2501V10.759C1.125 10.677 1.14117 10.5957 1.17258 10.5199C1.20398 10.444 1.25002 10.3751 1.30806 10.3171L10.6831 0.942091C10.8003 0.824881 10.9592 0.759033 11.125 0.759033C11.2908 0.759033 11.4497 0.824881 11.5669 0.942091L15.0581 4.43321C15.1753 4.55042 15.2411 4.70939 15.2411 4.87515C15.2411 5.04091 15.1753 5.19988 15.0581 5.31709L5.5 14.8751ZM5.5 14.8751H14.875M5.5 14.8751L1.16477 10.5399M8.625 3.00015L13 7.37515" stroke="#4CA8F8" stroke-linecap="round" stroke-linejoin="round"/>
</svg>
