<?xml version="1.0" encoding="UTF-8" standalone="no"?>
<!DOCTYPE svg PUBLIC "-//W3C//DTD SVG 1.1//EN" "http://www.w3.org/Graphics/SVG/1.1/DTD/svg11.dtd">
<svg xmlns:dc="http://purl.org/dc/elements/1.1/" xmlns:xl="http://www.w3.org/1999/xlink" version="1.1" xmlns="http://www.w3.org/2000/svg" viewBox="-514 325.9 65.6 61.1" width="65.6" height="61.1">
  <defs/>
  <g id="Canvas_1" fill="none" fill-opacity="1" stroke="none" stroke-dasharray="none" stroke-opacity="1">
    <title>Canvas 1</title>
    <g id="Canvas_1_Layer_1">
      <title>Layer 1</title>
      <g id="Group_527">
        <g id="Graphic_535">
          <path d="M -448.4 352.4 C -448.4 349.2 -451 346.6 -454.2 346.6 L -454.7 346.6 L -457.2 351.3 L -457.7 351.3 L -460.2 346.6 L -466.2 346.6 L -471.5 341.3 C -472.4 340.4 -473.7 340.3 -474.7 340.9 L -480.2 335.5 L -481.3 336.6 L -475.8 342 C -476.4 343 -476.2 344.4 -475.4 345.2 L -467.2 353.4 L -464.6 353.4 C -463.9 353.7 -463.4 354.5 -463.4 355.3 L -464.3 386.9 L -459.1 386.9 L -457.5 373.7 L -455.9 386.9 L -450.7 386.9 L -451.3 366.5 L -448.5 366.5 L -448.5 352.4 Z M -449.9 365.1 L -451.3 365.1 L -451.5 357.5 L -453 357.5 L -452.2 385.5 L -454.5 385.5 L -456.7 367.3 L -457.4 367.4 L -458.1 367.3 L -460.3 385.4 L -462.7 385.4 L -461.8 355.2 C -461.8 353.7 -462.7 352.3 -464.1 351.8 L -466.5 351.8 L -474.3 344 C -474.8 343.5 -474.8 342.8 -474.3 342.3 C -473.8 341.8 -473.1 341.8 -472.6 342.3 L -466.9 348 L -461.1 348 L -458.6 352.7 L -456.3 352.7 L -453.8 348 C -451.6 348.2 -449.9 350.1 -449.9 352.3 Z" fill="#01abff"/>
        </g>
        <g id="Graphic_534">
          <path d="M -457.3 346.3 C -455.1 346.3 -453.3 344.5 -453.3 342.3 C -453.3 340.1 -455.1 338.3 -457.3 338.3 C -459.5 338.3 -461.3 340.1 -461.3 342.3 C -461.3 344.5 -459.5 346.3 -457.3 346.3 Z M -457.3 339.9 C -455.9 339.9 -454.8 341 -454.8 342.4 C -454.8 343.8 -455.9 344.9 -457.3 344.9 C -458.7 344.9 -459.8 343.8 -459.8 342.4 C -459.7 341 -458.6 339.9 -457.3 339.9 Z" fill="#01abff"/>
        </g>
        <g id="Graphic_533">
          <path d="M -470.3 352.8 L -470.3 351.3 L -509.8 351.3 L -509.8 327.4 L -466.2 327.4 L -466.2 345.7 L -464.7 345.7 L -464.7 327.4 L -462.9 327.4 L -462.9 325.9 L -513 325.9 L -513 327.4 L -511.3 327.4 L -511.3 351.3 L -513 351.3 L -513 352.8 Z" fill="#01abff"/>
        </g>
        <g id="Graphic_532">
          <path d="M -494.9 370.8 C -494.9 373.3 -492.8 375.4 -490.3 375.4 C -487.8 375.4 -485.7 373.3 -485.7 370.8 C -485.7 368.3 -487.8 366.2 -490.3 366.2 C -492.8 366.2 -494.9 368.3 -494.9 370.8 Z M -487.3 370.8 C -487.3 372.5 -488.7 373.9 -490.4 373.9 C -492.1 373.9 -493.5 372.5 -493.5 370.8 C -493.5 369.1 -492.1 367.7 -490.4 367.7 C -488.7 367.7 -487.3 369.1 -487.3 370.8 Z" fill="#01abff"/>
        </g>
        <g id="Graphic_531">
          <path d="M -479.5 372.5 C -479.5 374.8 -477.6 376.7 -475.3 376.7 C -473 376.7 -471.1 374.8 -471.1 372.5 C -471.1 370.2 -473 368.3 -475.3 368.3 C -477.6 368.3 -479.5 370.2 -479.5 372.5 Z M -472.7 372.5 C -472.7 374 -473.9 375.2 -475.4 375.2 C -476.9 375.2 -478.1 374 -478.1 372.5 C -478.1 371 -476.9 369.8 -475.4 369.8 C -473.9 369.8 -472.7 371 -472.7 372.5 Z" fill="#01abff"/>
        </g>
        <g id="Graphic_530">
          <path d="M -467.2 381.3 C -467.2 380.6 -467.4 379.9 -467.8 379.2 C -468.2 378.5 -468.9 377.9 -469.7 377.6 L -472.7 376.5 L -475.2 381.1 L -475.6 381.1 L -478.1 376.5 L -481.1 377.6 C -481.5 377.7 -481.9 378 -482.2 378.2 C -482.7 377.5 -483.4 376.9 -484.2 376.6 L -487.5 375.4 L -490.2 380.5 L -490.8 380.5 L -493.5 375.4 L -496.7 376.7 C -497.5 377 -498.2 377.6 -498.7 378.3 C -499 378 -499.4 377.8 -499.8 377.7 L -502.8 376.6 L -505.3 381.2 L -505.6 381.2 L -508.1 376.6 L -511.1 377.7 C -511.9 378 -512.6 378.6 -513 379.3 C -513.4 380 -513.6 380.7 -513.6 381.3 C -513.6 381.3 -513.9 383.8 -514 386.2 L -514 387 L -466.8 387 L -466.8 386.2 C -466.9 383.8 -467.2 381.3 -467.2 381.3 Z M -496.2 378.1 L -494.1 377.4 L -491.5 382.2 L -489.1 382.2 L -486.5 377.4 L -484.5 378.1 C -483.9 378.3 -483.5 378.7 -483.2 379.2 C -483 379.6 -482.7 380.1 -482.7 380.8 C -482.7 380.8 -482.5 383 -482.3 385.4 L -484 385.4 L -484.2 382.7 L -485.7 382.8 L -485.5 385.4 L -495 385.4 L -494.8 382.8 L -496.3 382.7 L -496.5 385.4 L -498.2 385.4 C -498.1 383 -497.8 380.8 -497.8 380.7 C -497.8 380.1 -497.5 379.5 -497.3 379.1 C -497.2 378.7 -496.7 378.3 -496.2 378.1 Z M -512.1 381.3 C -512.1 380.8 -511.9 380.3 -511.7 379.9 C -511.5 379.5 -511.1 379.1 -510.6 379 L -508.8 378.4 L -506.5 382.6 L -504.3 382.6 L -502 378.4 L -500.2 379 C -499.8 379.1 -499.5 379.4 -499.2 379.7 C -499.3 380 -499.3 380.3 -499.3 380.6 C -499.3 380.6 -499.6 382.9 -499.7 385.4 L -509.5 385.4 L -509.4 383.1 L -510.9 383 L -511 385.4 L -512.4 385.4 C -512.3 383.3 -512.1 381.4 -512.1 381.3 Z M -469.7 385.4 L -469.8 383 L -471.3 383.1 L -471.2 385.4 L -480.9 385.4 C -481 383 -481.3 380.7 -481.3 380.7 C -481.3 380.4 -481.4 380 -481.4 379.7 C -481.2 379.4 -480.8 379.2 -480.5 379 L -478.7 378.4 L -476.4 382.6 L -474.2 382.6 L -471.9 378.4 L -470.1 379 C -469.6 379.2 -469.2 379.5 -469 379.9 C -468.8 380.2 -468.6 380.7 -468.6 381.3 C -468.6 381.3 -468.4 383.2 -468.3 385.3 L -469.7 385.3 Z" fill="#01abff"/>
        </g>
        <g id="Graphic_529">
          <path d="M -509.6 372.5 C -509.6 374.8 -507.7 376.7 -505.4 376.7 C -503.1 376.7 -501.2 374.8 -501.2 372.5 C -501.2 370.2 -503.1 368.3 -505.4 368.3 C -507.7 368.3 -509.6 370.2 -509.6 372.5 Z M -502.7 372.5 C -502.7 374 -503.9 375.2 -505.4 375.2 C -506.9 375.2 -508.1 374 -508.1 372.5 C -508.1 371 -506.9 369.8 -505.4 369.8 C -503.9 369.8 -502.7 371 -502.7 372.5 Z" fill="#01abff"/>
        </g>
        <g id="Graphic_528">
          <path d="M -504.4 340.8 L -504.4 347.1 L -506.9 347.1 L -506.9 348.6 L -483.5 348.6 L -483.5 347.1 L -485.9 347.1 L -485.9 338.6 L -487.4 338.6 L -487.4 347.1 L -491.6 347.1 L -491.6 330.2 L -493.1 330.2 L -493.1 347.1 L -497.3 347.1 L -497.3 335.5 L -498.8 335.5 L -498.8 347.1 L -502.9 347.1 L -502.9 340.8 Z" fill="#01abff"/>
        </g>
      </g>
    </g>
  </g>
</svg>
