<?xml version="1.0" encoding="UTF-8" standalone="no"?>
<!DOCTYPE svg PUBLIC "-//W3C//DTD SVG 1.1//EN" "http://www.w3.org/Graphics/SVG/1.1/DTD/svg11.dtd">
<svg xmlns:dc="http://purl.org/dc/elements/1.1/" xmlns:xl="http://www.w3.org/1999/xlink" version="1.1" xmlns="http://www.w3.org/2000/svg" viewBox="-363 676 64.297525 65.573515" width="64.297525" height="65.573515">
  <defs/>
  <g id="Canvas_1" fill="none" fill-opacity="1" stroke="none" stroke-dasharray="none" stroke-opacity="1">
    <title>Canvas 1</title>
    <g id="Canvas_1_Layer_1">
      <title>Layer 1</title>
      <g id="Group_628">
        <g id="Graphic_633">
          <path d="M -300.80248 731.3735 L -318.00248 715.7735 C -314.60248 711.1735 -312.90248 705.5735 -313.10248 699.8735 C -313.70248 687.2735 -323.50248 677.1735 -336.00248 676.0735 C -343.80248 675.4735 -351.50248 678.5735 -356.70248 684.3735 C -361.50248 689.7735 -363.70248 696.6735 -362.80248 703.9735 C -361.30248 716.4735 -350.70248 725.8735 -338.00248 725.8735 L -337.90248 725.8735 C -332.80248 725.8735 -328.00248 724.3735 -323.90248 721.4735 L -309.10248 739.4735 C -308.00248 740.7735 -306.40248 741.5735 -304.60248 741.5735 C -303.10248 741.5735 -301.60248 740.9735 -300.50248 739.9735 C -299.30248 738.8735 -298.70248 737.2735 -298.70248 735.6735 C -298.90248 733.9735 -299.60248 732.3735 -300.80248 731.3735 Z M -301.70248 738.7735 C -302.50248 739.5735 -303.60248 739.9735 -304.70248 739.9735 C -306.00248 739.9735 -307.20248 739.3735 -308.00248 738.3735 L -323.70248 719.3735 L -324.30248 719.7735 C -328.30248 722.6735 -333.00248 724.2735 -338.00248 724.2735 L -338.10248 724.2735 C -349.90248 724.2735 -359.90248 715.4735 -361.30248 703.7735 C -362.10248 696.9735 -360.00248 690.4735 -355.50248 685.3735 C -350.70248 679.8735 -343.40248 676.9735 -336.10248 677.5735 C -324.40248 678.5735 -315.20248 688.0735 -314.70248 699.8735 C -314.50248 705.4735 -316.20248 710.9735 -319.70248 715.3735 L -320.10248 715.8735 L -301.80248 732.3735 C -300.90248 733.1735 -300.40248 734.2735 -300.30248 735.5735 C -300.30248 736.7735 -300.80248 737.9735 -301.70248 738.7735 Z" fill="#01abff"/>
        </g>
        <g id="Graphic_632">
          <path d="M -305.0224 736.4215 L -306.04134 735.3206 L -304.9405 734.3017 L -303.92154 735.4025 Z" fill="#01abff"/>
        </g>
        <g id="Graphic_631">
          <path d="M -307.6676 733.579 L -308.68597 732.4776 L -307.5845 731.4592 L -306.56617 732.5607 Z" fill="#01abff"/>
        </g>
        <g id="Graphic_630">
          <path d="M -324.70248 686.7735 C -325.50248 685.9735 -326.50248 685.6735 -327.80248 685.6735 C -330.50248 685.6735 -334.20248 687.2735 -338.00248 690.0735 C -341.80248 687.3735 -345.50248 685.6735 -348.20248 685.6735 C -349.50248 685.6735 -350.60248 686.0735 -351.30248 686.7735 C -352.90248 688.3735 -352.80248 691.1735 -351.20248 694.8735 C -350.40248 696.5735 -349.40248 698.3735 -348.10248 700.1735 C -349.40248 701.9735 -350.50248 703.7735 -351.20248 705.4735 C -352.80248 709.1735 -352.90248 711.9735 -351.30248 713.5735 C -350.50248 714.3735 -349.50248 714.6735 -348.20248 714.6735 C -345.50248 714.6735 -341.80248 713.0735 -338.00248 710.2735 C -334.20248 712.9735 -330.50248 714.6735 -327.80248 714.6735 C -326.50248 714.6735 -325.40248 714.2735 -324.70248 713.5735 C -323.10248 711.9735 -323.20248 709.1735 -324.80248 705.4735 C -325.60248 703.7735 -326.60248 701.9735 -327.90248 700.1735 C -326.60248 698.3735 -325.50248 696.5735 -324.80248 694.8735 C -323.20248 691.1735 -323.20248 688.2735 -324.70248 686.7735 Z M -350.00248 694.1735 C -351.30248 691.1735 -351.50248 688.8735 -350.40248 687.7735 C -349.90248 687.2735 -349.20248 687.0735 -348.30248 687.0735 C -346.00248 687.0735 -342.70248 688.4735 -339.30248 690.8735 C -340.70248 691.9735 -342.10248 693.2735 -343.50248 694.5735 C -344.90248 695.9735 -346.10248 697.3735 -347.20248 698.7735 C -348.40248 697.2735 -349.30248 695.6735 -350.00248 694.1735 Z M -338.10248 691.8735 C -336.60248 692.9735 -335.10248 694.2735 -333.70248 695.7735 C -332.30248 697.1735 -331.00248 698.6735 -329.80248 700.1735 C -330.90248 701.6735 -332.20248 703.1735 -333.70248 704.5735 C -335.10248 705.9735 -336.60248 707.2735 -338.10248 708.4735 C -339.60248 707.3735 -341.10248 706.0735 -342.50248 704.5735 C -343.90248 703.1735 -345.20248 701.6735 -346.40248 700.1735 C -345.30248 698.6735 -344.00248 697.1735 -342.50248 695.7735 C -341.10248 694.2735 -339.60248 692.9735 -338.10248 691.8735 Z M -348.30248 713.0735 C -349.20248 713.0735 -349.90248 712.8735 -350.40248 712.3735 C -351.50248 711.2735 -351.30248 708.9735 -350.00248 705.9735 C -349.30248 704.4735 -348.40248 702.8735 -347.30248 701.3735 C -346.20248 702.7735 -344.90248 704.1735 -343.60248 705.5735 C -342.20248 706.9735 -340.80248 708.1735 -339.40248 709.2735 C -342.70248 711.6735 -346.00248 713.0735 -348.30248 713.0735 Z M -326.20248 705.9735 C -324.90248 708.9735 -324.70248 711.2735 -325.80248 712.3735 C -326.30248 712.8735 -327.00248 713.0735 -327.90248 713.0735 C -330.20248 713.0735 -333.50248 711.6735 -336.90248 709.2735 C -335.50248 708.1735 -334.10248 706.8735 -332.70248 705.5735 C -331.30248 704.1735 -330.10248 702.7735 -329.00248 701.3735 C -327.80248 702.9735 -326.90248 704.4735 -326.20248 705.9735 Z M -326.20248 694.1735 C -326.90248 695.6735 -327.80248 697.2735 -328.90248 698.7735 C -330.00248 697.3735 -331.30248 695.9735 -332.60248 694.5735 C -334.00248 693.1735 -335.40248 691.9735 -336.80248 690.8735 C -333.40248 688.4735 -330.10248 687.0735 -327.80248 687.0735 C -326.90248 687.0735 -326.20248 687.2735 -325.70248 687.7735 C -324.70248 688.8735 -324.90248 691.1735 -326.20248 694.1735 Z" fill="#01abff"/>
        </g>
        <g id="Graphic_629">
          <path d="M -338.10248 704.0735 C -335.90248 704.0735 -334.10248 702.2735 -334.10248 700.0735 C -334.10248 697.8735 -335.90248 696.0735 -338.10248 696.0735 C -340.30248 696.0735 -342.10248 697.8735 -342.10248 700.0735 C -342.10248 702.2735 -340.30248 704.0735 -338.10248 704.0735 Z M -338.10248 697.6735 C -336.70248 697.6735 -335.60248 698.7735 -335.60248 700.1735 C -335.60248 701.5735 -336.70248 702.6735 -338.10248 702.6735 C -339.50248 702.6735 -340.60248 701.5735 -340.60248 700.1735 C -340.50248 698.7735 -339.40248 697.6735 -338.10248 697.6735 Z" fill="#01abff"/>
        </g>
      </g>
    </g>
  </g>
</svg>
