<?xml version="1.0" encoding="UTF-8" standalone="no"?>
<!DOCTYPE svg PUBLIC "-//W3C//DTD SVG 1.1//EN" "http://www.w3.org/Graphics/SVG/1.1/DTD/svg11.dtd">
<svg xmlns:dc="http://purl.org/dc/elements/1.1/" xmlns:xl="http://www.w3.org/1999/xlink" version="1.1" xmlns="http://www.w3.org/2000/svg" viewBox="-436 -269 65 49.8" width="65" height="49.8">
  <defs/>
  <g id="Canvas_1" fill="none" fill-opacity="1" stroke="none" stroke-dasharray="none" stroke-opacity="1">
    <title>Canvas 1</title>
    <g id="Canvas_1_Layer_1">
      <title>Layer 1</title>
      <g id="Group_459">
        <g id="Graphic_462">
          <path d="M -371 -257.2 L -378.5 -269 L -428.5 -269 L -435.7 -257.6 L -436 -257.2 L -436 -257.1 C -436 -253.4 -433.2 -250.4 -429.6 -250 L -429.6 -219.2 L -377.3 -219.2 L -377.3 -250.1 C -373.8 -250.5 -371 -253.5 -371 -257.2 Z M -373.2 -257.9 L -384 -257.9 L -387.7 -267.5 L -379.4 -267.5 Z M -396.5 -257.9 L -397.7 -267.5 L -389.2 -267.5 L -385.5 -257.9 Z M -398 -257.9 L -409 -257.9 L -407.8 -267.5 L -399.3 -267.5 Z M -410.5 -257.9 L -421.4 -257.9 L -417.7 -267.5 L -409.2 -267.5 Z M -410.7 -256.4 C -411.1 -253.7 -413.4 -251.6 -416.2 -251.6 C -419 -251.6 -421.4 -253.7 -421.7 -256.4 Z M -398 -256.4 C -398.4 -253.7 -400.7 -251.6 -403.5 -251.6 C -406.3 -251.6 -408.7 -253.7 -409 -256.4 Z M -385.2 -256.4 C -385.6 -253.7 -387.9 -251.6 -390.7 -251.6 C -393.5 -251.6 -395.9 -253.7 -396.2 -256.4 Z M -427.7 -267.5 L -419.4 -267.5 L -423 -257.9 L -433.8 -257.9 Z M -434.5 -256.4 L -423.4 -256.4 C -423.8 -253.7 -426.1 -251.6 -428.9 -251.6 C -431.7 -251.6 -434.1 -253.7 -434.5 -256.4 Z M -422.6 -220.9 L -422.6 -241.7 L -409.9 -241.7 L -409.9 -220.9 L -422.6 -220.9 Z M -408.4 -220.9 L -408.4 -243.2 L -424.1 -243.2 L -424.1 -220.9 L -428.2 -220.9 L -428.2 -250.1 C -425.7 -250.4 -423.7 -251.9 -422.6 -254 C -421.4 -251.7 -419 -250 -416.2 -250 C -413.4 -250 -411 -251.6 -409.8 -254 C -408.6 -251.7 -406.2 -250 -403.4 -250 C -400.6 -250 -398.2 -251.6 -397 -254 C -395.8 -251.7 -393.4 -250 -390.6 -250 C -387.8 -250 -385.4 -251.6 -384.2 -254 C -383.1 -251.9 -381.1 -250.3 -378.6 -250.1 L -378.6 -220.8 L -408.4 -220.8 Z M -378.1 -251.6 C -380.9 -251.6 -383.3 -253.7 -383.6 -256.4 L -372.5 -256.4 C -372.9 -253.7 -375.3 -251.6 -378.1 -251.6 Z" fill="#01abff"/>
        </g>
        <g id="Graphic_461">
          <path d="M -400.2 -230.2 L -384.5 -230.2 L -384.5 -240.8 L -400.2 -240.8 Z M -398.8 -239.3 L -386 -239.3 L -386 -231.7 L -398.8 -231.7 Z" fill="#01abff"/>
        </g>
        <g id="Graphic_460">
          <rect x="-412.7" y="-231.7" width="1.5" height="1.5" fill="#01abff"/>
        </g>
      </g>
    </g>
  </g>
</svg>
