<?xml version="1.0" encoding="UTF-8" standalone="no"?>
<!DOCTYPE svg PUBLIC "-//W3C//DTD SVG 1.1//EN" "http://www.w3.org/Graphics/SVG/1.1/DTD/svg11.dtd">
<svg xmlns:dc="http://purl.org/dc/elements/1.1/" xmlns:xl="http://www.w3.org/1999/xlink" version="1.1" xmlns="http://www.w3.org/2000/svg" viewBox="-719.9 539.3 65 35.7" width="65" height="35.7">
  <defs/>
  <g id="Canvas_1" fill="none" fill-opacity="1" stroke="none" stroke-dasharray="none" stroke-opacity="1">
    <title>Canvas 1</title>
    <g id="Canvas_1_Layer_1">
      <title>Layer 1</title>
      <g id="Graphic_676">
        <path d="M -655.5 549.4 C -659.8 551.1 -663.2 554.8 -664.5 556.3 C -664.8 556.6 -665.1 556.6 -665.3 556.6 C -665.6 556.6 -665.8 556.5 -666 556.3 L -674.3 544.3 C -674.4 544.2 -674.4 544 -674.4 543.8 C -674.3 543.5 -674.1 543.1 -673.7 542.9 C -673.4 542.7 -672.9 542.5 -672.3 542.2 C -671.5 541.8 -670.5 541.4 -669.3 540.8 L -670 539.5 C -671.1 540.1 -672.1 540.5 -672.9 540.9 C -673.6 541.2 -674.1 541.5 -674.5 541.7 C -675.2 542.2 -675.8 542.8 -675.9 543.6 C -675.9 543.8 -675.9 544 -675.9 544.2 L -690.1 544.2 L -691.4 544.2 L -699 544.2 C -699 544 -699 543.8 -699 543.6 C -699.2 542.9 -699.7 542.2 -700.4 541.7 C -700.8 541.5 -701.3 541.2 -702 540.9 C -702.9 540.5 -704 540 -705.4 539.3 L -706.3 540.6 C -704.9 541.4 -703.7 541.9 -702.8 542.3 C -702.2 542.6 -701.6 542.8 -701.4 543 C -701 543.2 -700.7 543.6 -700.7 543.9 C -700.7 544.1 -700.7 544.2 -700.8 544.4 L -709.1 556.4 C -709.2 556.6 -709.5 556.7 -709.8 556.7 C -710 556.7 -710.3 556.7 -710.6 556.4 C -711.9 554.9 -715.3 551.2 -719.6 549.5 L -719.9 550.8 C -715.8 552.5 -712.4 556.2 -711.5 557.3 C -711 557.9 -710.4 558.2 -709.6 558.2 L -709.5 558.2 C -708.8 558.2 -708.2 557.9 -707.8 557.4 C -707.3 557.9 -706.5 558.6 -706.2 559.3 C -706.1 559.6 -706 559.7 -705.9 559.9 C -705.9 560 -705.8 560.1 -705.8 560.2 C -706.1 560.4 -706.4 560.6 -706.6 560.9 C -707.7 562.3 -707.4 564.4 -705.9 565.4 L -705.8 565.5 C -705.2 565.9 -704.6 566.1 -703.9 566.1 C -703.7 566.1 -703.5 566.1 -703.3 566 C -703.3 566.2 -703.3 566.3 -703.3 566.5 C -703.2 567.4 -702.7 568.2 -702 568.7 C -701.4 569.1 -700.7 569.4 -700 569.4 C -699.7 569.4 -699.4 569.4 -699.2 569.3 C -699.2 569.4 -699.2 569.5 -699.2 569.6 C -699.1 570.5 -698.6 571.3 -697.9 571.8 C -697.3 572.2 -696.6 572.5 -695.9 572.5 C -695.6 572.5 -695.3 572.4 -695 572.3 C -694.9 573.1 -694.5 573.9 -693.8 574.4 C -693.3 574.8 -692.7 575 -692 575 C -691.1 575 -690.3 574.6 -689.7 573.9 C -689.1 574.2 -688.5 574.4 -687.9 574.4 C -687.7 574.4 -687.5 574.4 -687.3 574.3 C -686.4 574.1 -685.6 573.6 -685.1 572.9 C -684.7 572.3 -684.5 571.6 -684.5 571 L -683.7 571.6 C -683.1 572 -682.4 572.2 -681.8 572.2 C -680.7 572.2 -679.6 571.7 -679 570.7 C -678.6 570.1 -678.4 569.4 -678.4 568.8 L -678.2 568.9 C -677.6 569.3 -676.9 569.5 -676.3 569.5 C -676.1 569.5 -675.9 569.5 -675.7 569.4 C -674.8 569.2 -674 568.7 -673.5 568 C -673.1 567.4 -672.9 566.7 -672.9 566 L -672.5 566.3 C -671.9 566.7 -671.2 566.9 -670.6 566.9 C -669.5 566.9 -668.4 566.4 -667.8 565.4 C -666.7 563.8 -667.1 561.7 -668.7 560.6 L -679.9 553 L -682.1 553 C -685.7 553 -686.2 550.3 -686.2 550 L -685.9 549.4 L -693.5 549.4 L -693.6 550 C -693.9 551.8 -694.5 553 -695.4 553.5 C -695.9 553.8 -696.4 553.9 -696.8 553.9 L -696.8 548.9 L -691 545.7 L -690.1 545.7 L -675 545.7 L -667.1 557.3 C -666.7 557.9 -666 558.2 -665.3 558.3 L -665.2 558.3 C -664.5 558.3 -663.8 558 -663.3 557.4 C -662.4 556.3 -659 552.6 -654.9 550.9 Z M -704.9 564.3 L -705 564.2 C -705.4 563.9 -705.6 563.5 -705.7 563.1 C -705.8 562.6 -705.7 562.2 -705.4 561.8 C -705.1 561.4 -704.6 561.1 -704 561.1 C -703.6 561.1 -703.3 561.2 -703 561.4 L -702.9 561.5 C -702.5 561.8 -702.3 562.2 -702.2 562.6 C -702.2 562.9 -702.2 563.2 -702.3 563.5 L -702.7 564 L -702.7 564.1 C -703.3 564.7 -704.2 564.7 -704.9 564.3 Z M -701.1 567.5 C -701.9 566.9 -702.1 565.8 -701.5 565 C -701.4 564.9 -701.3 564.8 -701.3 564.7 C -701.2 564.6 -701.1 564.4 -701 564.3 L -700.3 563.4 C -700 562.9 -699.4 562.7 -698.8 562.7 C -698.4 562.7 -698 562.8 -697.7 563.1 C -696.9 563.7 -696.7 564.8 -697.3 565.6 L -698.4 567.1 C -699.1 567.9 -700.3 568.1 -701.1 567.5 Z M -696.9 570.6 C -697.3 570.3 -697.5 569.9 -697.6 569.4 C -697.7 568.9 -697.6 568.4 -697.3 568.1 L -696.2 566.6 L -695.2 565.2 C -694.9 564.7 -694.3 564.5 -693.7 564.5 C -693.3 564.5 -692.9 564.6 -692.6 564.9 C -692.2 565.2 -692 565.6 -691.9 566.1 C -691.8 566.6 -691.9 567.1 -692.2 567.4 L -694.3 570.3 C -695 571 -696.2 571.1 -696.9 570.6 Z M -690.5 572.5 L -690.8 572.9 C -691.3 573.5 -692.2 573.7 -692.9 573.2 C -693.6 572.7 -693.7 571.8 -693.2 571.1 L -692.9 570.7 C -692.6 570.3 -692.2 570.1 -691.7 570.1 C -691.4 570.1 -691.1 570.2 -690.8 570.4 C -690.1 570.9 -690 571.8 -690.5 572.5 Z M -698.4 548 L -698.4 555.1 L -697.9 555.3 C -697.8 555.3 -696.3 555.8 -694.8 554.9 C -693.6 554.2 -692.8 552.9 -692.4 550.9 L -687.3 550.9 C -686.8 552.4 -685.3 554.6 -681.8 554.6 L -680.1 554.6 L -669.3 561.9 C -668.4 562.5 -668.2 563.7 -668.8 564.6 C -669.4 565.5 -670.6 565.7 -671.5 565.1 L -674.2 563.2 L -681.9 557.9 L -682.8 559.1 L -675.1 564.4 C -674.7 564.7 -674.4 565.1 -674.3 565.6 C -674.2 566.1 -674.3 566.6 -674.6 567 C -674.9 567.4 -675.3 567.7 -675.8 567.8 C -676.3 567.9 -676.8 567.8 -677.3 567.5 L -679.6 566 C -679.7 565.9 -679.7 565.9 -679.8 565.8 L -683.6 563.2 L -684.3 564.6 L -680.3 567.3 C -679.6 567.9 -679.4 569 -680 569.8 C -680.6 570.7 -681.8 570.9 -682.7 570.3 L -687.7 566.8 L -688.6 568 L -686.8 569.3 L -686.8 569.4 C -686.4 569.7 -686.1 570.1 -686 570.6 C -685.9 571.1 -686 571.6 -686.3 572 C -686.6 572.4 -687 572.7 -687.5 572.8 C -688 572.9 -688.5 572.8 -688.9 572.5 C -688.5 571.3 -688.8 569.9 -689.9 569.1 C -690.3 568.8 -690.9 568.6 -691.4 568.6 L -691.1 568.2 C -690.6 567.5 -690.4 566.6 -690.5 565.7 C -690.6 564.8 -691.1 564 -691.8 563.5 C -692.4 563.1 -693.1 562.8 -693.8 562.8 C -694.5 562.8 -695.2 563 -695.8 563.5 C -696 562.8 -696.4 562.2 -697 561.8 C -697.6 561.4 -698.3 561.1 -699 561.1 C -699.7 561.1 -700.4 561.3 -700.9 561.7 C -701.1 561.1 -701.5 560.5 -702 560.1 L -702.1 560 C -702.8 559.5 -703.6 559.3 -704.4 559.4 C -704.5 559.3 -704.5 559.2 -704.6 559 C -704.7 558.8 -704.8 558.6 -704.9 558.3 C -705.4 557.3 -706.4 556.4 -707 555.9 L -699.8 545.6 L -694.2 545.6 Z" fill="#01abff"/>
      </g>
    </g>
  </g>
</svg>
