<?xml version="1.0" encoding="UTF-8" standalone="no"?>
<!DOCTYPE svg PUBLIC "-//W3C//DTD SVG 1.1//EN" "http://www.w3.org/Graphics/SVG/1.1/DTD/svg11.dtd">
<svg xmlns:dc="http://purl.org/dc/elements/1.1/" version="1.1" xmlns="http://www.w3.org/2000/svg" xmlns:xl="http://www.w3.org/1999/xlink" viewBox="3 35.849153 58.69963 23.70114" width="58.69963" height="23.70114">
  <defs/>
  <g id="Canvas_1" fill-opacity="1" fill="none" stroke-dasharray="none" stroke-opacity="1" stroke="none">
    <title>Canvas 1</title>
    <g id="Canvas_1_Layer_1">
      <title>Layer 1</title>
      <g id="Group_2">
        <g id="Graphic_8">
          <path d="M 60.58843 40.281363 L 59.58088 39.170163 L 60.69208 38.162613 L 61.69963 39.273813 Z" fill="black"/>
        </g>
        <g id="Graphic_7">
          <path d="M 58.45115 37.967903 L 57.4436 36.856703 L 58.5548 35.849153 L 59.56235 36.960353 Z" fill="black"/>
        </g>
        <g id="Graphic_4">
          <path d="M 32.6 39.050293 C 30.4 38.450293 28.3 38.150293 26.2 38.150293 C 26.1 38.150293 26 38.150293 26 38.150293 C 25.9 38.150293 25.8 38.150293 25.8 38.150293 C 23.7 38.150293 21.6 38.450293 19.4 39.050293 C 10.3 41.550293 3.8 48.050293 3.5 48.350293 L 3 48.850293 L 3.5 49.350293 C 3.6 49.450293 7.1 52.950293 12.4 55.85029 C 17 58.35029 21.6 59.55029 25.9 59.55029 C 30.3 59.55029 34.8 58.25029 39.5 55.85029 C 44.8 52.950293 48.2 49.550293 48.4 49.350293 L 48.9 48.850293 L 48.4 48.350293 C 48.1 48.050293 41.6 41.550293 32.6 39.050293 Z M 26 58.05029 C 20.9 58.05029 16.8 53.95029 16.8 48.850293 C 16.8 43.850293 20.8 39.850293 25.7 39.650293 C 25.9 39.650293 26.1 39.650293 26.2 39.650293 C 31.2 39.750293 35.1 43.850293 35.1 48.850293 C 35.2 53.95029 31 58.05029 26 58.05029 Z M 13.1 54.55029 C 9.2 52.450293 6.3 49.950293 5.1 48.850293 C 6.8 47.350293 12.1 42.850293 19 40.750293 C 16.7 42.750293 15.2 45.650293 15.2 48.850293 C 15.2 52.050293 16.7 55.05029 18.9 56.95029 C 17.1 56.35029 15.1 55.55029 13.1 54.55029 Z M 38.8 54.55029 C 36.8 55.65029 34.9 56.45029 32.9 57.05029 C 35.2 55.05029 36.6 52.150293 36.6 48.950293 C 36.6 45.750293 35.1 42.750293 32.8 40.850293 C 39.6 42.950293 45 47.450293 46.7 48.950293 C 45.6 49.950293 42.7 52.450293 38.8 54.55029 Z" fill="#01abff"/>
        </g>
        <g id="Graphic_3">
          <path d="M 26 45.550293 C 24.2 45.550293 22.7 47.050293 22.7 48.850293 C 22.7 50.650293 24.2 52.150293 26 52.150293 C 27.8 52.150293 29.3 50.650293 29.3 48.850293 C 29.2 47.050293 27.8 45.550293 26 45.550293 Z M 26 50.650293 C 25 50.650293 24.2 49.850293 24.2 48.850293 C 24.2 47.850293 25 47.050293 26 47.050293 C 27 47.050293 27.8 47.850293 27.8 48.850293 C 27.7 49.850293 26.9 50.650293 26 50.650293 Z" fill="#01abff"/>
        </g>
      </g>
    </g>
  </g>
</svg>
