<?xml version="1.0" encoding="UTF-8" standalone="no"?>
<!DOCTYPE svg PUBLIC "-//W3C//DTD SVG 1.1//EN" "http://www.w3.org/Graphics/SVG/1.1/DTD/svg11.dtd">
<svg xmlns:dc="http://purl.org/dc/elements/1.1/" xmlns:xl="http://www.w3.org/1999/xlink" version="1.1" xmlns="http://www.w3.org/2000/svg" viewBox="-103 -10.2 65 54.2" width="65" height="54.2">
  <defs/>
  <g id="Canvas_1" fill="none" fill-opacity="1" stroke="none" stroke-dasharray="none" stroke-opacity="1">
    <title>Canvas 1</title>
    <g id="Canvas_1_Layer_1">
      <title>Layer 1</title>
      <g id="Group_287">
        <g id="Graphic_292">
          <path d="M -87.66639 38.43967 L -79.74687 30.52015 L -78.68622 31.5808 L -86.60574 39.50032 Z" fill="#01abff"/>
        </g>
        <g id="Graphic_291">
          <path d="M -80.8 35.3 C -82 35.3 -83.1 36.3 -83.1 37.6 C -83.1 38.8 -82.1 39.9 -80.8 39.9 C -79.6 39.9 -78.5 38.9 -78.5 37.6 C -78.5 36.4 -79.6 35.3 -80.8 35.3 Z M -80.8 38.4 C -81.2 38.4 -81.6 38.1 -81.6 37.6 C -81.6 37.2 -81.3 36.8 -80.8 36.8 C -80.4 36.8 -80 37.1 -80 37.6 C -80 38 -80.4 38.4 -80.8 38.4 Z" fill="#01abff"/>
        </g>
        <g id="Graphic_290">
          <path d="M -85.8 34.8 C -84.6 34.8 -83.5 33.8 -83.5 32.5 C -83.5 31.3 -84.5 30.2 -85.8 30.2 C -87 30.2 -88.1 31.2 -88.1 32.5 C -88.1 33.8 -87.1 34.8 -85.8 34.8 Z M -85.8 31.8 C -85.4 31.8 -85 32.1 -85 32.6 C -85 33 -85.3 33.4 -85.8 33.4 C -86.2 33.4 -86.6 33.1 -86.6 32.6 C -86.6 32.1 -86.3 31.8 -85.8 31.8 Z" fill="#01abff"/>
        </g>
        <g id="Graphic_289">
          <path d="M -57.6 8.7 C -57.1 8.3 -56.3 8.3 -55.8 8.7 C -55.6 8.9 -55.5 9.1 -55.5 9.3 L -54 9.3 C -54 8.6 -54.3 8 -54.8 7.6 C -55.1 7.3 -55.5 7.2 -55.9 7.1 L -55.9 6 L -57.4 6 L -57.4 7.1 C -57.8 7.2 -58.2 7.4 -58.5 7.6 C -59 8.1 -59.3 8.7 -59.3 9.3 C -59.3 10 -59 10.6 -58.5 11 C -58 11.4 -57.3 11.7 -56.7 11.7 C -56.4 11.7 -56.1 11.8 -55.8 12 C -55.6 12.2 -55.5 12.4 -55.5 12.6 C -55.5 12.8 -55.6 13 -55.8 13.2 C -56.3 13.6 -57.1 13.6 -57.6 13.2 C -57.7 13.1 -57.9 12.9 -57.9 12.6 L -59.4 12.6 C -59.4 13.3 -59.1 13.9 -58.6 14.3 C -58.3 14.6 -57.9 14.8 -57.5 14.9 L -57.5 16 L -56 16 L -56 14.9 C -55.6 14.8 -55.2 14.6 -54.9 14.3 C -54.4 13.8 -54.1 13.2 -54.1 12.6 C -54.1 11.9 -54.4 11.3 -54.9 10.9 C -55.4 10.5 -56.1 10.2 -56.7 10.2 C -57 10.2 -57.3 10.1 -57.6 9.9 C -57.8 9.9 -58 9.7 -58 9.4 C -58 9.1 -57.8 8.8 -57.6 8.7 Z" fill="#01abff"/>
        </g>
        <g id="Graphic_288">
          <path d="M -38 -.5 L -40.7 -.5 L -41.7 -6.2 L -45.2 -5.6 L -46.9 -10.2 L -75 -.5 L -75.5 -.5 L -75.5 6.2 C -79.7 6.7 -82.6 8.3 -82.6 10.5 L -82.6 26.3 C -82.8 26.3 -83 26.3 -83.2 26.3 C -83.7 26.3 -84.3 26.4 -84.8 26.4 L -84.8 21.9 C -84.8 19.4 -88.7 17.5 -93.9 17.5 C -99.1 17.5 -103 19.4 -103 21.9 L -103 39.6 C -103 42.1 -99.1 44 -93.9 44 C -91.6 44 -89.3 43.6 -87.7 42.8 C -86.4 43.5 -84.9 44 -83.3 44 C -81.8 44 -80.5 43.6 -79.2 43 C -77.5 43.6 -75.4 44 -73.1 44 C -67.7 44 -63.6 42.1 -63.6 39.6 L -63.6 22.6 L -38 22.6 Z M -42.3 -.5 L -66.1 -.5 L -42.9 -4.5 Z M -46.7 -5.3 L -66.2 -1.9 L -47.8 -8.2 Z M -73.2 7.5 C -68.6 7.5 -65.2 9 -65.2 10.4 C -65.2 11.8 -68.6 13.3 -73.2 13.3 C -77.8 13.3 -81.2 11.8 -81.2 10.4 C -81.2 9.1 -77.8 7.5 -73.2 7.5 Z M -63.6 10.4 C -63.6 8.9 -65.1 7.6 -67.5 6.8 C -67 6.2 -66.6 5.4 -66.5 4.6 L -47 4.6 C -46.7 6.6 -45.1 8.1 -43.1 8.5 L -43.1 13.5 C -45.1 13.8 -46.6 15.4 -47 17.4 L -63.6 17.4 Z M -81.2 12.8 C -79.5 14 -76.6 14.8 -73.2 14.8 C -69.7 14.8 -66.8 14 -65.2 12.8 L -65.2 16.2 C -65.2 17.6 -68.6 19.1 -73.2 19.1 C -77.8 19.1 -81.2 17.6 -81.2 16.2 L -81.2 12.8 Z M -81.2 18.7 C -79.5 19.9 -76.6 20.7 -73.2 20.7 C -69.7 20.7 -66.8 19.9 -65.2 18.7 L -65.2 22.2 C -65.2 23.6 -68.6 25.1 -73.2 25.1 C -77.8 25.1 -81.2 23.6 -81.2 22.2 L -81.2 18.7 Z M -93.9 19 C -89.6 19 -86.3 20.5 -86.3 21.9 C -86.3 23.3 -89.5 24.8 -93.9 24.8 C -98.2 24.8 -101.5 23.3 -101.5 21.9 C -101.5 20.5 -98.3 19 -93.9 19 Z M -101.5 24.3 C -99.9 25.5 -97.2 26.2 -93.9 26.2 C -90.7 26.2 -87.9 25.5 -86.3 24.3 L -86.3 26.7 C -88.1 27.4 -89.7 28.6 -90.7 30.3 C -91.7 30.5 -92.7 30.6 -93.8 30.6 C -98.1 30.6 -101.4 29.1 -101.4 27.7 L -101.4 24.3 Z M -101.5 30.1 C -99.9 31.3 -97.2 32 -93.9 32 C -93.1 32 -92.3 31.9 -91.6 31.8 C -92 32.8 -92.2 33.9 -92.2 35 C -92.2 35.5 -92.2 35.9 -92.1 36.4 C -92.7 36.5 -93.3 36.5 -93.9 36.5 C -98.2 36.5 -101.5 35 -101.5 33.6 Z M -93.9 42.5 C -98.2 42.5 -101.5 41 -101.5 39.6 L -101.5 36.1 C -99.9 37.3 -97.2 38 -93.9 38 C -93.2 38 -92.4 37.9 -91.7 37.9 C -91.2 39.4 -90.3 40.8 -89.1 41.8 C -90.5 42.2 -92.2 42.5 -93.9 42.5 Z M -90.7 35.1 C -90.7 31 -87.4 27.7 -83.3 27.7 C -79.2 27.7 -75.9 31 -75.9 35.1 C -75.9 39.2 -79.2 42.5 -83.3 42.5 C -87.4 42.5 -90.7 39.2 -90.7 35.1 Z M -73.2 42.5 C -74.8 42.5 -76.4 42.3 -77.7 42 C -76.6 41.1 -75.7 39.9 -75.1 38.5 C -74.5 38.6 -73.8 38.6 -73.2 38.6 C -69.7 38.6 -66.8 37.8 -65.2 36.6 L -65.2 39.7 C -65.1 41 -68.6 42.5 -73.2 42.5 Z M -73.2 37 C -73.7 37 -74.2 37 -74.7 36.9 C -74.6 36.3 -74.5 35.7 -74.5 35 C -74.5 34.1 -74.6 33.2 -74.9 32.4 C -74.4 32.4 -73.8 32.5 -73.3 32.5 C -69.8 32.5 -66.9 31.7 -65.3 30.5 L -65.3 34 C -65.1 35.5 -68.6 37 -73.2 37 Z M -73.2 31.1 C -74 31.1 -74.7 31 -75.5 31 C -76.7 28.8 -78.8 27.1 -81.2 26.5 L -81.2 24.7 C -79.5 25.9 -76.6 26.7 -73.2 26.7 C -69.7 26.7 -66.8 25.9 -65.2 24.7 L -65.2 28.2 C -65.1 29.5 -68.6 31.1 -73.2 31.1 Z M -39.5 21.1 L -63.6 21.1 L -63.6 18.9 L -45.6 18.9 L -45.6 18.2 C -45.6 16.5 -44.2 15 -42.4 15 L -41.7 15 L -41.7 7.2 L -42.4 7.2 C -44.1 7.2 -45.6 5.8 -45.6 4 L -45.6 3.3 L -67.9 3.3 L -67.9 4 C -67.9 5 -68.4 5.9 -69.1 6.5 C -70.3 6.3 -71.6 6.1 -73.1 6.1 C -73.4 6.1 -73.7 6.1 -74 6.1 L -74 1 L -39.4 1 L -39.4 21.1 Z" fill="#01abff"/>
        </g>
      </g>
    </g>
  </g>
</svg>
