<?xml version="1.0" encoding="UTF-8" standalone="no"?>
<!DOCTYPE svg PUBLIC "-//W3C//DTD SVG 1.1//EN" "http://www.w3.org/Graphics/SVG/1.1/DTD/svg11.dtd">
<svg xmlns:dc="http://purl.org/dc/elements/1.1/" xmlns:xl="http://www.w3.org/1999/xlink" version="1.1" xmlns="http://www.w3.org/2000/svg" viewBox="-332 -58 65.1 49.7" width="65.1" height="49.7">
  <defs/>
  <g id="Canvas_1" fill="none" fill-opacity="1" stroke="none" stroke-dasharray="none" stroke-opacity="1">
    <title>Canvas 1</title>
    <g id="Canvas_1_Layer_1">
      <title>Layer 1</title>
      <g id="Graphic_721">
        <path d="M -270 -20.7 L -277.7 -50.5 L -274.7 -50.5 L -274.7 -52 L -289.1 -52 L -289.1 -54.7 C -289.1 -56.2 -290.3 -57.4 -291.8 -57.4 C -292.4 -57.4 -293 -57.2 -293.4 -56.8 C -293.9 -57.5 -294.7 -58 -295.7 -58 C -296.5 -58 -297.2 -57.7 -297.6 -57.2 C -298.1 -57.7 -298.8 -58 -299.5 -58 C -300.3 -58 -301 -57.7 -301.5 -57.1 C -302 -57.6 -302.7 -58 -303.5 -58 C -304.9 -58 -306.1 -56.8 -306.1 -55.4 L -306.1 -54.1 L -307 -54.1 C -308.4 -54.1 -309.5 -53.2 -309.9 -51.9 L -324.6 -51.9 L -324.6 -50.4 L -321.3 -50.4 L -329 -20.7 L -332 -20.7 L -332 -20 C -332 -13.6 -326.8 -8.3 -320.3 -8.3 C -313.9 -8.3 -308.6 -13.5 -308.6 -20 L -308.6 -20.7 L -311.6 -20.7 L -319.3 -50.5 L -310 -50.5 L -310 -43.6 C -310 -42.8 -309.6 -42 -308.9 -41.6 L -306.1 -39.6 L -306.1 -33.8 L -304.6 -33.8 L -304.6 -40.4 L -308.1 -42.8 C -308.4 -43 -308.5 -43.3 -308.5 -43.6 L -308.5 -51.3 C -308.5 -52.1 -307.8 -52.8 -307 -52.8 L -305 -52.8 L -304.7 -52.8 L -300.5 -52.8 C -300.8 -51.8 -301.6 -50.9 -303.1 -50.9 L -307.1 -50.9 L -307.1 -49.4 L -306.3 -49.4 L -306.3 -46.7 L -304.8 -46.7 L -304.8 -49.4 L -303 -49.4 C -302.7 -49.4 -302.4 -49.4 -302.2 -49.5 C -301.9 -48.3 -300.9 -47.4 -299.6 -47.4 C -298.8 -47.4 -298.1 -47.7 -297.7 -48.2 C -297.2 -47.7 -296.5 -47.4 -295.8 -47.4 C -295 -47.4 -294.3 -47.7 -293.9 -48.2 C -293.4 -47.7 -292.7 -47.4 -292 -47.4 C -291.6 -47.4 -291.2 -47.5 -290.8 -47.7 L -290.8 -43.3 C -290.8 -43 -290.9 -42.7 -291 -42.4 L -291.7 -41 C -292 -40.4 -292.1 -39.8 -292.1 -39.2 L -292.1 -35.1 L -290.6 -35.1 L -290.6 -39.2 C -290.6 -39.6 -290.5 -40 -290.3 -40.4 L -289.6 -41.8 C -289.4 -42.3 -289.3 -42.8 -289.3 -43.3 L -289.3 -50 L -289.3 -50.4 L -279.8 -50.4 L -287.3 -20.7 L -290.3 -20.7 L -290.3 -20 C -290.3 -13.6 -285.1 -8.3 -278.6 -8.3 C -272.2 -8.3 -266.9 -13.5 -266.9 -20 L -266.9 -20.7 Z M -320.3 -28.4 C -322.5 -28.4 -324.5 -27.5 -326 -26.1 L -320.3 -48.3 L -314.6 -26.1 C -316.1 -27.5 -318.1 -28.4 -320.3 -28.4 Z M -313.5 -20.2 C -313.5 -16.5 -316.5 -13.4 -320.3 -13.4 C -324 -13.4 -327.1 -16.4 -327.1 -20.2 C -327.1 -23.9 -324.1 -27 -320.3 -27 C -316.6 -26.9 -313.5 -23.9 -313.5 -20.2 Z M -320.3 -9.8 C -325.7 -9.8 -330.1 -14 -330.5 -19.2 L -328.6 -19.2 C -328.1 -15.1 -324.6 -11.9 -320.4 -11.9 C -316.2 -11.9 -312.6 -15.1 -312.2 -19.2 L -310.3 -19.2 C -310.5 -14 -315 -9.8 -320.3 -9.8 Z M -278.7 -28.4 C -280.9 -28.4 -282.9 -27.5 -284.4 -26.1 L -278.7 -48.3 L -273 -26.1 C -274.4 -27.5 -276.5 -28.4 -278.7 -28.4 Z M -271.9 -20.2 C -271.9 -16.5 -274.9 -13.4 -278.7 -13.4 C -282.4 -13.4 -285.5 -16.4 -285.5 -20.2 C -285.5 -23.9 -282.5 -27 -278.7 -27 C -274.9 -26.9 -271.9 -23.9 -271.9 -20.2 Z M -304.7 -54.3 L -304.7 -55.6 C -304.7 -56.2 -304.2 -56.7 -303.6 -56.7 C -302.9 -56.7 -302.3 -56.1 -302.3 -55.4 L -302.3 -54.3 Z M -299.6 -48.9 C -300.2 -48.9 -300.7 -49.4 -300.8 -50 C -299.6 -50.8 -298.9 -52.1 -298.9 -53.5 L -298.9 -54.2 L -300.8 -54.2 L -300.8 -55.3 L -300.8 -55.4 C -300.8 -56.1 -300.3 -56.6 -299.6 -56.6 C -298.9 -56.6 -298.4 -56.1 -298.4 -55.4 L -298.4 -50.1 C -298.4 -49.5 -299 -48.9 -299.6 -48.9 Z M -295.7 -48.9 C -296.4 -48.9 -296.9 -49.4 -296.9 -50.1 L -296.9 -55.4 C -296.9 -56.1 -296.4 -56.6 -295.7 -56.6 C -295 -56.6 -294.5 -56.1 -294.5 -55.4 L -294.5 -54.7 L -294.5 -50.1 C -294.5 -49.5 -295.1 -48.9 -295.7 -48.9 Z M -291.8 -48.9 C -292.5 -48.9 -293 -49.4 -293 -50.1 L -293 -54.7 C -293 -55.4 -292.5 -55.9 -291.8 -55.9 C -291.1 -55.9 -290.6 -55.4 -290.6 -54.7 L -290.6 -51.8 L -290.6 -50 C -290.6 -49.5 -291.2 -48.9 -291.8 -48.9 Z M -278.7 -9.8 C -284.1 -9.8 -288.5 -14 -288.9 -19.2 L -287 -19.2 C -286.5 -15.1 -283 -11.9 -278.8 -11.9 C -274.6 -11.9 -271 -15.1 -270.6 -19.2 L -268.7 -19.2 C -268.9 -14 -273.3 -9.8 -278.7 -9.8 Z" fill="#01abff"/>
      </g>
    </g>
  </g>
</svg>
