<?xml version="1.0" encoding="UTF-8" standalone="no"?>
<!DOCTYPE svg PUBLIC "-//W3C//DTD SVG 1.1//EN" "http://www.w3.org/Graphics/SVG/1.1/DTD/svg11.dtd">
<svg xmlns:dc="http://purl.org/dc/elements/1.1/" xmlns:xl="http://www.w3.org/1999/xlink" version="1.1" xmlns="http://www.w3.org/2000/svg" viewBox="-767.6 599.9 60.6 65.1" width="60.6" height="65.1">
  <defs/>
  <g id="Canvas_1" fill="none" fill-opacity="1" stroke="none" stroke-dasharray="none" stroke-opacity="1">
    <title>Canvas 1</title>
    <g id="Canvas_1_Layer_1">
      <title>Layer 1</title>
      <g id="Graphic_690">
        <path d="M -716.9 647.5 L -716.9 603.7 L -716.9 599.9 L -718.4 599.9 L -718.4 602.9 L -736.8 602.9 C -737.2 602.9 -737.6 603.2 -737.6 603.7 L -737.6 607.1 L -749 607.1 C -749.3 607.1 -749.5 607.2 -749.6 607.5 C -749.7 607.7 -749.7 608 -749.6 608.2 L -745.6 615.7 L -749.6 623.2 C -749.7 623.4 -749.7 623.7 -749.6 623.9 C -749.5 624.1 -749.2 624.3 -749 624.3 L -729.8 624.3 C -729.7 624.3 -729.6 624.3 -729.5 624.2 C -729.5 624.2 -729.4 624.2 -729.4 624.1 C -729.3 624 -729.3 624 -729.2 623.9 L -729.2 623.8 L -729.2 623.7 L -729.2 620.3 L -718.5 620.3 L -718.5 647.7 L -728.3 647.7 L -728.3 651.5 L -747.9 651.5 L -747.9 655.6 L -767.6 655.6 L -767.6 665 L -707 665 L -707 647.5 Z M -747.9 663.2 L -766.1 663.2 L -766.1 656.8 L -747.9 656.8 L -747.9 663.2 Z M -728.2 663.2 L -746.4 663.2 L -746.4 652.7 L -728.2 652.7 Z M -747.7 622.7 L -744.1 616 C -744 615.8 -744 615.5 -744.1 615.3 L -747.7 608.6 L -737.5 608.6 L -737.5 619.3 L -737.5 619.4 C -737.6 619.7 -737.5 620.1 -737.2 620.3 L -732.8 622.7 L -747.7 622.7 Z M -730.6 622.2 L -734.6 620 L -730.6 620 Z M -736 618.6 L -736 604.4 L -718.4 604.4 L -718.4 618.5 L -736 618.5 Z M -708.5 663.2 L -726.7 663.2 L -726.7 649 L -708.5 649 L -708.5 663.2 Z" fill="#01abff"/>
      </g>
    </g>
  </g>
</svg>
