<?xml version="1.0" encoding="UTF-8" standalone="no"?>
<!DOCTYPE svg PUBLIC "-//W3C//DTD SVG 1.1//EN" "http://www.w3.org/Graphics/SVG/1.1/DTD/svg11.dtd">
<svg xmlns:dc="http://purl.org/dc/elements/1.1/" xmlns:xl="http://www.w3.org/1999/xlink" version="1.1" xmlns="http://www.w3.org/2000/svg" viewBox="55 -89 65 60.4" width="65" height="60.4">
  <defs/>
  <g id="Canvas_1" fill="none" fill-opacity="1" stroke="none" stroke-dasharray="none" stroke-opacity="1">
    <title>Canvas 1</title>
    <g id="Canvas_1_Layer_1">
      <title>Layer 1</title>
      <g id="Group_231">
        <g id="Graphic_245">
          <path d="M 115.2 -78.8 L 98.4 -78.8 L 98.4 -72 L 115.1 -72 L 115.1 -78.8 Z M 113.7 -73.6 L 99.9 -73.6 L 99.9 -77.3 L 113.7 -77.3 Z" fill="#01abff"/>
        </g>
        <g id="Graphic_244">
          <rect x="99.9" y="-60.8" width="4.5" height="1.5" fill="#01abff"/>
        </g>
        <g id="Graphic_243">
          <rect x="110.7" y="-58.3" width="1.5" height="1.5" fill="#01abff"/>
        </g>
        <g id="Graphic_242">
          <rect x="108.8" y="-60.8" width="5.4" height="1.5" fill="#01abff"/>
        </g>
        <g id="Graphic_241">
          <rect x="110.7" y="-63.2" width="1.5" height="1.5" fill="#01abff"/>
        </g>
        <g id="Graphic_240">
          <path d="M 102.9 -69.9 L 101.4 -69.9 L 101.4 -68.4 L 99.9 -68.4 L 99.9 -66.9 L 101.4 -66.9 L 101.4 -65.4 L 102.9 -65.4 L 102.9 -66.9 L 104.4 -66.9 L 104.4 -68.4 L 102.9 -68.4 Z" fill="#01abff"/>
        </g>
        <g id="Graphic_239">
          <path d="M 110.4 -65.5 L 111.5 -66.6 L 112.5 -65.5 L 113.6 -66.6 L 112.5 -67.6 L 113.6 -68.7 L 112.5 -69.7 L 111.5 -68.7 L 110.4 -69.7 L 109.4 -68.7 L 110.4 -67.6 L 109.4 -66.6 Z" fill="#01abff"/>
        </g>
        <g id="Graphic_238">
          <path d="M 79.2 -45.4 C 79.2 -46.3 78.8 -47.1 78.1 -47.7 C 77.4 -48.3 76.6 -48.6 75.6 -48.6 C 75 -48.6 74.5 -48.8 74.1 -49.1 C 73.7 -49.4 73.5 -49.8 73.5 -50.3 C 73.5 -50.7 73.7 -51.1 74.1 -51.5 C 74.9 -52.2 76.3 -52.2 77.1 -51.5 C 77.5 -51.2 77.7 -50.8 77.7 -50.3 L 79.2 -50.3 C 79.2 -51.2 78.8 -52 78.1 -52.6 C 77.6 -53 77 -53.3 76.4 -53.4 L 76.4 -55.3 L 74.9 -55.3 L 74.9 -53.3 C 74.3 -53.2 73.7 -52.9 73.2 -52.5 C 72.5 -51.9 72.1 -51.1 72.1 -50.2 C 72.1 -49.3 72.5 -48.5 73.2 -47.9 C 73.9 -47.3 74.7 -47 75.7 -47 C 76.3 -47 76.8 -46.8 77.2 -46.5 C 77.6 -46.2 77.8 -45.8 77.8 -45.3 C 77.8 -44.9 77.6 -44.5 77.2 -44.1 C 76.4 -43.4 75 -43.4 74.2 -44.1 C 73.8 -44.4 73.6 -44.8 73.6 -45.3 L 72.1 -45.3 C 72.1 -44.4 72.5 -43.6 73.2 -43 C 73.7 -42.6 74.3 -42.3 74.9 -42.2 L 74.9 -40.3 L 76.4 -40.3 L 76.4 -42.3 C 77 -42.4 77.6 -42.7 78.1 -43.1 C 78.8 -43.7 79.2 -44.5 79.2 -45.4 Z" fill="#01abff"/>
        </g>
        <g id="Graphic_237">
          <path d="M 120 -36.5 L 120 -37.2 L 110.2 -37.2 L 110.2 -54 L 118.2 -54 L 118.2 -82.2 L 110.2 -82.2 L 110.2 -82.6 C 110.2 -86.1 107.4 -88.9 103.9 -89 L 62 -89 C 61.8 -89 61.6 -89 61.4 -89 C 57.9 -89 55 -86.1 55 -82.6 L 55 -80.4 L 66.3 -80.4 L 66.3 -35 C 66.3 -31.5 69.2 -28.6 72.7 -28.6 L 114.4 -28.6 C 117.6 -28.6 120 -31.1 120 -34.5 C 120 -35 120 -36.5 120 -36.5 Z M 116.7 -80.7 L 116.7 -55.4 L 97 -55.4 L 97 -80.7 Z M 66.3 -81.9 L 56.5 -81.9 L 56.5 -82.6 C 56.5 -85.3 58.7 -87.5 61.4 -87.5 C 64.1 -87.5 66.3 -85.3 66.3 -82.6 Z M 72.7 -30.1 C 70 -30.1 67.8 -32.3 67.8 -35 L 67.8 -38.5 L 67.8 -82.7 C 67.8 -84.7 66.9 -86.5 65.5 -87.6 L 103.7 -87.6 C 106.4 -87.6 108.6 -85.4 108.6 -82.7 L 108.6 -82.3 L 95.5 -82.3 L 95.5 -54.1 L 108.7 -54.1 L 108.7 -37.3 L 78.4 -37.3 L 77.3 -37.1 L 77.5 -36.3 C 77.6 -35.9 77.7 -35.4 77.7 -35 C 77.6 -32.3 75.4 -30.1 72.7 -30.1 Z M 114.4 -30.1 L 76.8 -30.1 C 78.2 -31.3 79.1 -33 79.1 -35 C 79.1 -35.2 79.1 -35.5 79 -35.7 L 118.4 -35.7 C 118.4 -35.3 118.4 -34.7 118.4 -34.5 C 118.5 -31.9 116.8 -30.1 114.4 -30.1 Z" fill="#01abff"/>
        </g>
        <g id="Graphic_236">
          <path d="M 85.20909 -77.93009 L 77.36028 -70.08128 L 76.29963 -71.14193 L 84.14844 -78.99074 Z" fill="#01abff"/>
        </g>
        <g id="Graphic_235">
          <path d="M 83.5 -73.8 C 82.3 -73.8 81.3 -72.8 81.3 -71.6 C 81.3 -70.4 82.3 -69.4 83.5 -69.4 C 84.7 -69.4 85.7 -70.4 85.7 -71.6 C 85.8 -72.8 84.8 -73.8 83.5 -73.8 Z M 83.5 -70.8 C 83.1 -70.8 82.7 -71.1 82.7 -71.6 C 82.7 -72 83 -72.4 83.5 -72.4 C 83.9 -72.4 84.3 -72.1 84.3 -71.6 C 84.3 -71.1 83.9 -70.8 83.5 -70.8 Z" fill="#01abff"/>
        </g>
        <g id="Graphic_234">
          <path d="M 77.7 -75.1 C 78.9 -75.1 79.9 -76.1 79.9 -77.3 C 79.9 -78.5 78.9 -79.5 77.7 -79.5 C 76.5 -79.5 75.5 -78.5 75.5 -77.3 C 75.5 -76.1 76.5 -75.1 77.7 -75.1 Z M 77.7 -78.1 C 78.1 -78.1 78.5 -77.8 78.5 -77.3 C 78.5 -76.9 78.2 -76.5 77.7 -76.5 C 77.3 -76.5 76.9 -76.8 76.9 -77.3 C 76.9 -77.8 77.3 -78.1 77.7 -78.1 Z" fill="#01abff"/>
        </g>
        <g id="Graphic_233">
          <path d="M 80.6 -65 C 85.8 -65 90.1 -69.2 90.1 -74.4 C 90.1 -79.6 85.9 -83.9 80.6 -83.9 C 75.4 -83.9 71.1 -79.7 71.1 -74.5 C 71.1 -69.3 75.3 -65 80.6 -65 Z M 80.6 -82.4 C 85 -82.4 88.6 -78.8 88.6 -74.4 C 88.6 -70 85 -66.4 80.6 -66.4 L 80.6 -65.7 L 80.6 -66.4 C 76.2 -66.4 72.6 -70 72.6 -74.4 C 72.6 -78.9 76.2 -82.4 80.6 -82.4 Z" fill="#01abff"/>
        </g>
        <g id="Graphic_232">
          <path d="M 89.8 -54.2 L 86.7 -49.3 L 83.6 -54.2 L 82.3 -53.5 L 85.4 -48.6 L 82.9 -48.6 L 82.9 -47.1 L 86 -47.1 L 86 -45.6 L 82.9 -45.6 L 82.9 -44.1 L 86 -44.1 L 86 -41.8 L 87.4 -41.8 L 87.4 -44.1 L 90.5 -44.1 L 90.5 -45.6 L 87.4 -45.6 L 87.4 -47.1 L 90.5 -47.1 L 90.5 -48.6 L 88 -48.6 L 91.1 -53.5 Z" fill="#01abff"/>
        </g>
      </g>
    </g>
  </g>
</svg>
