<?xml version="1.0" encoding="UTF-8" standalone="no"?>
<!DOCTYPE svg PUBLIC "-//W3C//DTD SVG 1.1//EN" "http://www.w3.org/Graphics/SVG/1.1/DTD/svg11.dtd">
<svg xmlns:dc="http://purl.org/dc/elements/1.1/" xmlns:xl="http://www.w3.org/1999/xlink" version="1.1" xmlns="http://www.w3.org/2000/svg" viewBox="-248 185 91 93" width="91" height="93">
  <defs/>
  <g id="Canvas_1" fill="none" fill-opacity="1" stroke="none" stroke-dasharray="none" stroke-opacity="1">
    <title>Canvas 1</title>
    <g id="Canvas_1_Layer_1">
      <title>Layer 1</title>
      <g id="Group_161">
        <title>_x30_5_x5F_office_x5F_folders</title>
        <g id="Group_162">
          <g id="Group_172">
            <g id="Group_187">
              <g id="Graphic_188">
                <path d="M -159.97627 277.9984 L -198.99834 277.9984 C -200.64287 277.9984 -201.973 276.66687 -201.973 275.02263 L -201.973 190.091 C -201.973 188.44676 -200.64126 187.11525 -198.99834 187.11525 L -159.97627 187.11525 C -158.33175 187.11525 -157 188.44837 -157 190.091 C -157 191.73364 -158.33175 193.06676 -159.97627 193.06676 L -196.02368 193.06676 L -196.02368 272.04848 L -162.95255 272.04848 L -162.95255 198.10589 C -162.95255 196.46164 -161.6208 195.13013 -159.97627 195.13013 C -158.33175 195.13013 -157 196.46325 -157 198.10589 L -157 275.02424 C -157.00161 276.66687 -158.33336 277.9984 -159.97627 277.9984 Z" fill="#01abff"/>
              </g>
            </g>
            <g id="Group_185">
              <g id="Graphic_186">
                <path d="M -186.98845 235.70264 L -191.49478 235.70264 C -193.1393 235.70264 -194.47106 234.36951 -194.47106 232.72527 C -194.47106 231.08103 -193.1393 229.7495 -191.49478 229.7495 L -186.98845 229.7495 C -185.34392 229.7495 -184.01218 231.08264 -184.01218 232.72527 C -184.01218 234.3679 -185.34554 235.70264 -186.98845 235.70264 Z" fill="#01abff"/>
              </g>
            </g>
            <g id="Group_183">
              <g id="Graphic_184">
                <path d="M -186.98845 227.64262 L -191.49478 227.64262 C -193.1393 227.64262 -194.47106 226.3095 -194.47106 224.66687 C -194.47106 223.02423 -193.1393 221.6911 -191.49478 221.6911 L -186.98845 221.6911 C -185.34392 221.6911 -184.01218 223.02423 -184.01218 224.66687 C -184.01218 226.3095 -185.34554 227.64262 -186.98845 227.64262 Z" fill="#01abff"/>
              </g>
            </g>
            <g id="Group_181">
              <g id="Graphic_182">
                <path d="M -179.48812 277.9984 C -181.13264 277.9984 -182.46439 276.66687 -182.46439 275.02263 L -182.46439 190.091 C -182.46439 188.44676 -181.13264 187.11525 -179.48812 187.11525 C -177.84359 187.11525 -176.51184 188.44837 -176.51184 190.091 L -176.51184 275.02424 C -176.51184 276.66687 -177.84359 277.9984 -179.48812 277.9984 Z" fill="#01abff"/>
              </g>
            </g>
            <g id="Group_179">
              <g id="Graphic_180">
                <path d="M -169.73703 258.23523 C -170.79953 258.23523 -171.833 257.79837 -172.59077 257.04234 C -173.33242 256.30082 -173.76774 255.25302 -173.76774 254.20522 C -173.76774 253.1413 -173.3308 252.0935 -172.59077 251.35036 C -171.09135 249.8512 -168.38271 249.8512 -166.8833 251.35036 C -166.12552 252.0935 -165.70794 253.13968 -165.70794 254.20522 C -165.70794 255.2514 -166.12713 256.30082 -166.8833 257.04234 C -167.63945 257.79837 -168.67292 258.23523 -169.73703 258.23523 Z" fill="#01abff"/>
              </g>
            </g>
            <g id="Group_177">
              <g id="Graphic_178">
                <path d="M -189.24565 258.23523 C -190.29363 258.23523 -191.34162 257.79837 -192.09939 257.04234 C -192.84104 256.30082 -193.27635 255.25302 -193.27635 254.20522 C -193.27635 253.1413 -192.83943 252.0935 -192.09939 251.35036 C -190.58546 249.8512 -187.89294 249.8512 -186.3919 251.35036 C -185.63414 252.0935 -185.21655 253.13968 -185.21655 254.20522 C -185.21655 255.2514 -185.63575 256.30082 -186.3919 257.04234 C -187.14968 257.79837 -188.17993 258.23523 -189.24565 258.23523 Z" fill="#01abff"/>
              </g>
            </g>
            <g id="Group_175">
              <g id="Graphic_176">
                <path d="M -167.47822 235.70264 L -171.98455 235.70264 C -173.62908 235.70264 -174.96083 234.36951 -174.96083 232.72527 C -174.96083 231.08103 -173.62908 229.7495 -171.98455 229.7495 L -167.47822 229.7495 C -165.8337 229.7495 -164.50195 231.08264 -164.50195 232.72527 C -164.50195 234.3679 -165.8337 235.70264 -167.47822 235.70264 Z" fill="#01abff"/>
              </g>
            </g>
            <g id="Group_173">
              <g id="Graphic_174">
                <path d="M -167.47822 227.64262 L -171.98455 227.64262 C -173.62908 227.64262 -174.96083 226.3095 -174.96083 224.66687 C -174.96083 223.02423 -173.62908 221.6911 -171.98455 221.6911 L -167.47822 221.6911 C -165.8337 221.6911 -164.50195 223.02423 -164.50195 224.66687 C -164.50195 226.3095 -165.8337 227.64262 -167.47822 227.64262 Z" fill="#01abff"/>
              </g>
            </g>
          </g>
          <g id="Group_163">
            <g id="Group_170">
              <g id="Graphic_171">
                <path d="M -226.23302 278 C -226.49905 278 -226.7683 277.96454 -227.03594 277.88877 L -245.82548 272.63364 C -246.58647 272.41924 -247.2314 271.9147 -247.61672 271.22636 C -248.00367 270.53804 -248.10363 269.72397 -247.8892 268.96633 L -224.9964 187.17328 C -224.55463 185.5903 -222.9101 184.66984 -221.33007 185.10991 L -198.19704 191.5821 C -196.61378 192.0254 -195.68833 193.66643 -196.13332 195.24942 C -196.57508 196.8324 -198.22284 197.75124 -199.79965 197.31278 L -220.06604 191.64336 L -241.35462 267.70413 L -228.29674 271.35693 L -208.3657 200.1499 C -207.92555 198.56692 -206.27619 197.64485 -204.69938 198.08654 C -203.11611 198.52984 -202.19066 200.17086 -202.63565 201.75385 L -223.368 275.82702 C -223.7356 277.1392 -224.9303 278 -226.23302 278 Z" fill="#01abff"/>
              </g>
            </g>
            <g id="Group_168">
              <g id="Graphic_169">
                <path d="M -230.01866 256.3653 C -231.08276 256.3653 -232.11463 255.94457 -232.8724 255.19015 C -233.61405 254.44702 -234.04936 253.40083 -234.04936 252.3353 C -234.04936 251.26976 -233.61244 250.2397 -232.8724 249.48044 C -231.35847 247.98127 -228.66595 247.9974 -227.16492 249.48044 C -226.42327 250.2397 -225.98956 251.26976 -225.98956 252.3353 C -225.98956 253.40083 -226.42488 254.44702 -227.16492 255.19015 C -227.9227 255.92845 -228.95455 256.3653 -230.01866 256.3653 Z" fill="#01abff"/>
              </g>
            </g>
            <g id="Group_166">
              <g id="Graphic_167">
                <path d="M -222.05398 235.24806 C -222.32 235.24806 -222.58926 235.2126 -222.8569 235.13683 L -227.19555 233.9246 C -228.7788 233.4813 -229.70426 231.83867 -229.26089 230.25568 C -228.8175 228.6727 -227.17298 227.75063 -225.59294 228.19232 L -221.2543 229.40616 C -219.67103 229.84946 -218.74558 231.49048 -219.18896 233.07346 C -219.55656 234.38725 -220.75126 235.24806 -222.05398 235.24806 Z" fill="#01abff"/>
              </g>
            </g>
            <g id="Group_164">
              <g id="Graphic_165">
                <path d="M -219.88063 227.48465 C -220.14665 227.48465 -220.4159 227.44918 -220.68354 227.37342 L -225.0222 226.15958 C -226.60546 225.71628 -227.5309 224.07526 -227.08753 222.49227 C -226.64415 220.90929 -224.9964 219.984 -223.41959 220.4289 L -219.08093 221.64275 C -217.49767 222.08605 -216.57222 223.72707 -217.0156 225.31006 C -217.3832 226.62545 -218.5779 227.48465 -219.88063 227.48465 Z" fill="#01abff"/>
              </g>
            </g>
          </g>
        </g>
      </g>
    </g>
  </g>
</svg>
