<?xml version="1.0" encoding="UTF-8" standalone="no"?>
<!DOCTYPE svg PUBLIC "-//W3C//DTD SVG 1.1//EN" "http://www.w3.org/Graphics/SVG/1.1/DTD/svg11.dtd">
<svg xmlns:dc="http://purl.org/dc/elements/1.1/" xmlns:xl="http://www.w3.org/1999/xlink" version="1.1" xmlns="http://www.w3.org/2000/svg" viewBox="-700.4221 231 65.42211 65.4" width="65.42211" height="65.4">
  <defs/>
  <g id="Canvas_1" fill="none" fill-opacity="1" stroke="none" stroke-dasharray="none" stroke-opacity="1">
    <title>Canvas 1</title>
    <g id="Canvas_1_Layer_1">
      <title>Layer 1</title>
      <g id="Group_490">
        <g id="Graphic_498">
          <path d="M -639.2221 235.2 C -641.8221 232.6 -644.7221 231 -646.9221 231 C -647.7221 231 -648.4221 231.3 -648.9221 231.8 C -649.7221 232.6 -649.9221 234.1 -649.3221 235.8 L -663.6221 250.1 L -689.8221 258.6 C -690.3221 258.8 -690.7221 259.2 -690.9221 259.7 C -692.0221 262.4 -687.8221 268.9 -682.8221 274.4 L -699.7221 291.3 C -699.8221 291.4 -699.9221 291.6 -699.9221 291.7 L -700.4221 295.6 C -700.4221 295.8 -700.4221 296.1 -700.2221 296.2 C -700.1221 296.3 -699.9221 296.4 -699.7221 296.4 L -699.6221 296.4 L -695.7221 295.9 C -695.5221 295.9 -695.4221 295.8 -695.3221 295.7 L -678.4221 278.8 C -673.5221 283.3 -667.8221 287.1 -664.7221 287.1 C -664.3221 287.1 -664.0221 287 -663.7221 286.9 C -663.2221 286.7 -662.8221 286.3 -662.6221 285.7 L -654.2221 259.6 L -639.7221 245.2 C -639.0221 245.4 -638.3221 245.6 -637.8221 245.6 C -637.0221 245.6 -636.3221 245.3 -635.8221 244.8 C -633.9221 243.1 -635.4221 238.9 -639.2221 235.2 Z M -696.1221 294.5 L -698.8221 294.8 L -698.5221 292.1 L -681.8221 275.4 C -681.4221 275.8 -679.9221 277.4 -679.5221 277.7 Z M -664.0221 285.3 C -664.0221 285.4 -664.1221 285.5 -664.2221 285.6 C -665.9221 286.3 -671.8221 282.9 -677.8221 277.4 C -677.8221 277.4 -677.8221 277.3 -677.9221 277.3 L -681.2221 273.8 L -681.3221 273.7 C -686.8221 267.7 -690.2221 261.8 -689.5221 260.1 C -689.5221 260 -689.4221 259.9 -689.3221 259.9 L -664.3221 251.8 C -664.3221 252.3 -664.2221 252.9 -663.9221 253.5 C -663.4221 254.7 -662.5221 256.1 -661.3221 257.3 C -659.6221 259 -657.5221 260.2 -655.9221 260.3 Z M -655.3221 258.7 C -655.5221 258.9 -656.2221 258.9 -657.0221 258.6 C -658.1221 258.2 -659.2221 257.4 -660.3221 256.3 C -661.4221 255.2 -662.2221 254.1 -662.6221 253 C -662.9221 252.2 -663.0221 251.5 -662.7221 251.3 L -648.6221 237.2 C -647.9221 238.6 -646.8221 240.1 -645.4221 241.4 C -644.0221 242.8 -642.6221 243.9 -641.2221 244.6 Z M -636.8221 243.8 C -637.0221 244 -637.3221 244.1 -637.8221 244.1 C -639.2221 244.1 -641.8221 242.9 -644.4221 240.3 C -645.9221 238.8 -647.1221 237.1 -647.7221 235.5 C -648.2221 234.3 -648.2221 233.2 -647.8221 232.8 C -647.6221 232.6 -647.3221 232.5 -646.8221 232.5 C -645.4221 232.5 -642.8221 233.7 -640.2221 236.3 C -637.1221 239.4 -635.8221 242.8 -636.8221 243.8 Z" fill="#01abff"/>
        </g>
        <g id="Graphic_497">
          <path d="M -681.0221 269.6 C -680.7221 270 -680.4221 270.4 -680.0221 270.8 L -678.9221 269.8 C -679.2221 269.4 -679.6221 269 -679.9221 268.7 Z" fill="#01abff"/>
        </g>
        <g id="Graphic_496">
          <path d="M -683.2221 266.6 C -682.9221 267 -682.6221 267.4 -682.3221 267.8 L -681.1221 266.9 C -681.4221 266.5 -681.7221 266.1 -682.0221 265.7 Z" fill="#01abff"/>
        </g>
        <g id="Graphic_495">
          <path d="M -683.8221 262.7 L -685.2221 263.3 C -685.0221 263.7 -684.8221 264.2 -684.5221 264.7 L -683.2221 263.9 C -683.4221 263.5 -683.6221 263.1 -683.8221 262.7 Z" fill="#01abff"/>
        </g>
        <g id="Graphic_494">
          <path d="M -670.0221 279.6 C -669.5221 279.9 -669.1221 280.2 -668.7221 280.4 L -667.9221 279.1 C -668.3221 278.9 -668.7221 278.6 -669.1221 278.3 Z" fill="#01abff"/>
        </g>
        <g id="Graphic_493">
          <path d="M -673.1221 277.4 C -672.7221 277.7 -672.3221 278 -671.9221 278.3 L -671.0221 277.1 C -671.4221 276.8 -671.8221 276.5 -672.2221 276.2 Z" fill="#01abff"/>
        </g>
        <g id="Graphic_492">
          <path d="M -678.5221 272.4 C -678.2221 272.8 -677.8221 273.1 -677.4221 273.5 L -676.3221 272.4 C -676.7221 272 -677.0221 271.7 -677.3221 271.3 Z" fill="#01abff"/>
        </g>
        <g id="Graphic_491">
          <path d="M -675.9221 275 C -675.5221 275.4 -675.1221 275.7 -674.8221 276 L -673.8221 274.9 C -674.2221 274.6 -674.5221 274.3 -674.9221 273.9 Z" fill="#01abff"/>
        </g>
      </g>
    </g>
  </g>
</svg>
