<?xml version="1.0" encoding="UTF-8" standalone="no"?>
<!DOCTYPE svg PUBLIC "-//W3C//DTD SVG 1.1//EN" "http://www.w3.org/Graphics/SVG/1.1/DTD/svg11.dtd">
<svg xmlns:dc="http://purl.org/dc/elements/1.1/" xmlns:xl="http://www.w3.org/1999/xlink" version="1.1" xmlns="http://www.w3.org/2000/svg" viewBox="-417 -162 64.9 64.9" width="64.9" height="64.9">
  <defs/>
  <g id="Canvas_1" fill="none" fill-opacity="1" stroke="none" stroke-dasharray="none" stroke-opacity="1">
    <title>Canvas 1</title>
    <g id="Canvas_1_Layer_1">
      <title>Layer 1</title>
      <g id="Graphic_478">
        <path d="M -355.9 -133.4 L -356.9 -132.4 L -354.8 -130.3 L -361.5 -130.3 C -361.7 -136.1 -364 -141.3 -367.7 -145.3 L -363 -150 L -363 -147 L -361.5 -147 L -361.5 -152.5 L -367 -152.5 L -367 -151 L -364 -151 L -368.8 -146.2 C -372.7 -149.9 -378 -152.2 -383.8 -152.4 L -383.8 -159.1 L -381.7 -157 L -380.7 -158 L -384.5 -162 L -388.4 -158.1 L -387.4 -157.1 L -385.3 -159.2 L -385.3 -152.5 C -391.1 -152.3 -396.3 -150 -400.3 -146.3 L -405 -151 L -402 -151 L -402 -152.5 L -407.5 -152.5 L -407.5 -147 L -406 -147 L -406 -150 L -401.2 -145.2 C -404.9 -141.3 -407.2 -136 -407.4 -130.2 L -414.1 -130.2 L -412 -132.3 L -413 -133.3 L -417 -129.5 L -413.1 -125.6 L -412.1 -126.6 L -414.2 -128.7 L -407.5 -128.7 C -407.3 -122.9 -405 -117.7 -401.3 -113.7 L -406 -109 L -406 -112 L -407.5 -112 L -407.5 -106.5 L -402 -106.5 L -402 -108 L -405 -108 L -400.2 -112.8 C -396.3 -109.1 -391 -106.8 -385.2 -106.6 L -385.2 -99.9 L -387.3 -102 L -388.3 -101 L -384.4 -97.1 L -380.5 -101 L -381.5 -102 L -383.6 -99.9 L -383.6 -106.6 C -377.8 -106.8 -372.6 -109.1 -368.6 -112.8 L -364 -108 L -367 -108 L -367 -106.5 L -361.5 -106.5 L -361.5 -112 L -363 -112 L -363 -109 L -367.8 -113.8 C -364.1 -117.7 -361.8 -123 -361.6 -128.8 L -354.9 -128.8 L -357 -126.7 L -356 -125.7 L -352.1 -129.6 Z M -365.7 -140 L -370.8 -140 C -372.2 -144.1 -374.5 -147.6 -377.2 -149.8 C -372.4 -148 -368.3 -144.5 -365.7 -140 Z M -370.6 -129.5 C -370.6 -126.3 -371.1 -123.2 -371.9 -120.5 L -378 -120.5 C -377.6 -123.4 -377.5 -126.5 -377.5 -129.5 C -377.5 -132.5 -377.7 -135.6 -378 -138.5 L -371.9 -138.5 C -371.1 -135.8 -370.6 -132.7 -370.6 -129.5 Z M -398.4 -129.5 C -398.4 -132.7 -397.9 -135.8 -397.1 -138.5 L -391 -138.5 C -391.4 -135.6 -391.5 -132.5 -391.5 -129.5 C -391.5 -126.5 -391.3 -123.4 -391 -120.5 L -397.1 -120.5 C -397.9 -123.2 -398.4 -126.3 -398.4 -129.5 Z M -379 -129.5 C -379 -126.2 -379.2 -123.2 -379.5 -120.5 L -389.5 -120.5 C -389.8 -123.2 -390 -126.2 -390 -129.5 C -390 -132.8 -389.8 -135.8 -389.5 -138.5 L -379.5 -138.5 C -379.2 -135.8 -379 -132.8 -379 -129.5 Z M -384.5 -108 C -386.3 -108 -388.3 -112.2 -389.3 -119 L -379.7 -119 C -380.7 -112.2 -382.7 -108 -384.5 -108 Z M -389.3 -140 C -388.3 -146.8 -386.3 -151 -384.5 -151 C -382.7 -151 -380.7 -146.8 -379.7 -140 Z M -390.8 -140 L -396.6 -140 C -394.7 -145.3 -391.4 -149.2 -387.5 -150.5 C -389 -148.3 -390.1 -144.4 -390.8 -140 Z M -390.8 -119 C -390.1 -114.5 -389 -110.7 -387.5 -108.5 C -391.4 -109.8 -394.7 -113.7 -396.6 -119 Z M -378.2 -119 L -372.4 -119 C -374.3 -113.7 -377.6 -109.8 -381.5 -108.5 C -380 -110.7 -378.9 -114.6 -378.2 -119 Z M -378.2 -140 C -378.9 -144.5 -380 -148.3 -381.5 -150.5 C -377.6 -149.2 -374.3 -145.3 -372.4 -140 Z M -391.7 -149.7 C -394.4 -147.5 -396.7 -144.1 -398.1 -139.9 L -403.2 -139.9 C -400.8 -144.5 -396.7 -148 -391.7 -149.7 Z M -404 -138.5 L -398.6 -138.5 C -399.4 -135.7 -399.8 -132.7 -399.8 -129.5 C -399.8 -126.3 -399.4 -123.3 -398.6 -120.5 L -404 -120.5 C -405.3 -123.2 -406 -126.3 -406 -129.5 C -406 -132.7 -405.3 -135.7 -404 -138.5 Z M -403.3 -119 L -398.2 -119 C -396.8 -114.9 -394.5 -111.4 -391.8 -109.2 C -396.6 -111 -400.7 -114.5 -403.3 -119 Z M -377.2 -109.3 C -374.5 -111.5 -372.3 -114.9 -370.8 -119.1 L -365.7 -119.1 C -366.7 -117.4 -367.8 -115.8 -369.3 -114.4 C -371.6 -112 -374.3 -110.3 -377.2 -109.3 Z M -365 -120.5 L -370.4 -120.5 C -369.6 -123.3 -369.2 -126.3 -369.2 -129.5 C -369.2 -132.7 -369.6 -135.7 -370.4 -138.5 L -365 -138.5 C -363.7 -135.8 -363 -132.7 -363 -129.5 C -363 -126.4 -363.7 -123.3 -365 -120.5 Z" fill="#01abff"/>
      </g>
    </g>
  </g>
</svg>
