<?xml version="1.0" encoding="UTF-8" standalone="no"?>
<!DOCTYPE svg PUBLIC "-//W3C//DTD SVG 1.1//EN" "http://www.w3.org/Graphics/SVG/1.1/DTD/svg11.dtd">
<svg xmlns:dc="http://purl.org/dc/elements/1.1/" xmlns:xl="http://www.w3.org/1999/xlink" version="1.1" xmlns="http://www.w3.org/2000/svg" viewBox="-59 -101 50.5 65" width="50.5" height="65">
  <defs/>
  <g id="Canvas_1" fill="none" fill-opacity="1" stroke="none" stroke-dasharray="none" stroke-opacity="1">
    <title>Canvas 1</title>
    <g id="Canvas_1_Layer_1">
      <title>Layer 1</title>
      <g id="Group_304">
        <g id="Graphic_308">
          <path d="M -33.9 -91.9 C -31.4 -91.9 -29.4 -93.9 -29.4 -96.4 C -29.4 -98.9 -31.4 -101 -33.9 -101 C -36.4 -101 -38.4 -99 -38.4 -96.5 C -38.4 -94 -36.4 -91.9 -33.9 -91.9 Z M -33.9 -99.5 C -32.2 -99.5 -30.9 -98.1 -30.9 -96.5 C -30.9 -94.8 -32.3 -93.5 -33.9 -93.5 C -35.6 -93.5 -36.9 -94.9 -36.9 -96.5 C -37 -98.1 -35.6 -99.5 -33.9 -99.5 Z" fill="#01abff"/>
        </g>
        <g id="Graphic_307">
          <path d="M -23.9 -80.8 C -24 -83.6 -24.3 -86.5 -24.3 -86.5 C -24.3 -87.3 -24.5 -88.1 -25 -88.9 C -25.5 -89.7 -26.2 -90.4 -27.2 -90.7 L -30.6 -91.9 L -33.5 -86.6 L -34.1 -86.6 L -37 -91.9 L -40.4 -90.7 C -41.3 -90.4 -42.1 -89.7 -42.6 -88.9 C -43.1 -88.1 -43.3 -87.3 -43.3 -86.6 C -43.3 -86.6 -43.6 -83.7 -43.7 -80.9 L -43.7 -80.1 L -23.9 -80.1 Z M -27.3 -81.5 L -27.5 -84.4 L -29 -84.3 L -28.8 -81.5 L -38.7 -81.5 L -38.5 -84.3 L -40 -84.4 L -40.3 -81.5 L -42.2 -81.5 C -42.1 -84 -41.8 -86.4 -41.8 -86.5 C -41.8 -87.2 -41.5 -87.8 -41.3 -88.2 C -41 -88.7 -40.5 -89.1 -39.9 -89.3 L -37.7 -90.1 L -35 -85.1 L -32.6 -85.1 L -29.9 -90.1 L -27.7 -89.3 C -27.1 -89.1 -26.6 -88.7 -26.3 -88.2 C -26.1 -87.8 -25.8 -87.2 -25.8 -86.5 C -25.8 -86.5 -25.5 -84.1 -25.4 -81.6 L -27.3 -81.6 Z" fill="#01abff"/>
        </g>
        <g id="Graphic_306">
          <path d="M -11.5 -43.3 L -11.5 -51.3 L -21 -51.3 L -21 -56.2 L -22.5 -56.2 L -22.5 -51.3 L -45.2 -51.3 L -45.2 -56.2 L -46.7 -56.2 L -46.7 -51.3 L -56.2 -51.3 L -56.2 -43.3 L -59 -43.3 L -59 -36 L -51.7 -36 L -51.7 -43.3 L -54.6 -43.3 L -54.6 -49.8 L -34.5 -49.8 L -34.5 -43.3 L -37.4 -43.3 L -37.4 -36 L -30.1 -36 L -30.1 -43.3 L -33 -43.3 L -33 -49.8 L -12.9 -49.8 L -12.9 -43.3 L -15.8 -43.3 L -15.8 -36 L -8.5 -36 L -8.5 -43.3 Z M -53.2 -37.5 L -57.5 -37.5 L -57.5 -41.8 L -53.2 -41.8 Z M -31.6 -37.5 L -35.9 -37.5 L -35.9 -41.8 L -31.6 -41.8 Z M -10.1 -37.5 L -14.4 -37.5 L -14.4 -41.8 L -10.1 -41.8 Z" fill="#01abff"/>
        </g>
        <g id="Graphic_305">
          <path d="M -42.3 -65.4 L -45.2 -65.4 L -45.2 -71.9 L -22.5 -71.9 L -22.5 -65.4 L -25.3 -65.4 L -25.3 -58.1 L -18 -58.1 L -18 -65.4 L -20.9 -65.4 L -20.9 -73.4 L -33.1 -73.4 L -33.1 -78.1 L -34.6 -78.1 L -34.6 -73.4 L -46.7 -73.4 L -46.7 -65.4 L -49.6 -65.4 L -49.6 -58.1 L -42.3 -58.1 Z M -19.5 -59.6 L -23.8 -59.6 L -23.8 -63.9 L -19.5 -63.9 Z M -43.8 -59.6 L -48.1 -59.6 L -48.1 -63.9 L -43.8 -63.9 Z" fill="#01abff"/>
        </g>
      </g>
    </g>
  </g>
</svg>
