<?xml version="1.0" encoding="UTF-8" standalone="no"?>
<!DOCTYPE svg PUBLIC "-//W3C//DTD SVG 1.1//EN" "http://www.w3.org/Graphics/SVG/1.1/DTD/svg11.dtd">
<svg xmlns:dc="http://purl.org/dc/elements/1.1/" xmlns:xl="http://www.w3.org/1999/xlink" version="1.1" xmlns="http://www.w3.org/2000/svg" viewBox="-235 89 65 53.2" width="65" height="53.2">
  <defs/>
  <g id="Canvas_1" fill="none" fill-opacity="1" stroke="none" stroke-dasharray="none" stroke-opacity="1">
    <title>Canvas 1</title>
    <g id="Canvas_1_Layer_1">
      <title>Layer 1</title>
      <g id="Graphic_190">
        <path d="M -179.2 140.6 C -179.3 138.7 -179.8 134.1 -183.2 131.1 C -184 130.4 -184.8 129.8 -185.6 129.4 C -186.8 128.8 -188.1 128.4 -189.6 128.3 C -190.4 128.2 -191.2 128.2 -191.9 128.3 C -193 128.4 -194.1 128.4 -195.1 128.5 C -195.4 127.5 -196.1 124.8 -195 121.6 C -194.2 121.7 -193.4 121.8 -192.7 121.8 C -190 121.8 -188.1 121 -188 121 L -187.85 120.95 C -187.75613 120.91871 -187.68375 120.84311 -187.65656 120.74797 L -186.7 117.4 L -186.7 117.3 C -186.7 117.3 -186.6 116.4 -186.5 115 L -186.4 115 C -184.4 115 -182.7 113.4 -182.7 111.3 L -182.7 108.1 C -182.7 106.4 -183.8 105.1 -185.3 104.6 C -185.8 95.9 -193 89 -201.7 89 L -203.2 89 C -212 89 -219.2 95.9 -219.7 104.6 C -221.1 105.1 -222.1 106.5 -222.1 108 L -222.1 111.2 C -222.1 113.2 -220.5 114.9 -218.4 114.9 L -218 114.9 C -217.6 118.1 -216.9 120.4 -216.8 120.5 L -216.7 120.7 L -216.5 120.8 C -215.3 121.7 -213.5 122 -211.8 122 C -211.1 122 -210.4 121.9 -209.7 121.9 C -208.7 125.1 -209.3 127.6 -209.7 128.5 C -210.7 128.5 -211.8 128.4 -212.8 128.3 C -217.7 127.9 -221.6 130.3 -224 135.2 C -225 137.1 -225.5 138.9 -225.6 140.7 L -234.25 140.7 C -234.6642 140.7 -235 141.03579 -235 141.45 L -235 141.45 C -235 141.86421 -234.6642 142.2 -234.25 142.2 L -170.75 142.2 C -170.33579 142.2 -170 141.86421 -170 141.45 L -170 141.45 C -170 141.03579 -170.33579 140.7 -170.75 140.7 L -179.2 140.7 Z M -189.1 119.6 C -190.1 119.9 -192.9 120.6 -196.1 119.7 C -195.3 118.9 -194.6 118 -194.1 117.1 L -189.61244 117.1 C -189.08334 117.1 -188.65442 117.52892 -188.65442 118.05802 C -188.65442 118.15712 -188.6698 118.25562 -188.7 118.35 Z M -208.3 121.6 C -207.8 121.5 -207.4 121.4 -207.2 121.4 C -205.5 122.7 -203.8 123 -202.6 123 C -201.7 123 -201.1 122.8 -201 122.8 C -199.6 122.3 -198.5 121.7 -197.5 121 C -197.2 121.1 -196.9 121.2 -196.7 121.3 C -198.1 125.8 -196.7 129.3 -196.5 129.6 C -197.5 131.6 -198.3 132.4 -199.2 133.5 C -199.4 133.7 -199.6 133.9 -199.8 134.2 C -200.5 135 -201.6 135.5 -202.7 135.5 C -203.8 135.5 -204.9 135 -205.6 134.1 C -206.7 132.8 -207.7 131.3 -208.6 129.5 C -208.3 129 -207 125.8 -208.3 121.6 Z M -201.4 121.3 C -201.4 121.3 -201.8 121.4 -202.5 121.4 C -204.8 121.4 -209 120.1 -211.4 111.1 L -211.4 110.95 C -211.4 110.86042 -211.45732 110.78089 -211.5423 110.75257 L -211.7 110.7 C -211.7 110.7 -212.8 109.9 -212.5 105.8 C -212.5 105.6 -212.3 105.2 -211.8 105.2 C -211.6 105.2 -211.2 105.3 -210.7 105.6 L -210.6 105.7 C -210.6 105.7 -209.8 106 -208.5 106 C -206.6 106 -203.1 105.4 -199.8 101.5 C -199.2 104.1 -197.5 109.1 -193.6 111.8 C -193.7 112.5 -194.1 114.1 -195 115.7 L -197.35 115.7 C -197.81944 115.7 -198.2 115.31944 -198.2 114.85 L -198.2 114.85 C -198.2 114.38056 -198.58056 114 -199.05 114 L -203.1 114 C -204.42548 114 -205.5 115.07452 -205.5 116.4 L -205.5 116.4 C -205.5 117.72548 -204.42548 118.8 -203.1 118.8 L -199 118.8 C -198.55817 118.8 -198.2 118.44183 -198.2 118 L -198.2 118 C -198.2 117.55817 -197.84183 117.2 -197.4 117.2 L -195.9 117.2 C -197.1 118.8 -198.9 120.5 -201.4 121.3 Z M -199.7 116.35 L -199.7 116.35 C -199.7 116.81944 -200.08056 117.2 -200.55 117.2 L -203.15 117.2 C -203.61944 117.2 -204 116.81944 -204 116.35 L -204 116.35 C -204 115.88056 -203.61944 115.5 -203.15 115.5 L -200.55 115.5 C -200.08056 115.5 -199.7 115.88056 -199.7 116.35 C -199.7 116.35 -199.7 116.35 -199.7 116.35 Z M -184.3 107.9 L -184.3 111.1 C -184.3 112.3 -185.3 113.2 -186.4 113.2 L -186.9 113.2 C -187.17614 113.2 -187.4 112.97614 -187.4 112.7 L -187.4 106.2 C -187.4 105.92386 -187.17614 105.7 -186.9 105.7 L -186.4 105.7 C -185.3 105.8 -184.3 106.7 -184.3 107.9 Z M -218.1 113.3 L -218.6 113.3 C -219.8 113.3 -220.7 112.3 -220.7 111.2 L -220.7 108 C -220.7 106.8 -219.7 105.9 -218.6 105.9 L -218.1 105.9 C -217.82386 105.9 -217.6 106.12386 -217.6 106.4 L -217.6 112.8 C -217.6 113.07614 -217.82386 113.3 -218.1 113.3 Z M -217.4 104.2 L -218.3 104.2 C -217.7 96.5 -211.3 90.3 -203.4 90.3 L -201.9 90.3 C -194 90.3 -187.6 96.4 -187 104.2 L -187.7 104.2 C -189.1 99.4 -191.7 96.1 -195.3 94.3 C -206.2 89.1 -213.2 97 -213.3 97 C -215.2 99.1 -216.6 101.5 -217.4 104.2 Z M -215.5 119.7 C -215.7 119.1 -216.2 117.2 -216.5 114.8 L -216.25 114.8 C -216.11193 114.8 -216 114.68807 -216 114.55 L -216 105 C -215.3 102.3 -214 100 -212.2 98.1 C -212.1 98 -205.9 91 -196 95.7 C -192.5 97.3 -190.2 100.6 -189 105.3 L -189 114.4 C -189 114.62091 -188.82091 114.8 -188.6 114.8 L -188.2 114.8 C -188.2 115.1 -188.2 115.4 -188.2 115.6 L -193.4 115.6 C -192.4 113.4 -192.2 111.5 -192.1 111.4 L -192.04903 111.14515 C -192.01907 110.99535 -192.0778 110.84166 -192.2 110.75 L -192.4 110.6 C -197.5 107.4 -198.7 99.5 -198.7 99.4 L -198.85599 98.36008 C -198.88735 98.15101 -199.08226 98.00694 -199.29134 98.0383 C -199.39624 98.05404 -199.4899 98.11259 -199.55 98.2 L -200.1 99 C -203.1 103.3 -206.4 104.2 -208.6 104.2 C -209.4 104.2 -210 104.1 -210.2 104 C -210.9 103.7 -211.5 103.5 -212 103.5 C -213.5 103.5 -214.1 104.7 -214.2 105.4 C -214.5 109.6 -213.5 111.1 -212.9 111.6 C -211.7 115.7 -210.2 118.3 -208.6 119.9 C -210.7 120.5 -213.9 120.7 -215.5 119.7 Z M -224.2 140.6 C -224.1 139.1 -223.6 137.5 -222.8 135.8 C -221.4 133 -218.8 129.8 -213.9 129.8 C -213.6 129.8 -213.3 129.8 -213 129.8 C -212 129.9 -211 129.9 -210 130 C -209 132 -207.9 133.7 -206.7 135.1 C -205.7 136.3 -204.2 137 -202.6 137 C -201 137 -199.6 136.3 -198.5 135.1 C -198.3 134.9 -198.1 134.6 -197.9 134.4 C -196.9 133.2 -196.1 132.3 -194.9 130 C -193.9 130 -192.8 129.9 -191.8 129.8 C -191.1 129.7 -190.4 129.7 -189.7 129.8 C -188.5 129.9 -187.3 130.2 -186.3 130.7 C -185.6 131 -184.9 131.5 -184.2 132.2 C -181.4 134.8 -180.8 138.9 -180.7 140.6 L -224.2 140.6 Z" fill="#01abff"/>
      </g>
    </g>
  </g>
</svg>
