<?xml version="1.0" encoding="UTF-8" standalone="no"?>
<!DOCTYPE svg PUBLIC "-//W3C//DTD SVG 1.1//EN" "http://www.w3.org/Graphics/SVG/1.1/DTD/svg11.dtd">
<svg xmlns:dc="http://purl.org/dc/elements/1.1/" xmlns:xl="http://www.w3.org/1999/xlink" version="1.1" xmlns="http://www.w3.org/2000/svg" viewBox="-1 -1 59 65" width="59" height="65">
  <defs/>
  <g id="Canvas_1" fill="none" fill-opacity="1" stroke="none" stroke-dasharray="none" stroke-opacity="1">
    <title>Canvas 1</title>
    <g id="Canvas_1_Layer_1">
      <title>Layer 1</title>
      <g id="Group_479">
        <g id="Graphic_483">
          <path d="M 26.1 49 L 33.7 49 L 35.2 49 L 44.3 49 L 44.3 42.2 L 44.3 40.7 L 44.3 35.4 L 44.3 33.9 L 44.3 28.6 L 44.3 27 L 44.3 20.2 L 35.2 20.2 L 33.7 20.2 L 26.1 20.2 L 24.6 20.2 L 4.8 20.2 L 4.8 27 L 4.8 28.5 L 4.8 33.8 L 4.8 35.3 L 4.8 40.6 L 4.8 42.1 L 4.8 49 L 24.6 49 Z M 33.7 47.5 L 26.1 47.5 L 26.1 42.2 L 33.7 42.2 Z M 26.1 35.3 L 33.7 35.3 L 33.7 40.6 L 26.1 40.6 Z M 26.1 28.5 L 33.7 28.5 L 33.7 33.8 L 26.1 33.8 Z M 42.8 47.5 L 35.2 47.5 L 35.2 42.2 L 42.8 42.2 Z M 42.8 40.7 L 35.2 40.7 L 35.2 35.4 L 42.8 35.4 Z M 42.8 33.8 L 35.2 33.8 L 35.2 28.5 L 42.8 28.5 Z M 35.2 21.6 L 42.8 21.6 L 42.8 27 L 35.2 27 Z M 26.1 21.6 L 33.7 21.6 L 33.7 27 L 26.1 27 Z M 6.3 21.6 L 24.6 21.6 L 24.6 27 L 6.3 27 Z M 6.3 28.5 L 24.6 28.5 L 24.6 33.8 L 6.3 33.8 Z M 6.3 35.3 L 24.6 35.3 L 24.6 40.6 L 6.3 40.6 Z M 6.3 47.5 L 6.3 42.2 L 24.6 42.2 L 24.6 47.5 Z" fill="#01abff"/>
        </g>
        <g id="Graphic_482">
          <path d="M 57.9 55 L 57.9 54.3 L 49.5 54.3 L 49.5 -1 L -1 -1 L -1 56.7 C -1 60.7 2.3 64 6.3 64 C 6.3 64 6.3 64 6.4 64 L 7.2 64 L 48.8 64 L 51.7 64 C 55.3 64 58 61.1 58 57.3 C 58 56.6 57.9 55 57.9 55 Z M 6.3 62.5 C 3.1 62.5 .5 59.9 .5 56.7 L .5 .5 L 48 .5 L 48 54.3 L 12.9 54.3 L 11.8 54.5 L 12 55.3 C 12.1 55.7 12.2 56.4 12.2 56.8 C 12.1 59.9 9.5 62.5 6.3 62.5 Z M 51.7 62.5 L 10.7 62.5 C 12.5 61.2 13.6 59.1 13.6 56.7 C 13.6 56.4 13.6 56.1 13.5 55.7 L 56.4 55.7 C 56.4 56.2 56.4 56.9 56.4 57.3 C 56.5 60.3 54.5 62.5 51.7 62.5 Z" fill="#01abff"/>
        </g>
        <g id="Graphic_481">
          <rect x="4.9" y="6.4" width="39.3" height="1.5" fill="#01abff"/>
        </g>
        <g id="Graphic_480">
          <rect x="4.9" y="11.3" width="25.5" height="1.5" fill="#01abff"/>
        </g>
      </g>
    </g>
  </g>
</svg>
