<?xml version="1.0" encoding="UTF-8" standalone="no"?>
<!DOCTYPE svg PUBLIC "-//W3C//DTD SVG 1.1//EN" "http://www.w3.org/Graphics/SVG/1.1/DTD/svg11.dtd">
<svg xmlns:dc="http://purl.org/dc/elements/1.1/" xmlns:xl="http://www.w3.org/1999/xlink" version="1.1" xmlns="http://www.w3.org/2000/svg" viewBox="-793.1 367.5 65.1 49.9" width="65.1" height="49.9">
  <defs/>
  <g id="Canvas_1" fill="none" fill-opacity="1" stroke="none" stroke-dasharray="none" stroke-opacity="1">
    <title>Canvas 1</title>
    <g id="Canvas_1_Layer_1">
      <title>Layer 1</title>
      <g id="Group_685">
        <g id="Graphic_689">
          <path d="M -729.8 397.3 L -732.1 397.3 L -732.1 370.7 C -732.1 368.9 -733.5 367.5 -735.3 367.5 C -737.1 367.5 -738.5 368.9 -738.5 370.7 L -738.5 397.3 L -740.8 397.3 C -741.8 397.3 -742.6 398.1 -742.6 399.1 L -742.6 401.7 C -742.6 402.7 -741.8 403.5 -740.8 403.5 L -738.5 403.5 L -738.5 414.2 C -738.5 415.9 -737.1 417.4 -735.3 417.4 C -733.6 417.4 -732.1 416 -732.1 414.2 L -732.1 403.6 L -729.8 403.6 C -728.8 403.6 -728 402.8 -728 401.8 L -728 399.2 C -728 398.1 -728.9 397.3 -729.8 397.3 Z M -737 370.7 C -737 369.8 -736.2 369 -735.3 369 C -734.4 369 -733.6 369.8 -733.6 370.7 L -733.6 397.3 L -737 397.3 L -737 370.7 Z M -733.6 414.3 C -733.6 415.2 -734.4 416 -735.3 416 C -736.2 416 -737 415.2 -737 414.3 L -737 403.6 L -733.6 403.6 L -733.6 414.3 Z M -729.5 401.8 C -729.5 402 -729.6 402.1 -729.8 402.1 L -740.8 402.1 C -741 402.1 -741.1 402 -741.1 401.8 L -741.1 399.2 C -741.1 399 -741 398.9 -740.8 398.9 L -729.9 398.9 C -729.7 398.9 -729.6 399 -729.6 399.2 L -729.6 401.8 Z" fill="#01abff"/>
        </g>
        <g id="Graphic_688">
          <path d="M -746.7 383.6 L -749 383.6 L -749 370.7 C -749 368.9 -750.4 367.5 -752.2 367.5 C -753.9 367.6 -755.3 369 -755.3 370.7 L -755.3 383.6 L -757.6 383.6 C -758.6 383.6 -759.4 384.4 -759.4 385.4 L -759.4 388 C -759.4 389 -758.6 389.8 -757.6 389.8 L -755.3 389.8 L -755.3 414.2 C -755.3 415.9 -753.9 417.4 -752.1 417.4 C -750.4 417.4 -748.9 416 -748.9 414.2 L -748.9 389.8 L -746.6 389.8 C -745.6 389.8 -744.8 389 -744.8 388 L -744.8 385.4 C -744.9 384.4 -745.7 383.6 -746.7 383.6 Z M -753.8 370.7 C -753.8 369.8 -753 369 -752.1 369 C -751.2 369 -750.4 369.8 -750.4 370.7 L -750.4 383.6 L -753.8 383.6 L -753.8 370.7 Z M -750.4 414.3 C -750.4 415.2 -751.2 416 -752.1 416 C -753 416 -753.8 415.2 -753.8 414.3 L -753.8 389.8 L -750.4 389.8 L -750.4 414.3 Z M -746.4 388 C -746.4 388.2 -746.5 388.3 -746.7 388.3 L -757.6 388.3 C -757.8 388.3 -757.9 388.2 -757.9 388 L -757.9 385.4 C -757.9 385.2 -757.8 385.1 -757.6 385.1 L -746.7 385.1 C -746.5 385.1 -746.4 385.2 -746.4 385.4 L -746.4 388 Z" fill="#01abff"/>
        </g>
        <g id="Graphic_687">
          <path d="M -763.5 391.3 L -765.8 391.3 L -765.8 370.7 C -765.8 368.9 -767.2 367.5 -769 367.5 C -770.8 367.5 -772.2 368.9 -772.2 370.7 L -772.2 391.3 L -774.5 391.3 C -775.5 391.3 -776.3 392.1 -776.3 393.1 L -776.3 395.7 C -776.3 396.7 -775.5 397.5 -774.5 397.5 L -772.2 397.5 L -772.2 414.2 C -772.2 415.9 -770.8 417.4 -769 417.4 C -767.3 417.4 -765.8 416 -765.8 414.2 L -765.8 397.5 L -763.5 397.5 C -762.5 397.5 -761.7 396.7 -761.7 395.7 L -761.7 393.1 C -761.7 392.1 -762.5 391.3 -763.5 391.3 Z M -770.6 370.7 C -770.6 369.8 -769.8 369 -768.9 369 C -768 369 -767.3 369.8 -767.3 370.7 L -767.3 391.3 L -770.7 391.3 L -770.7 370.7 Z M -767.3 414.3 C -767.3 415.2 -768.1 416 -769 416 C -769.9 416 -770.7 415.2 -770.7 414.3 L -770.7 397.5 L -767.3 397.5 Z M -763.2 395.7 C -763.2 395.9 -763.3 396 -763.5 396 L -774.4 396 C -774.6 396 -774.7 395.9 -774.7 395.7 L -774.7 393.1 C -774.7 392.9 -774.6 392.8 -774.4 392.8 L -763.5 392.8 C -763.3 392.8 -763.2 392.9 -763.2 393.1 L -763.2 395.7 Z" fill="#01abff"/>
        </g>
        <g id="Graphic_686">
          <path d="M -780.3 377.3 L -782.6 377.3 L -782.6 370.7 C -782.6 368.9 -784 367.5 -785.8 367.5 C -787.6 367.5 -789 368.9 -789 370.7 L -789 377.3 L -791.3 377.3 C -792.3 377.3 -793.1 378.1 -793.1 379.1 L -793.1 381.7 C -793.1 382.7 -792.3 383.5 -791.3 383.5 L -789 383.5 L -789 414.2 C -789 415.9 -787.6 417.4 -785.8 417.4 C -784.1 417.4 -782.6 416 -782.6 414.2 L -782.6 383.5 L -780.3 383.5 C -779.3 383.5 -778.5 382.7 -778.5 381.7 L -778.5 379.1 C -778.5 378.1 -779.3 377.3 -780.3 377.3 Z M -787.5 370.7 C -787.5 369.8 -786.7 369 -785.8 369 C -784.9 369 -784.1 369.8 -784.1 370.7 L -784.1 377.3 L -787.5 377.3 Z M -784.1 414.3 C -784.1 415.2 -784.9 416 -785.8 416 C -786.7 416 -787.5 415.2 -787.5 414.3 L -787.5 383.5 L -784.1 383.5 Z M -780 381.7 C -780 381.9 -780.1 382 -780.3 382 L -791.3 382 C -791.5 382 -791.6 381.9 -791.6 381.7 L -791.6 379.1 C -791.6 378.9 -791.5 378.8 -791.3 378.8 L -780.3 378.8 C -780.1 378.8 -780 378.9 -780 379.1 Z" fill="#01abff"/>
        </g>
      </g>
    </g>
  </g>
</svg>
