<?xml version="1.0" encoding="UTF-8" standalone="no"?>
<!DOCTYPE svg PUBLIC "-//W3C//DTD SVG 1.1//EN" "http://www.w3.org/Graphics/SVG/1.1/DTD/svg11.dtd">
<svg xmlns:dc="http://purl.org/dc/elements/1.1/" xmlns:xl="http://www.w3.org/1999/xlink" version="1.1" xmlns="http://www.w3.org/2000/svg" viewBox="-360.4 189.4 64.4 65.6" width="64.4" height="65.6">
  <defs/>
  <g id="Canvas_1" fill="none" fill-opacity="1" stroke="none" stroke-dasharray="none" stroke-opacity="1">
    <title>Canvas 1</title>
    <g id="Canvas_1_Layer_1">
      <title>Layer 1</title>
      <g id="Group_570">
        <g id="Graphic_574">
          <path d="M -326.2 247.1 L -311.1 247.1 L -311.1 236.9 L -326.2 236.9 Z M -324.7 238.4 L -312.6 238.4 L -312.6 245.6 L -324.7 245.6 Z" fill="#01abff"/>
        </g>
        <g id="Graphic_573">
          <rect x="-338.1" y="243" width="1.5" height="1.6" fill="black"/>
        </g>
        <g id="Graphic_572">
          <path d="M -296 205.5 C -296 196.6 -303.2 189.4 -312.1 189.4 C -321 189.4 -328.2 196.6 -328.2 205.5 C -328.2 206.1 -328.1 206.7 -328.1 207.4 L -353.2 207.4 L -360.2 218.4 L -360.4 218.8 C -360.4 222.3 -357.7 225.2 -354.3 225.6 L -354.3 255 L -304.2 255 L -304.2 224 C -300.2 218.5 -296 211.3 -296 205.5 C -296 205.6 -296 205.6 -296 205.5 Z M -312.1 191 C -304 191 -297.5 197.6 -297.5 205.6 C -297.5 214.7 -309.4 228.2 -312.1 231.2 C -314.8 228.2 -326.7 214.7 -326.7 205.6 C -326.7 197.5 -320.2 191 -312.1 191 Z M -346.4 218 L -342.9 208.9 L -334.9 208.9 L -336.1 218 L -346.4 218 Z M -336.2 219.5 C -336.6 222.1 -338.8 224.1 -341.4 224.1 C -344.1 224.1 -346.3 222.1 -346.6 219.5 L -336.2 219.5 Z M -323.9 218 L -334.5 218 L -333.3 208.9 L -327.8 208.9 C -327.1 211.9 -325.7 215 -323.9 218 Z M -324.1 219.5 C -324.5 222.1 -326.7 224.1 -329.3 224.1 C -332 224.1 -334.2 222.1 -334.5 219.5 L -324.1 219.5 Z M -352.4 208.9 L -344.5 208.9 L -348 218 L -358.2 218 Z M -358.8 219.5 L -348.3 219.5 C -348.7 222.1 -350.9 224.1 -353.5 224.1 C -356.3 224.1 -358.5 222.1 -358.8 219.5 Z M -347.5 253.5 L -347.5 233.7 L -335.4 233.7 L -335.4 253.5 L -347.5 253.5 Z M -305.8 253.5 L -333.9 253.5 L -333.9 232.2 L -349 232.2 L -349 253.5 L -352.8 253.5 L -352.8 225.6 C -350.5 225.3 -348.5 223.9 -347.5 221.9 C -346.4 224.1 -344.1 225.6 -341.4 225.6 C -338.7 225.6 -336.5 224.1 -335.3 221.9 C -334.2 224.1 -331.9 225.6 -329.2 225.6 C -325.9 225.6 -323.1 223.2 -322.5 220.1 C -318.2 226.8 -312.9 232.4 -312.5 232.8 L -312 233.4 L -311.5 232.8 C -311.2 232.5 -308.7 229.8 -305.7 226 L -305.7 253.5 Z M -297.5 205.6 L -297.1 205.6 L -296.7 205.6 Z" fill="#01abff"/>
        </g>
        <g id="Graphic_571">
          <path d="M -303.4 205.6 C -303.4 200.8 -307.3 196.9 -312.1 196.9 C -316.9 196.9 -320.8 200.8 -320.8 205.6 C -320.8 210.4 -316.9 214.3 -312.1 214.3 C -307.3 214.3 -303.4 210.4 -303.4 205.6 Z M -319.3 205.6 C -319.3 201.6 -316.1 198.4 -312.1 198.4 C -308.1 198.4 -304.9 201.6 -304.9 205.6 C -304.9 209.6 -308.1 212.8 -312.1 212.8 C -316.1 212.8 -319.3 209.6 -319.3 205.6 Z" fill="#01abff"/>
        </g>
      </g>
    </g>
  </g>
</svg>
