<?xml version="1.0" encoding="UTF-8" standalone="no"?>
<!DOCTYPE svg PUBLIC "-//W3C//DTD SVG 1.1//EN" "http://www.w3.org/Graphics/SVG/1.1/DTD/svg11.dtd">
<svg xmlns:dc="http://purl.org/dc/elements/1.1/" xmlns:xl="http://www.w3.org/1999/xlink" version="1.1" xmlns="http://www.w3.org/2000/svg" viewBox="-641.3414 584 58.34142 64.90405" width="58.34142" height="64.90405">
  <defs/>
  <g id="Canvas_1" fill="none" fill-opacity="1" stroke="none" stroke-dasharray="none" stroke-opacity="1">
    <title>Canvas 1</title>
    <g id="Canvas_1_Layer_1">
      <title>Layer 1</title>
      <g id="Group_666">
        <g id="Graphic_675">
          <rect x="-615.4414" y="599.80405" width="1.5" height="2.5" fill="#01abff"/>
        </g>
        <g id="Graphic_674">
          <path d="M -630.1389 605.8431 L -628.3712 607.6108 L -629.4318 608.6715 L -631.1996 606.9037 Z" fill="#01abff"/>
        </g>
        <g id="Graphic_673">
          <rect x="-637.2414" y="621.60405" width="2.5" height="1.5" fill="#01abff"/>
        </g>
        <g id="Graphic_672">
          <path d="M -630.1152 638.797 L -631.17585 637.73636 L -629.4081 635.9686 L -628.34745 637.02926 Z" fill="#01abff"/>
        </g>
        <g id="Graphic_671">
          <rect x="-615.4414" y="642.40405" width="1.5" height="2.5" fill="#01abff"/>
        </g>
        <g id="Graphic_670">
          <path d="M -599.9901 636.0639 L -598.2224 637.83166 L -599.283 638.8923 L -601.0508 637.12456 Z" fill="#01abff"/>
        </g>
        <g id="Graphic_669">
          <rect x="-594.6414" y="621.60405" width="2.5" height="1.5" fill="#01abff"/>
        </g>
        <g id="Graphic_668">
          <path d="M -613.9414 619.10405 L -613.9414 604.90405 L -615.4414 604.90405 L -615.4414 619.10405 C -616.6414 619.40405 -617.6414 620.40405 -617.9414 621.60405 L -629.4414 621.60405 L -629.4414 623.10405 L -617.9414 623.10405 C -617.6414 624.60405 -616.2414 625.70405 -614.7414 625.70405 C -613.8414 625.70405 -613.0414 625.30405 -612.4414 624.70405 C -611.8414 624.10405 -611.4414 623.20405 -611.4414 622.30405 C -611.4414 620.80405 -612.5414 619.40405 -613.9414 619.10405 Z M -613.4414 623.60405 C -613.7414 623.90405 -614.2414 624.10405 -614.7414 624.10405 C -615.7414 624.10405 -616.5414 623.30405 -616.5414 622.30405 C -616.5414 621.30405 -615.7414 620.50405 -614.7414 620.50405 C -613.7414 620.50405 -612.9414 621.30405 -612.9414 622.30405 C -612.8414 622.80405 -613.0414 623.30405 -613.4414 623.60405 Z" fill="#01abff"/>
        </g>
        <g id="Graphic_667">
          <path d="M -583.0414 602.60405 C -583.1414 602.30405 -583.4414 602.10405 -583.7414 602.10405 L -593.4414 601.70405 L -585.5414 585.00405 C -585.3414 584.70405 -585.5414 584.30405 -585.8414 584.10405 C -586.1414 583.90405 -586.5414 584.00405 -586.8414 584.30405 L -599.8414 600.40405 C -604.2414 597.40405 -609.4414 595.80405 -614.7414 595.80405 C -629.3414 595.80405 -641.3414 607.70405 -641.3414 622.40405 C -641.2414 637.00405 -629.3414 648.90405 -614.7414 648.90405 C -600.1414 648.90405 -588.1414 637.00405 -588.1414 622.30405 C -588.1414 618.40405 -588.9414 614.70405 -590.5414 611.20405 L -583.1414 603.30405 C -583.0414 603.20405 -582.9414 602.80405 -583.0414 602.60405 Z M -589.6414 622.30405 C -589.6414 636.10405 -600.8414 647.40405 -614.7414 647.40405 C -628.6414 647.40405 -639.8414 636.20405 -639.8414 622.30405 C -639.8414 608.50405 -628.5414 597.20405 -614.7414 597.20405 C -609.7414 597.20405 -604.9414 598.70405 -600.7414 601.50405 L -606.1414 608.20405 C -606.3414 608.40405 -606.3414 608.80405 -606.2414 609.00405 C -606.1414 609.30405 -605.8414 609.40405 -605.5414 609.40405 L -597.4414 608.60405 L -605.3414 624.70405 C -605.5414 625.00405 -605.4414 625.40405 -605.1414 625.60405 C -605.0414 625.70405 -604.8414 625.70405 -604.7414 625.70405 C -604.5414 625.70405 -604.3414 625.60405 -604.2414 625.50405 L -591.6414 612.40405 C -590.3414 615.50405 -589.6414 618.90405 -589.6414 622.30405 Z M -601.7414 621.00405 L -595.4414 608.20405 C -595.3414 608.00405 -595.3414 607.70405 -595.5414 607.40405 C -595.6414 607.20405 -595.9414 607.10405 -596.1414 607.10405 C -596.1414 607.10405 -596.1414 607.10405 -596.2414 607.10405 L -603.9414 607.80405 L -589.5414 590.00405 L -595.2414 602.10405 C -595.3414 602.30405 -595.3414 602.60405 -595.2414 602.80405 C -595.1414 603.00405 -594.8414 603.10405 -594.6414 603.20405 L -585.4414 603.60405 Z" fill="#01abff"/>
        </g>
      </g>
    </g>
  </g>
</svg>
