<?xml version="1.0" encoding="UTF-8" standalone="no"?>
<!DOCTYPE svg PUBLIC "-//W3C//DTD SVG 1.1//EN" "http://www.w3.org/Graphics/SVG/1.1/DTD/svg11.dtd">
<svg xmlns:dc="http://purl.org/dc/elements/1.1/" xmlns:xl="http://www.w3.org/1999/xlink" version="1.1" xmlns="http://www.w3.org/2000/svg" viewBox="-569 83.59896 65 65.40104" width="65" height="65.40104">
  <defs/>
  <g id="Canvas_1" fill="none" fill-opacity="1" stroke="none" stroke-dasharray="none" stroke-opacity="1">
    <title>Canvas 1</title>
    <g id="Canvas_1_Layer_1">
      <title>Layer 1</title>
      <g id="Group_575">
        <g id="Graphic_583">
          <path d="M -552.4 124.89896 C -551.1 124.89896 -549.9 125.19896 -548.7 125.89896 L -548 124.59896 C -549.4 123.79896 -550.9 123.39896 -552.4 123.39896 C -556.6 123.39896 -560.1 126.19896 -561.2 129.99896 L -564.5 129.99896 L -564.5 131.49896 L -561.5 131.49896 C -561.5 131.79896 -561.6 132.19896 -561.6 132.49896 C -561.6 132.79896 -561.6 133.19896 -561.5 133.49896 L -564.5 133.49896 L -564.5 134.99896 L -561.2 134.99896 C -560.1 138.79896 -556.6 141.59896 -552.4 141.59896 C -550.9 141.59896 -549.4 141.19896 -548 140.39896 L -548.7 139.09896 C -549.9 139.79896 -551.1 140.09896 -552.4 140.09896 C -555.7 140.09896 -558.6 137.99896 -559.6 134.99896 L -551.6 134.99896 L -551.6 133.49896 L -560 133.49896 C -560 133.19896 -560.1 132.79896 -560.1 132.49896 C -560.1 132.19896 -560.1 131.79896 -560 131.49896 L -551.7 131.49896 L -551.7 129.99896 L -559.7 129.99896 C -558.6 127.09896 -555.8 124.89896 -552.4 124.89896 Z" fill="#01abff"/>
        </g>
        <g id="Graphic_582">
          <path d="M -519.4 125.29896 C -517.3 125.29896 -515.6 126.99896 -515.6 129.09896 L -514.1 129.09896 C -514.1 126.19896 -516.5 123.79896 -519.4 123.79896 C -522.3 123.79896 -524.7 126.19896 -524.7 129.09896 C -524.7 130.39896 -524.2 131.59896 -523.8 132.79896 C -523.7 132.99896 -523.6 133.19896 -523.6 133.49896 L -525.7 133.49896 L -525.7 134.99896 L -523.2 134.99896 C -523.2 135.09896 -523.2 135.29896 -523.2 135.39896 C -523.2 137.69896 -524.2 139.89896 -525.9 141.49896 L -524.9 142.59896 C -524.8 142.49896 -522.9 140.79896 -519.4 141.69896 C -519.3 141.69896 -516.5 142.69896 -514.5 141.69896 L -515.2 140.39896 C -516.4 140.99896 -518.2 140.59896 -518.9 140.29896 C -520.5 139.89896 -521.8 139.99896 -522.9 140.19896 C -522.1 138.79896 -521.7 137.09896 -521.7 135.49896 C -521.7 135.39896 -521.7 135.19896 -521.7 135.09896 L -516.4 135.09896 L -516.4 133.59896 L -522 133.59896 C -522.1 133.19896 -522.3 132.79896 -522.4 132.39896 C -522.8 131.39896 -523.2 130.29896 -523.2 129.29896 C -523.3 127.09896 -521.5 125.29896 -519.4 125.29896 Z" fill="#01abff"/>
        </g>
        <g id="Graphic_581">
          <path d="M -522.1 105.49896 C -522.7 104.99896 -523 104.29896 -523 103.59896 L -524.5 103.59896 C -524.5 104.79896 -524 105.89896 -523 106.69896 C -522.3 107.29896 -521.4 107.69896 -520.4 107.89896 L -520.4 110.89896 L -519 110.89896 L -519 107.89896 C -518 107.79896 -517.1 107.39896 -516.4 106.69896 C -515.5 105.89896 -514.9 104.79896 -514.9 103.59896 C -514.9 102.39896 -515.4 101.29896 -516.4 100.49896 C -517.3 99.69896 -518.5 99.29896 -519.8 99.29896 C -520.7 99.29896 -521.6 98.99896 -522.2 98.39896 C -522.8 97.89896 -523.1 97.19896 -523.1 96.49896 C -523.1 95.79896 -522.8 95.09896 -522.2 94.59896 C -520.9 93.49896 -518.7 93.49896 -517.4 94.59896 C -516.8 95.09896 -516.5 95.79896 -516.5 96.49896 L -515 96.49896 C -515 95.29896 -515.5 94.19896 -516.5 93.39896 C -517.1 92.79896 -518 92.39896 -519 92.29896 L -519 89.29896 L -520.5 89.29896 L -520.5 92.29896 C -521.5 92.39896 -522.4 92.79896 -523.1 93.49896 C -524 94.29896 -524.6 95.39896 -524.6 96.59896 C -524.6 97.79896 -524.1 98.89896 -523.1 99.69896 C -522.2 100.49896 -521 100.89896 -519.7 100.89896 C -518.8 100.89896 -517.9 101.19896 -517.3 101.79896 C -516.7 102.29896 -516.4 102.99896 -516.4 103.69896 C -516.4 104.39896 -516.7 105.09896 -517.3 105.59896 C -518.6 106.59896 -520.9 106.59896 -522.1 105.49896 Z" fill="#01abff"/>
        </g>
        <g id="Graphic_580">
          <path d="M -519.7 115.79896 C -511 115.79896 -504 108.69896 -504 99.99896 C -504 91.29896 -511 84.29896 -519.7 84.29896 C -528.4 84.29896 -535.4 91.39896 -535.4 99.99896 C -535.5 108.69896 -528.4 115.79896 -519.7 115.79896 Z M -519.7 85.79896 C -511.8 85.79896 -505.5 92.19896 -505.5 99.99896 C -505.5 107.89896 -511.9 114.19896 -519.7 114.19896 C -527.6 114.19896 -533.9 107.79896 -533.9 99.99896 C -534 92.19896 -527.6 85.79896 -519.7 85.79896 Z" fill="#01abff"/>
        </g>
        <g id="Graphic_579">
          <path d="M -553.3 83.59896 C -562 83.59896 -569 90.59896 -569 99.29896 C -569 107.99896 -562 114.99896 -553.3 114.99896 C -544.6 114.99896 -537.6 107.89896 -537.6 99.29896 C -537.6 90.69896 -544.6 83.59896 -553.3 83.59896 Z M -553.3 113.49896 C -561.2 113.49896 -567.5 107.09896 -567.5 99.29896 C -567.5 91.39896 -561.1 85.09896 -553.3 85.09896 C -545.4 85.09896 -539 91.39896 -539 99.29896 C -539 107.19896 -545.4 113.49896 -553.3 113.49896 Z" fill="#01abff"/>
        </g>
        <g id="Graphic_578">
          <path d="M -548.4 90.79896 L -553.3 98.59896 L -558.1 90.79896 L -559.4 91.59896 L -554.6 99.29896 L -558.9 99.29896 L -558.9 100.79896 L -554 100.79896 L -554 103.69896 L -558.9 103.69896 L -558.9 105.19896 L -554 105.19896 L -554 108.99896 L -552.5 108.99896 L -552.5 105.19896 L -547.6 105.19896 L -547.6 103.69896 L -552.5 103.69896 L -552.5 100.79896 L -547.6 100.79896 L -547.6 99.29896 L -551.9 99.29896 L -547.1 91.59896 Z" fill="#01abff"/>
        </g>
        <g id="Graphic_577">
          <path d="M -519.7 117.59896 C -528.4 117.59896 -535.4 124.69896 -535.4 133.29896 C -535.4 141.99896 -528.3 148.99896 -519.7 148.99896 C -511 149.09896 -504 141.99896 -504 133.29896 C -504 124.59896 -511 117.59896 -519.7 117.59896 Z M -519.7 147.59896 C -527.6 147.59896 -533.9 141.19896 -533.9 133.39896 C -533.9 125.49896 -527.5 119.19896 -519.7 119.19896 C -511.8 119.19896 -505.5 125.59896 -505.5 133.39896 C -505.5 141.19896 -511.9 147.59896 -519.7 147.59896 Z" fill="#01abff"/>
        </g>
        <g id="Graphic_576">
          <path d="M -553.3 116.79896 C -562 116.79896 -569 123.89896 -569 132.59896 C -569 141.29896 -562 148.29896 -553.3 148.29896 C -544.6 148.29896 -537.6 141.19896 -537.6 132.59896 C -537.5 123.89896 -544.6 116.79896 -553.3 116.79896 Z M -553.3 146.79896 C -561.1 146.79896 -567.5 140.39896 -567.5 132.59896 C -567.5 124.69896 -561.1 118.39896 -553.3 118.39896 C -545.4 118.39896 -539.1 124.79896 -539.1 132.59896 C -539 140.39896 -545.4 146.79896 -553.3 146.79896 Z" fill="#01abff"/>
        </g>
      </g>
    </g>
  </g>
</svg>
