<?xml version="1.0" encoding="UTF-8" standalone="no"?>
<!DOCTYPE svg PUBLIC "-//W3C//DTD SVG 1.1//EN" "http://www.w3.org/Graphics/SVG/1.1/DTD/svg11.dtd">
<svg xmlns:dc="http://purl.org/dc/elements/1.1/" xmlns:xl="http://www.w3.org/1999/xlink" version="1.1" xmlns="http://www.w3.org/2000/svg" viewBox="-557 518 56.2 65.3" width="56.2" height="65.3">
  <defs/>
  <g id="Canvas_1" fill="none" fill-opacity="1" stroke="none" stroke-dasharray="none" stroke-opacity="1">
    <title>Canvas 1</title>
    <g id="Canvas_1_Layer_1">
      <title>Layer 1</title>
      <g id="Group_634">
        <g id="Graphic_639">
          <path d="M -503.8 566.3 C -504.6 566 -505.5 566 -506.3 566.3 L -517.8 571.4 C -517.8 571.3 -517.8 571.2 -517.8 571 C -517.8 569.3 -519.2 568 -520.8 567.9 C -520.8 567.9 -520.8 567.9 -520.9 567.9 L -528.9 567.9 L -535 565 C -536.3 564.4 -537.7 564.1 -539.1 564.1 L -543.7 564.1 L -543.7 561.9 L -557 561.9 L -557 563.4 L -545.3 563.4 L -545.3 579.9 L -554.6 579.9 L -554.6 581.4 L -543.8 581.4 L -543.8 579.2 L -540.4 579.2 L -529.2 582.9 C -528.4 583.2 -527.6 583.3 -526.8 583.3 C -525.6 583.3 -524.4 583 -523.4 582.5 L -503.8 572.3 C -503 572 -502.4 571.3 -502 570.5 C -501.7 569.7 -501.7 568.8 -502 568 C -502.4 567.3 -503 566.6 -503.8 566.3 Z M -504.4 571 L -524 581.3 C -525.4 582 -527.1 582.2 -528.6 581.7 L -539.9 577.9 L -543.7 577.9 L -543.7 565.7 L -539.1 565.7 C -537.9 565.7 -536.7 566 -535.6 566.5 L -529.2 569.5 L -520.8 569.5 C -520 569.5 -519.3 570.2 -519.3 571.1 C -519.3 572 -520 572.7 -520.9 572.7 L -530.7 572.7 L -530.8 572.7 C -531.7 572.9 -533.5 573.7 -533.5 575.5 L -532 575.5 C -532 574.6 -530.9 574.2 -530.6 574.2 L -520.8 574.2 C -520.3 574.2 -519.8 574 -519.4 573.8 L -505.7 567.8 C -505.3 567.6 -504.8 567.6 -504.3 567.8 C -503.9 568 -503.5 568.3 -503.3 568.8 C -503 569.6 -503.5 570.6 -504.4 571 Z" fill="#01abff"/>
        </g>
        <g id="Graphic_638">
          <rect x="-548.9" y="576.3" width="1.5" height="1.5" fill="#01abff"/>
        </g>
        <g id="Graphic_637">
          <rect x="-551.9" y="576.3" width="1.3" height="1.5" fill="#01abff"/>
        </g>
        <g id="Graphic_636">
          <path d="M -522.1 534.5 L -522.1 532.9 C -521.5 532.8 -521 532.5 -520.6 532.2 C -520 531.6 -519.6 530.9 -519.6 530.1 C -519.6 529.3 -520 528.6 -520.6 528 C -521.2 527.5 -522 527.2 -522.9 527.2 C -523.4 527.2 -523.8 527 -524.2 526.7 C -524.5 526.4 -524.7 526.1 -524.7 525.7 C -524.7 525.3 -524.5 525 -524.2 524.7 C -523.5 524.2 -522.3 524.2 -521.6 524.7 C -521.3 525 -521.1 525.3 -521.1 525.7 L -519.6 525.7 C -519.6 524.9 -520 524.2 -520.6 523.6 C -521 523.2 -521.6 523 -522.1 522.9 L -522.1 521.3 L -523.6 521.3 L -523.6 522.9 C -524.2 523 -524.7 523.2 -525.1 523.6 C -525.7 524.2 -526.1 524.9 -526.1 525.7 C -526.1 526.5 -525.7 527.2 -525.1 527.8 C -524.5 528.3 -523.7 528.6 -522.8 528.6 C -522.3 528.6 -521.9 528.8 -521.5 529.1 C -521.2 529.4 -521 529.7 -521 530.1 C -521 530.5 -521.2 530.8 -521.5 531.1 C -522.2 531.7 -523.4 531.7 -524.1 531.1 C -524.4 530.8 -524.6 530.5 -524.6 530.1 L -526.1 530.1 C -526.1 530.9 -525.7 531.6 -525.1 532.2 C -524.7 532.6 -524.2 532.8 -523.6 532.9 L -523.6 534.5 Z" fill="#01abff"/>
        </g>
        <g id="Graphic_635">
          <path d="M -541.2 558.2 C -539.2 558.2 -537.6 556.6 -537.6 554.6 C -537.6 552.9 -538.8 551.5 -540.4 551.1 L -540.4 545.2 L -523.6 545.2 L -523.6 551.2 C -525.2 551.5 -526.4 553 -526.4 554.7 C -526.4 556.7 -524.8 558.3 -522.8 558.3 C -520.8 558.3 -519.2 556.7 -519.2 554.7 C -519.2 553 -520.4 551.6 -522 551.2 L -522 545.3 L -505.2 545.3 L -505.2 551.2 C -506.8 551.5 -508 553 -508 554.7 C -508 556.7 -506.4 558.3 -504.4 558.3 C -502.4 558.3 -500.8 556.7 -500.8 554.7 C -500.8 553 -502 551.6 -503.6 551.2 L -503.6 543.8 L -522.1 543.8 L -522.1 537.8 C -517 537.4 -512.9 533.1 -512.9 527.9 C -512.9 522.4 -517.3 518 -522.8 518 C -528.3 518 -532.7 522.4 -532.7 527.9 C -532.7 533.1 -528.7 537.4 -523.5 537.8 L -523.5 543.8 L -542 543.8 L -542 551.2 C -543.6 551.5 -544.8 553 -544.8 554.7 C -544.8 556.6 -543.2 558.2 -541.2 558.2 Z M -520.8 554.7 C -520.8 555.8 -521.7 556.8 -522.9 556.8 C -524 556.8 -525 555.9 -525 554.7 C -525 553.6 -524.1 552.6 -522.9 552.6 C -521.7 552.6 -520.8 553.5 -520.8 554.7 Z M -502.5 554.7 C -502.5 555.8 -503.4 556.8 -504.6 556.8 C -505.7 556.8 -506.7 555.9 -506.7 554.7 C -506.7 553.6 -505.8 552.6 -504.6 552.6 C -503.4 552.6 -502.5 553.5 -502.5 554.7 Z M -531.3 527.9 C -531.3 523.3 -527.5 519.5 -522.9 519.5 C -518.2 519.5 -514.5 523.2 -514.5 527.9 C -514.5 532.6 -518.3 536.3 -522.9 536.3 C -527.5 536.3 -531.3 532.5 -531.3 527.9 Z M -541.2 552.6 C -540.1 552.6 -539.1 553.5 -539.1 554.7 C -539.1 555.8 -540 556.8 -541.2 556.8 C -542.3 556.8 -543.3 555.9 -543.3 554.7 C -543.3 553.5 -542.3 552.6 -541.2 552.6 Z" fill="#01abff"/>
        </g>
      </g>
    </g>
  </g>
</svg>
