<?xml version="1.0" encoding="UTF-8" standalone="no"?>
<!DOCTYPE svg PUBLIC "-//W3C//DTD SVG 1.1//EN" "http://www.w3.org/Graphics/SVG/1.1/DTD/svg11.dtd">
<svg xmlns:dc="http://purl.org/dc/elements/1.1/" xmlns:xl="http://www.w3.org/1999/xlink" version="1.1" xmlns="http://www.w3.org/2000/svg" viewBox="160 266 65 65" width="65" height="65">
  <defs/>
  <g id="Canvas_1" fill="none" fill-opacity="1" stroke="none" stroke-dasharray="none" stroke-opacity="1">
    <title>Canvas 1</title>
    <g id="Canvas_1_Layer_1">
      <title>Layer 1</title>
      <g id="Group_27">
        <g id="Graphic_51">
          <path d="M 202.99267 308.03776 L 195.1975 300.21657 C 195.49732 299.7152 195.6972 299.11358 195.6972 298.51195 C 195.6972 297.00787 194.6978 295.70434 193.29868 295.40352 L 193.29868 280.2625 L 191.7996 280.2625 L 191.7996 295.40352 C 190.40047 295.70434 189.4011 297.00787 189.4011 298.51195 C 189.4011 300.31684 190.80023 301.72064 192.59911 301.72064 C 193.19874 301.72064 193.79837 301.5201 194.29806 301.2193 L 201.9933 309.0405 Z M 193.69843 299.7152 C 193.39862 300.01602 192.89893 300.21657 192.49917 300.21657 C 191.59973 300.21657 190.80023 299.4144 190.80023 298.51195 C 190.80023 297.6095 191.59973 296.80733 192.49917 296.80733 C 193.39862 296.80733 194.19812 297.6095 194.19812 298.51195 C 194.19812 299.0133 193.99824 299.4144 193.69843 299.7152 Z" fill="#01abff"/>
        </g>
        <g id="Graphic_50">
          <path d="M 217.58363 277.7557 L 221.9809 278.55786 L 222.28072 277.0538 L 215.08518 275.75025 L 213.78598 282.96982 L 215.28505 283.27064 L 216.1845 278.35732 C 225.57867 289.3872 226.07836 305.4307 217.28381 317.1625 C 206.9902 330.89973 187.50227 333.60707 173.81076 323.27907 C 167.21484 318.2655 162.9175 311.0459 161.81819 302.82363 C 160.61893 294.60135 162.81757 286.37906 167.71453 279.76113 C 175.90946 268.93177 190.50041 264.6201 203.29248 269.33286 C 205.29125 270.03476 207.19007 271.03748 208.98895 272.14047 L 209.68852 270.9372 C 207.7897 269.73395 205.79094 268.73123 203.79217 268.02933 C 190.40047 263.01574 175.10995 267.52797 166.61522 278.95895 C 161.3185 285.8777 159.11986 294.4008 160.31912 303.02418 C 161.51837 311.64755 166.01559 319.2682 172.91131 324.48233 C 178.70772 328.8943 185.60345 331 192.39924 331 C 202.2931 331 211.9871 326.48777 218.38313 318.06494 C 227.57743 305.93206 227.07774 289.3872 217.58363 277.7557 Z" fill="#01abff"/>
        </g>
        <g id="Graphic_49">
          <rect x="191.7996" y="269.43313" width="1.499071" height="6.617937" fill="#01abff"/>
        </g>
        <g id="Graphic_48">
          <path d="M 184.29383 270.58876 L 185.74178 270.19905 L 186.59628 273.39518 L 185.14833 273.7849 Z" fill="#01abff"/>
        </g>
        <g id="Graphic_47">
          <path d="M 177.40635 273.7401 L 178.70454 272.9879 L 180.35385 275.85347 L 179.05566 276.60566 Z" fill="#01abff"/>
        </g>
        <g id="Graphic_46">
          <path d="M 167.10332 284.6165 L 167.853 283.31397 L 170.70904 284.9688 L 169.95935 286.27132 Z" fill="#01abff"/>
        </g>
        <g id="Graphic_45">
          <path d="M 164.31097 291.6206 L 164.69923 290.16782 L 167.88473 291.02484 L 167.49647 292.47763 Z" fill="#01abff"/>
        </g>
        <g id="Graphic_44">
          <path d="M 167.469 304.3823 L 167.85742 305.8351 L 164.67192 306.69246 L 164.28351 305.23967 Z" fill="#01abff"/>
        </g>
        <g id="Graphic_43">
          <path d="M 169.8727 310.75037 L 170.6224 312.0529 L 167.76636 313.7077 L 167.01668 312.4052 Z" fill="#01abff"/>
        </g>
        <g id="Graphic_42">
          <path d="M 178.6648 324.04324 L 177.3666 323.29106 L 179.0159 320.4255 L 180.3141 321.17768 Z" fill="#01abff"/>
        </g>
        <g id="Graphic_41">
          <path d="M 185.69885 326.79843 L 184.2509 326.40888 L 185.10507 323.21274 L 186.55302 323.6023 Z" fill="#01abff"/>
        </g>
        <g id="Graphic_40">
          <path d="M 200.63268 326.3522 L 199.18473 326.7419 L 198.33023 323.5458 L 199.77818 323.15608 Z" fill="#01abff"/>
        </g>
        <g id="Graphic_39">
          <path d="M 206.2435 324.05815 L 204.5942 321.19258 L 205.8924 320.4404 L 207.5417 323.30596 Z" fill="#01abff"/>
        </g>
        <g id="Graphic_38">
          <path d="M 217.8693 312.40143 L 217.11962 313.70396 L 214.2636 312.04915 L 215.01328 310.7466 Z" fill="#01abff"/>
        </g>
        <g id="Graphic_37">
          <path d="M 220.6171 305.30155 L 220.22975 306.7545 L 217.04392 305.89945 L 217.43128 304.4465 Z" fill="#01abff"/>
        </g>
        <g id="Graphic_36">
          <path d="M 217.1414 291.1296 L 220.3269 290.2729 L 220.715 291.7257 L 217.5295 292.5824 Z" fill="#01abff"/>
        </g>
        <g id="Graphic_35">
          <path d="M 204.68912 275.89003 L 206.3381 273.02447 L 207.6363 273.7765 L 205.98731 276.64207 Z" fill="#01abff"/>
        </g>
        <g id="Graphic_34">
          <path d="M 198.49756 273.4144 L 199.35074 270.21794 L 200.79884 270.60704 L 199.94566 273.8035 Z" fill="#01abff"/>
        </g>
        <g id="Graphic_33">
          <path d="M 171.49485 278.46044 L 172.55484 277.3969 L 177.21881 282.07645 L 176.15882 283.14 Z" fill="#01abff"/>
        </g>
        <g id="Graphic_32">
          <rect x="163.51714" y="297.70977" width="6.595912" height="1.5040766" fill="#01abff"/>
        </g>
        <g id="Graphic_31">
          <path d="M 172.52114 319.4888 L 171.46114 318.42527 L 176.12511 313.74573 L 177.1851 314.80926 Z" fill="#01abff"/>
        </g>
        <g id="Graphic_30">
          <rect x="191.69967" y="320.97282" width="1.499071" height="6.617937" fill="#01abff"/>
        </g>
        <g id="Graphic_29">
          <path d="M 212.4116 319.67208 L 207.74762 314.99253 L 208.80762 313.929 L 213.47159 318.60854 Z" fill="#01abff"/>
        </g>
        <g id="Graphic_28">
          <rect x="214.8853" y="297.81004" width="6.595912" height="1.5040766" fill="#01abff"/>
        </g>
      </g>
    </g>
  </g>
</svg>
