<?xml version="1.0" encoding="UTF-8" standalone="no"?>
<!DOCTYPE svg PUBLIC "-//W3C//DTD SVG 1.1//EN" "http://www.w3.org/Graphics/SVG/1.1/DTD/svg11.dtd">
<svg xmlns:dc="http://purl.org/dc/elements/1.1/" xmlns:xl="http://www.w3.org/1999/xlink" version="1.1" xmlns="http://www.w3.org/2000/svg" viewBox="-10.8 -243.7 56.8 65.7" width="56.8" height="65.7">
  <defs/>
  <g id="Canvas_1" fill="none" fill-opacity="1" stroke="none" stroke-dasharray="none" stroke-opacity="1">
    <title>Canvas 1</title>
    <g id="Canvas_1_Layer_1">
      <title>Layer 1</title>
      <g id="Group_317">
        <g id="Graphic_323">
          <path d="M 39.7 -230.5 L 22.2 -236.9 L 15.4 -242.4 C 14.3 -243.3 13 -243.7 11.7 -243.7 C 9.9 -243.7 8.3 -242.9 7.2 -241.6 L 6.5 -240.8 C 5.5 -239.6 5 -238.1 5.2 -236.5 C 5.4 -234.9 6.1 -233.5 7.3 -232.5 L 10.3 -230 L -3.9 -212.9 C -4.5 -213.1 -5.1 -213.3 -5.7 -213.3 C -8.2 -213.3 -10.2 -211.3 -10.2 -208.8 C -10.2 -206.3 -8.2 -204.3 -5.7 -204.3 C -5.4 -204.3 -5 -204.3 -4.7 -204.4 L 6.4 -184.3 L -6 -184.3 C -7.2 -184.3 -8.3 -183.6 -8.7 -182.5 L -10.8 -178 L 26.1 -178 L 24 -182.4 C 23.5 -183.5 22.5 -184.2 21.3 -184.2 L 8.1 -184.2 L -3.3 -205 C -3.2 -205.1 -3.1 -205.1 -3 -205.2 C -1.8 -206.1 -1.1 -207.4 -1.1 -208.9 C -1.1 -210.1 -1.6 -211.2 -2.4 -212.1 L -2.5 -212.2 L 11.6 -229.2 L 14.1 -227.1 L 23.9 -211.3 L 28.3 -216.6 C 29.2 -215.9 30.4 -215.5 31.5 -215.5 C 33.1 -215.5 34.5 -216.2 35.5 -217.4 L 36.1 -218.1 C 37.9 -220.3 37.6 -223.5 35.5 -225.4 Z M 22.7 -181.9 L 23.8 -179.6 L -8.5 -179.6 L -7.4 -182 C -7.2 -182.5 -6.6 -182.9 -6.1 -182.9 L 21.2 -182.9 C 21.9 -182.8 22.4 -182.4 22.7 -181.9 Z M -3.9 -206.3 C -4.4 -205.9 -5 -205.7 -5.6 -205.7 C -7.3 -205.7 -8.6 -207 -8.6 -208.7 C -8.6 -210.4 -7.3 -211.7 -5.6 -211.7 C -4.8 -211.7 -4 -211.4 -3.5 -210.8 C -2.9 -210.2 -2.6 -209.5 -2.6 -208.7 C -2.7 -207.8 -3.1 -206.9 -3.9 -206.3 Z M 6.7 -236.7 C 6.6 -237.9 6.9 -239 7.7 -239.9 L 8.4 -240.7 C 9.2 -241.7 10.5 -242.3 11.8 -242.3 C 12.8 -242.3 13.8 -241.9 14.6 -241.3 L 20.8 -236.2 L 14.6 -228.6 L 8.4 -233.7 C 7.3 -234.4 6.8 -235.5 6.7 -236.7 Z M 15.5 -227.5 L 22 -235.4 L 37.2 -229.9 L 34.2 -226.2 L 24 -213.8 Z M 34.8 -218.9 L 34.2 -218.2 C 33.5 -217.3 32.5 -216.9 31.3 -216.9 C 30.5 -216.9 29.7 -217.2 29 -217.7 L 34.3 -224.1 C 35.9 -222.7 36.1 -220.5 34.8 -218.9 Z" fill="#01abff"/>
        </g>
        <g id="Graphic_322">
          <rect x="30.6" y="-211.9" width="1.5" height="5.3" fill="#01abff"/>
        </g>
        <g id="Graphic_321">
          <path d="M 41.17378 -210.42 L 37.42615 -214.16763 L 38.4868 -215.22828 L 42.23443 -211.48065 Z" fill="#01abff"/>
        </g>
        <g id="Graphic_320">
          <rect x="40.7" y="-222" width="5.3" height="1.5" fill="#01abff"/>
        </g>
        <g id="Graphic_319">
          <path d="M 16.9411 -237.3211 L 18.082 -236.34715 L 17.10805 -235.20625 L 15.96715 -236.1802 Z" fill="#01abff"/>
        </g>
        <g id="Graphic_318">
          <path d="M 14.67736 -239.32218 L 15.81826 -238.34838 L 14.84446 -237.20748 L 13.70356 -238.18128 Z" fill="#01abff"/>
        </g>
      </g>
    </g>
  </g>
</svg>
