<?xml version="1.0" encoding="UTF-8" standalone="no"?>
<!DOCTYPE svg PUBLIC "-//W3C//DTD SVG 1.1//EN" "http://www.w3.org/Graphics/SVG/1.1/DTD/svg11.dtd">
<svg xmlns:dc="http://purl.org/dc/elements/1.1/" xmlns:xl="http://www.w3.org/1999/xlink" version="1.1" xmlns="http://www.w3.org/2000/svg" viewBox="-481 387 65 63.8" width="65" height="63.8">
  <defs/>
  <g id="Canvas_1" fill="none" fill-opacity="1" stroke="none" stroke-dasharray="none" stroke-opacity="1">
    <title>Canvas 1</title>
    <g id="Canvas_1_Layer_1">
      <title>Layer 1</title>
      <g id="Group_604">
        <g id="Graphic_617">
          <rect x="-446.5" y="387" width="1.5" height="1.5" fill="#01abff"/>
        </g>
        <g id="Graphic_616">
          <rect x="-442.8" y="387" width="1.5" height="1.5" fill="#01abff"/>
        </g>
        <g id="Graphic_615">
          <rect x="-439.2" y="387" width="1.5" height="1.5" fill="#01abff"/>
        </g>
        <g id="Graphic_614">
          <rect x="-435.5" y="387" width="1.5" height="1.5" fill="#01abff"/>
        </g>
        <g id="Graphic_613">
          <path d="M -469.4 435.2 L -469.4 442.2 C -475.8 436.4 -479.5 428.2 -479.5 419.4 C -479.5 402.3 -465.6 388.5 -448.6 388.5 L -448.6 387 C -466.5 387 -481 401.5 -481 419.4 C -481 428.5 -477.2 437 -470.6 443.1 L -477.2 443.1 L -477.2 444.6 L -467.8 444.6 L -467.8 435.2 Z" fill="#01abff"/>
        </g>
        <g id="Graphic_612">
          <path d="M -426.4 394.7 L -419.8 394.7 L -419.8 393.2 L -429.2 393.2 L -429.2 402.6 L -427.7 402.6 L -427.7 395.6 C -421.2 401.4 -417.5 409.6 -417.5 418.4 C -417.5 435.5 -431.4 449.3 -448.4 449.3 L -448.4 450.8 C -430.5 450.8 -416 436.3 -416 418.4 C -416 409.3 -419.8 400.8 -426.4 394.7 Z" fill="#01abff"/>
        </g>
        <g id="Graphic_611">
          <rect x="-452" y="449.3" width="1.5" height="1.5" fill="#01abff"/>
        </g>
        <g id="Graphic_610">
          <rect x="-455.7" y="449.3" width="1.5" height="1.5" fill="#01abff"/>
        </g>
        <g id="Graphic_609">
          <rect x="-459.3" y="449.3" width="1.5" height="1.5" fill="#01abff"/>
        </g>
        <g id="Graphic_608">
          <rect x="-463" y="449.3" width="1.5" height="1.5" fill="#01abff"/>
        </g>
        <g id="Graphic_607">
          <path d="M -450.8 408.8 C -450.9 408.7 -451 408.6 -451 408.4 L -452.5 408.4 C -452.5 409 -452.2 409.5 -451.8 409.9 C -451.6 410.1 -451.3 410.3 -451 410.4 L -451 411.2 L -449.5 411.2 L -449.5 410.4 C -449.2 410.3 -448.9 410.2 -448.7 409.9 C -448.2 409.5 -448 409 -448 408.4 C -448 407.8 -448.3 407.3 -448.7 406.9 C -449.1 406.5 -449.7 406.3 -450.3 406.3 C -450.5 406.3 -450.8 406.2 -450.9 406.1 C -451 406 -451.1 405.9 -451.1 405.7 C -451.1 405.5 -451 405.4 -450.9 405.3 C -450.6 405 -450 405 -449.7 405.3 C -449.6 405.4 -449.5 405.5 -449.5 405.7 L -448 405.7 C -448 405.1 -448.3 404.6 -448.7 404.2 C -448.9 404 -449.2 403.8 -449.5 403.8 L -449.5 403 L -451 403 L -451 403.8 C -451.3 403.9 -451.6 404 -451.8 404.2 C -452.3 404.6 -452.5 405.1 -452.5 405.7 C -452.5 406.3 -452.2 406.8 -451.8 407.2 C -451.4 407.6 -450.8 407.8 -450.2 407.8 C -450 407.8 -449.7 407.9 -449.6 408 C -449.5 408.1 -449.4 408.2 -449.4 408.4 C -449.4 408.6 -449.5 408.7 -449.6 408.8 C -449.9 409 -450.5 409 -450.8 408.8 Z" fill="#01abff"/>
        </g>
        <g id="Graphic_606">
          <path d="M -460.6 414.3 C -460.7 414.3 -462.3 414.8 -462.9 416.6 L -461.5 417 C -461.2 415.9 -460.3 415.7 -460.2 415.7 L -460.4 415 Z" fill="#01abff"/>
        </g>
        <g id="Graphic_605">
          <path d="M -453.8 433.6 L -446.2 433.6 C -446 434.5 -445.7 435.3 -445.1 435.8 C -444.6 436.3 -443.9 436.6 -443 436.6 L -442.9 436.6 L -442.8 436.6 C -441.9 436.6 -440.4 436.5 -440.1 434.2 C -439.9 432.5 -438 431.1 -438 431 L -437.8 430.9 C -435.4 429.1 -433.8 426.6 -433.2 423.8 C -432.7 424.4 -432 424.8 -431.3 425.1 C -430.6 425.4 -429.8 425.6 -429.1 425.6 C -428.4 425.6 -427.7 425.5 -427 425.2 C -425 424.4 -424 422.1 -424.8 420 C -425.4 418.6 -427 417.9 -428.5 418.4 C -429.6 418.8 -430.1 420.1 -429.7 421.1 L -428.3 420.5 C -428.4 420.2 -428.3 419.8 -428 419.7 C -427.3 419.4 -426.5 419.8 -426.3 420.4 C -425.8 421.7 -426.4 423.1 -427.7 423.6 C -428.7 424 -429.9 424 -430.9 423.6 C -431.9 423.2 -432.7 422.4 -433.1 421.4 C -433.1 421.3 -433.1 421.2 -433.1 421.1 C -433.1 416.4 -434.4 414.1 -436.6 411.9 C -437.1 411.4 -437.6 411 -438.1 410.6 L -437.8 406.9 C -437.8 406.6 -437.9 406.3 -438.2 406.1 L -438.7 405.9 L -441.9 408.4 L -443.8 408.4 C -443.7 407.9 -443.6 407.3 -443.6 406.8 C -443.6 403.1 -446.6 400.1 -450.3 400.1 C -454 400.1 -457 403.1 -457 406.8 C -457 407.4 -456.9 407.9 -456.8 408.4 L -458.6 408.4 L -461.5 406.4 C -461.8 406.2 -462.1 406.2 -462.4 406.4 L -462.8 406.7 L -462.5 410.9 C -463.7 411.9 -464.8 413.1 -465.6 414.5 C -465.8 414.8 -465.9 415.1 -466.1 415.5 C -466.4 416 -466.9 416.2 -467.3 416.2 L -469 416.2 C -470.1 416.2 -470.9 417.1 -470.9 418.1 L -470.9 419.9 C -470.9 421 -470 421.8 -469 421.8 C -468.1 421.8 -467.1 422.8 -466.6 424.4 C -466.6 424.5 -466.5 424.6 -466.5 424.7 C -465.9 426.6 -464.9 428.3 -463.5 429.6 C -463.1 430 -462.7 430.4 -462.2 430.7 L -462 430.8 C -462 430.8 -460.1 432.2 -459.9 434 C -459.6 436.3 -458.1 436.4 -457.2 436.4 L -457.1 436.4 L -457 436.4 C -456.1 436.6 -454.4 436.3 -453.8 433.6 Z M -450.2 401.9 C -447.3 401.9 -445 404.2 -445 407.1 C -445 409.2 -446.2 411 -448.1 411.8 L -452.3 411.8 C -454.2 411 -455.4 409.1 -455.4 407.1 C -455.4 404.2 -453.1 401.9 -450.2 401.9 Z M -455.1 432.5 C -455.3 435.2 -456.6 435.1 -457 435.1 L -457.1 435.1 C -458 435.1 -458.3 435.1 -458.4 434 C -458.7 431.6 -461 429.9 -461.1 429.8 L -461.3 429.7 C -461.7 429.4 -462.1 429.1 -462.4 428.7 C -463.6 427.5 -464.5 426 -465 424.4 C -465 424.3 -465.1 424.2 -465.1 424.1 C -465.8 421.9 -467.3 420.5 -468.9 420.5 C -469.1 420.5 -469.3 420.3 -469.3 420.1 L -469.3 418.3 C -469.3 418.1 -469.1 417.9 -468.9 417.9 L -467.1 417.9 C -466.2 417.9 -465.3 417.4 -464.7 416.5 C -464.6 416.3 -464.5 416.1 -464.4 416 C -464.4 415.9 -464.3 415.9 -464.3 415.8 C -464.2 415.7 -464.2 415.6 -464.1 415.4 C -463.6 414.5 -462.9 413.7 -462.2 413 L -462.2 413.1 L -460.7 413 L -461 408.7 L -458.9 410.2 L -456 410.2 C -455.7 410.8 -455.3 411.3 -454.8 411.8 L -456.1 411.8 L -456.1 413.3 L -444.1 413.3 L -444.1 411.8 L -445.4 411.8 C -444.9 411.3 -444.5 410.8 -444.2 410.2 L -441.2 410.2 L -439.1 408.6 L -439.4 412.8 L -437.9 412.9 L -437.9 412.7 C -437.7 412.9 -437.5 413 -437.3 413.2 C -435.3 415.2 -434.2 417.1 -434.2 421.3 C -434.2 424.7 -435.7 427.7 -438.4 429.7 L -438.6 429.8 C -438.7 429.9 -441 431.6 -441.3 434 C -441.4 435 -441.7 435.1 -442.6 435.1 L -442.7 435.1 C -443.2 435.1 -443.5 435 -443.8 434.7 C -444.3 434.2 -444.6 433.2 -444.6 431.7 L -446.1 431.7 C -446.1 431.8 -446.1 431.9 -446.1 432.1 L -453.4 432.1 C -453.4 432 -453.4 431.9 -453.4 431.7 L -454.9 431.7 C -455.1 432 -455.1 432.3 -455.1 432.5 Z" fill="#01abff"/>
        </g>
      </g>
    </g>
  </g>
</svg>
