<?xml version="1.0" encoding="UTF-8" standalone="no"?>
<!DOCTYPE svg PUBLIC "-//W3C//DTD SVG 1.1//EN" "http://www.w3.org/Graphics/SVG/1.1/DTD/svg11.dtd">
<svg xmlns:dc="http://purl.org/dc/elements/1.1/" xmlns:xl="http://www.w3.org/1999/xlink" version="1.1" xmlns="http://www.w3.org/2000/svg" viewBox="-96 293 65 60" width="65" height="60">
  <defs/>
  <g id="Canvas_1" fill="none" fill-opacity="1" stroke="none" stroke-dasharray="none" stroke-opacity="1">
    <title>Canvas 1</title>
    <g id="Canvas_1_Layer_1">
      <title>Layer 1</title>
      <g id="Group_65">
        <g id="Graphic_76">
          <path d="M -37.9 331.1636 C -37.5 329.26043 -37.3 327.35726 -37.3 325.4541 C -37.3 315.23706 -43.3 305.92154 -52.5 301.61436 C -53.7 296.70618 -58.2 293 -63.5 293 C -68.8 293 -73.3 296.70618 -74.5 301.61436 C -83.7 306.0217 -89.7 315.33723 -89.7 325.55426 C -89.7 327.45743 -89.5 329.3606 -89.1 331.26377 C -93.1 332.9666 -96 336.9733 -96 341.68114 C -96 347.8915 -90.9 353 -84.7 353 C -81.1 353 -77.9 351.29716 -75.8 348.69282 C -72 350.69616 -67.8 351.798 -63.5 351.798 C -59.2 351.798 -55 350.69616 -51.2 348.69282 C -49.1 351.29716 -45.9 353 -42.3 353 C -36.1 353 -31 347.8915 -31 341.68114 C -31 336.9733 -33.9 332.9666 -37.9 331.1636 Z M -63.5 294.60267 C -58.1 294.60267 -53.7 299.01 -53.7 304.41903 C -53.7 306.9232 -54.6 309.22705 -56.2 310.9299 L -56.2 309.9282 C -56.2 307.32387 -58.3 305.1202 -61 305.1202 L -61.4 305.1202 L -63.4 308.82638 L -63.7 308.82638 L -65.7 305.1202 L -66.1 305.1202 C -68.7 305.1202 -70.9 307.2237 -70.9 309.9282 L -70.9 310.9299 C -72.4 309.22705 -73.4 306.9232 -73.4 304.41903 C -73.3 299.01 -68.9 294.60267 -63.5 294.60267 Z M -57.6 312.33222 C -59.2 313.53422 -61.3 314.2354 -63.5 314.2354 C -65.7 314.2354 -67.7 313.53422 -69.4 312.33222 L -69.4 309.9282 C -69.4 308.22538 -68.2 306.9232 -66.6 306.72287 L -64.6 310.42905 L -62.6 310.42905 L -60.6 306.72287 C -59 306.9232 -57.8 308.32554 -57.8 309.9282 L -57.8 312.33222 Z M -90.5 349.59432 L -90.5 347.1903 C -90.5 345.48748 -89.3 344.1853 -87.7 343.98497 L -85.7 347.69115 L -83.7 347.69115 L -81.7 343.98497 C -80.1 344.1853 -78.9 345.58765 -78.9 347.1903 L -78.9 349.59432 C -80.5 350.79633 -82.6 351.4975 -84.8 351.4975 C -86.9 351.4975 -88.9 350.79633 -90.5 349.59432 Z M -77.3 348.192 L -77.3 347.1903 C -77.3 344.58598 -79.4 342.3823 -82.1 342.3823 L -82.5 342.3823 L -84.5 346.0885 L -84.8 346.0885 L -86.8 342.3823 L -87.3 342.3823 C -89.9 342.3823 -92 344.58598 -92 347.1903 L -92 348.192 C -93.5 346.48915 -94.5 344.1853 -94.5 341.68114 C -94.5 336.27212 -90.1 331.86477 -84.7 331.86477 C -79.3 331.86477 -74.9 336.27212 -74.9 341.68114 C -74.8 344.1853 -75.8 346.48915 -77.3 348.192 Z M -63.5 350.2955 C -67.5 350.2955 -71.4 349.29382 -74.9 347.4908 C -73.9 345.788 -73.3 343.78464 -73.3 341.68114 C -73.3 335.4708 -78.4 330.36227 -84.6 330.36227 C -85.6 330.36227 -86.6 330.46244 -87.6 330.76294 C -88 329.0601 -88.2 327.2571 -88.2 325.55426 C -88.2 316.23873 -83 307.8247 -74.8 303.51753 C -74.8 303.81803 -74.8 304.11853 -74.8 304.41903 C -74.8 310.6294 -69.7 315.7379 -63.5 315.7379 C -57.3 315.7379 -52.2 310.6294 -52.2 304.41903 C -52.2 304.11853 -52.2 303.81803 -52.2 303.51753 C -44 307.72454 -38.8 316.23873 -38.8 325.55426 C -38.8 327.35726 -39 329.0601 -39.4 330.76294 C -40.3 330.46244 -41.3 330.36227 -42.4 330.36227 C -48.6 330.36227 -53.7 335.4708 -53.7 341.68114 C -53.7 343.78464 -53.1 345.788 -52.1 347.4908 C -55.6 349.29382 -59.5 350.2955 -63.5 350.2955 Z M -48.2 349.59432 L -48.2 347.1903 C -48.2 345.48748 -47 344.1853 -45.4 343.98497 L -43.4 347.69115 L -41.4 347.69115 L -39.4 343.98497 C -37.8 344.1853 -36.6 345.58765 -36.6 347.1903 L -36.6 349.59432 C -38.2 350.79633 -40.3 351.4975 -42.5 351.4975 C -44.5 351.4975 -46.5 350.79633 -48.2 349.59432 Z M -35 348.192 L -35 347.1903 C -35 344.58598 -37.1 342.3823 -39.8 342.3823 L -40.2 342.3823 L -42.2 346.0885 L -42.5 346.0885 L -44.5 342.3823 L -44.9 342.3823 C -47.5 342.3823 -49.7 344.4858 -49.7 347.1903 L -49.7 348.192 C -51.2 346.48915 -52.2 344.1853 -52.2 341.68114 C -52.2 336.27212 -47.8 331.86477 -42.4 331.86477 C -37 331.86477 -32.6 336.27212 -32.6 341.68114 C -32.5 344.1853 -33.4 346.48915 -35 348.192 Z" fill="#01abff"/>
        </g>
        <g id="Graphic_75">
          <path d="M -42.3 334.66945 C -44.3 334.66945 -46 336.3723 -46 338.37563 C -46 340.37896 -44.3 342.0818 -42.3 342.0818 C -40.3 342.0818 -38.6 340.37896 -38.6 338.37563 C -38.6 336.3723 -40.3 334.66945 -42.3 334.66945 Z M -42.3 340.5793 C -43.5 340.5793 -44.5 339.57763 -44.5 338.37563 C -44.5 337.17362 -43.5 336.17195 -42.3 336.17195 C -41.1 336.17195 -40.1 337.17362 -40.1 338.37563 C -40.1 339.57763 -41.1 340.5793 -42.3 340.5793 Z" fill="#01abff"/>
        </g>
        <g id="Graphic_74">
          <path d="M -63.5 304.8197 C -61.5 304.8197 -59.8 303.11686 -59.8 301.11352 C -59.8 299.1102 -61.5 297.40735 -63.5 297.40735 C -65.5 297.40735 -67.2 299.1102 -67.2 301.11352 C -67.2 303.11686 -65.5 304.8197 -63.5 304.8197 Z M -63.5 298.90985 C -62.3 298.90985 -61.3 299.91152 -61.3 301.11352 C -61.3 302.31553 -62.3 303.3172 -63.5 303.3172 C -64.7 303.3172 -65.7 302.31553 -65.7 301.11352 C -65.7 299.91152 -64.7 298.90985 -63.5 298.90985 Z" fill="#01abff"/>
        </g>
        <g id="Graphic_73">
          <path d="M -84.7 334.66945 C -86.7 334.66945 -88.4 336.3723 -88.4 338.37563 C -88.4 340.37896 -86.7 342.0818 -84.7 342.0818 C -82.7 342.0818 -81 340.37896 -81 338.37563 C -81 336.3723 -82.6 334.66945 -84.7 334.66945 Z M -84.7 340.5793 C -85.9 340.5793 -86.9 339.57763 -86.9 338.37563 C -86.9 337.17362 -85.9 336.17195 -84.7 336.17195 C -83.5 336.17195 -82.5 337.17362 -82.5 338.37563 C -82.5 339.57763 -83.5 340.5793 -84.7 340.5793 Z" fill="#01abff"/>
        </g>
        <g id="Graphic_72">
          <rect x="-64.2" y="316.6394" width="1.5" height="1.5025042" fill="#01abff"/>
        </g>
        <g id="Graphic_71">
          <rect x="-64.2" y="319.3439" width="1.5" height="1.5025042" fill="#01abff"/>
        </g>
        <g id="Graphic_70">
          <path d="M -71.37581 334.11845 L -72.12596 332.8173 L -70.82696 332.06588 L -70.07681 333.36705 Z" fill="#01abff"/>
        </g>
        <g id="Graphic_69">
          <path d="M -73.74108 335.46356 L -74.49123 334.1624 L -73.19223 333.411 L -72.44208 334.71216 Z" fill="#01abff"/>
        </g>
        <g id="Graphic_68">
          <path d="M -55.59522 334.08463 L -56.89422 333.33323 L -56.14407 332.03206 L -54.84507 332.78347 Z" fill="#01abff"/>
        </g>
        <g id="Graphic_67">
          <path d="M -53.81452 333.39386 L -52.51537 334.14496 L -53.26522 335.4463 L -54.56437 334.6952 Z" fill="#01abff"/>
        </g>
        <g id="Graphic_66">
          <path d="M -60.6 328.85977 C -60.6 327.45743 -61.5 326.3556 -62.8 326.0551 L -62.8 322.1486 L -64.3 322.1486 L -64.3 326.0551 C -65.6 326.3556 -66.5 327.5576 -66.5 328.85977 C -66.5 329.0601 -66.5 329.26043 -66.4 329.56093 L -69.9 331.56427 L -69.2 332.86644 L -65.8 330.8631 C -65.3 331.4641 -64.5 331.86477 -63.6 331.86477 C -62.7 331.86477 -62 331.4641 -61.4 330.8631 L -58 332.86644 L -57.3 331.56427 L -60.8 329.56093 C -60.6 329.26043 -60.6 329.0601 -60.6 328.85977 Z M -63.5 330.2621 C -64.3 330.2621 -65 329.56093 -65 328.7596 C -65 327.95826 -64.3 327.2571 -63.5 327.2571 C -62.7 327.2571 -62 327.95826 -62 328.7596 C -62 329.6611 -62.7 330.2621 -63.5 330.2621 Z" fill="#01abff"/>
        </g>
      </g>
    </g>
  </g>
</svg>
