<?xml version="1.0" encoding="UTF-8" standalone="no"?>
<!DOCTYPE svg PUBLIC "-//W3C//DTD SVG 1.1//EN" "http://www.w3.org/Graphics/SVG/1.1/DTD/svg11.dtd">
<svg xmlns:dc="http://purl.org/dc/elements/1.1/" xmlns:xl="http://www.w3.org/1999/xlink" version="1.1" xmlns="http://www.w3.org/2000/svg" viewBox="-219 344 57 57" width="57" height="57">
  <defs/>
  <g id="Canvas_1" fill="none" fill-opacity="1" stroke="none" stroke-dasharray="none" stroke-opacity="1">
    <title>Canvas 1</title>
    <g id="Canvas_1_Layer_1">
      <title>Layer 1</title>
      <g id="Group_129">
        <title>_x30_3_x5F_factory</title>
        <g id="Group_130">
          <g id="Group_159">
            <g id="Graphic_160">
              <path d="M -163.82484 401 L -217.17617 401 C -218.18293 401 -219 400.1829 -219 399.17605 L -219 378.0662 C -219 377.254 -218.46155 376.53767 -217.68005 376.31437 L -191.00438 368.652 C -190.45407 368.4949 -189.86227 368.60357 -189.40285 368.9484 C -188.94541 369.29324 -188.67668 369.8327 -188.67668 370.4058 L -188.67668 375.64546 L -164.32871 368.652 C -163.36147 368.37434 -162.34879 368.9326 -162.07116 369.9019 C -161.79354 370.87017 -162.35274 371.87997 -163.32195 372.1586 L -189.99762 379.821 C -190.54793 379.9771 -191.14072 379.8694 -191.59915 379.5236 C -192.0556 379.17974 -192.32433 378.63927 -192.32433 378.0662 L -192.32433 372.82653 L -215.35235 379.4396 L -215.35235 397.3511 L -165.64867 397.3511 L -165.64867 375.59013 C -165.64867 374.5823 -164.83259 373.76617 -163.82484 373.76617 C -162.8171 373.76617 -162.00003 374.5823 -162.00003 375.59013 L -162.00003 399.17605 C -162.00101 400.1829 -162.81808 401 -163.82484 401 Z" fill="#01abff"/>
            </g>
          </g>
          <g id="Group_152">
            <g id="Group_157">
              <g id="Graphic_158">
                <path d="M -171.06383 387.7472 C -171.7149 387.7472 -172.3482 387.4804 -172.80268 387.017 C -173.26704 386.5625 -173.5338 385.92027 -173.5338 385.26716 C -173.5338 384.61405 -173.26605 383.9827 -172.80268 383.5282 C -171.89374 382.6093 -170.23293 382.6004 -169.31509 383.5282 C -168.85073 383.9827 -168.59484 384.62492 -168.59484 385.26716 C -168.59484 385.9193 -168.85172 386.5625 -169.31509 387.017 C -169.77055 387.4814 -170.41175 387.7472 -171.06383 387.7472 Z" fill="#01abff"/>
              </g>
            </g>
            <g id="Group_155">
              <g id="Graphic_156">
                <path d="M -181.1907 385.26815 C -181.1907 383.9056 -180.08415 382.798 -178.72073 382.798 C -177.3573 382.798 -176.25076 383.9056 -176.25076 385.26815 C -176.25076 386.63266 -177.3573 387.7383 -178.72073 387.7383 C -180.08415 387.7383 -181.1907 386.63167 -181.1907 385.26815 Z M -188.83772 385.26815 C -188.83772 383.9056 -187.74205 382.798 -186.36775 382.798 C -185.00532 382.798 -183.89779 383.9056 -183.89779 385.26815 C -183.89779 386.63266 -185.00532 387.7383 -186.36775 387.7383 C -187.74106 387.7383 -188.83772 386.63167 -188.83772 385.26815 Z" fill="#01abff"/>
              </g>
            </g>
            <g id="Group_153">
              <g id="Graphic_154">
                <path d="M -194.02466 387.7383 C -194.67673 387.7383 -195.31892 387.4814 -195.7734 387.018 C -196.23775 386.5635 -196.49463 385.92125 -196.49463 385.26815 C -196.49463 384.6269 -196.23775 383.98367 -195.7734 383.52917 C -194.85457 382.6014 -193.20463 382.6014 -192.2858 383.52917 C -191.82145 383.98367 -191.5547 384.6259 -191.5547 385.26815 C -191.5547 385.92027 -191.82145 386.5635 -192.2858 387.018 C -192.74028 387.4814 -193.38247 387.7383 -194.02466 387.7383 Z" fill="#01abff"/>
              </g>
            </g>
          </g>
          <g id="Group_145">
            <g id="Group_150">
              <g id="Graphic_151">
                <path d="M -171.06383 394.62505 C -171.70503 394.62505 -172.3482 394.36816 -172.80268 393.90377 C -173.26704 393.44926 -173.5338 392.808 -173.5338 392.1549 C -173.5338 391.5018 -173.26605 390.86945 -172.80268 390.41593 C -171.89374 389.49605 -170.23293 389.49605 -169.31509 390.41593 C -168.85073 390.86945 -168.59484 391.5117 -168.59484 392.1549 C -168.59484 392.80703 -168.85172 393.44926 -169.31509 393.90377 C -169.77055 394.36915 -170.41175 394.62505 -171.06383 394.62505 Z" fill="#01abff"/>
              </g>
            </g>
            <g id="Group_148">
              <g id="Graphic_149">
                <path d="M -181.1907 392.1549 C -181.1907 390.7904 -180.08415 389.68477 -178.72073 389.68477 C -177.3573 389.68477 -176.25076 390.7904 -176.25076 392.1549 C -176.25076 393.5283 -177.3573 394.63493 -178.72073 394.63493 C -180.08415 394.63493 -181.1907 393.5283 -181.1907 392.1549 Z M -188.83772 392.1549 C -188.83772 390.7904 -187.74205 389.68477 -186.36775 389.68477 C -185.00532 389.68477 -183.89779 390.7904 -183.89779 392.1549 C -183.89779 393.5283 -185.00532 394.63493 -186.36775 394.63493 C -187.74106 394.63493 -188.83772 393.5283 -188.83772 392.1549 Z" fill="#01abff"/>
              </g>
            </g>
            <g id="Group_146">
              <g id="Graphic_147">
                <path d="M -194.02466 394.63493 C -194.67673 394.63493 -195.31892 394.36816 -195.7734 393.90377 C -196.23775 393.44926 -196.49463 392.808 -196.49463 392.1549 C -196.49463 391.51267 -196.23775 390.86945 -195.7734 390.41593 C -194.85457 389.49605 -193.20463 389.49605 -192.2858 390.41593 C -191.82145 390.86945 -191.5547 391.5117 -191.5547 392.1549 C -191.5547 392.80703 -191.82145 393.44926 -192.2858 393.90377 C -192.74028 394.36915 -193.38247 394.63493 -194.02466 394.63493 Z" fill="#01abff"/>
              </g>
            </g>
          </g>
          <g id="Group_143">
            <g id="Graphic_144">
              <path d="M -210.59222 401 C -211.59997 401 -212.41605 400.18386 -212.41605 399.17605 L -212.41605 386.60894 C -212.41605 385.60112 -211.59898 384.785 -210.59222 384.785 L -203.87687 384.785 C -202.86913 384.785 -202.05305 385.60112 -202.05305 386.60894 L -202.05305 394.27034 C -202.05305 395.27816 -202.87011 396.0953 -203.87687 396.0953 C -204.88363 396.0953 -205.7007 395.27816 -205.7007 394.27034 L -205.7007 388.4339 L -208.7674 388.4339 L -208.7674 399.17605 C -208.7684 400.1829 -209.58448 401 -210.59222 401 Z" fill="#01abff"/>
            </g>
          </g>
          <g id="Group_141">
            <g id="Graphic_142">
              <path d="M -214.0077 378.98114 C -214.08575 378.98114 -214.1638 378.9762 -214.24284 378.9663 C -215.2417 378.8369 -215.9481 377.9239 -215.81967 376.925 L -212.68182 352.4913 C -212.56524 351.5813 -211.79065 350.89956 -210.87281 350.89956 L -203.44809 350.89956 C -202.5342 350.89956 -201.7606 351.57638 -201.64007 352.48243 L -199.49712 368.54824 C -199.36374 369.54717 -200.06522 370.4641 -201.06407 370.59747 C -202.06095 370.7279 -202.97978 370.02934 -203.11316 369.0304 L -205.04566 354.54747 L -209.26832 354.54747 L -212.20067 377.39037 C -212.31923 378.31025 -213.1037 378.98114 -214.0077 378.98114 Z" fill="#01abff"/>
            </g>
          </g>
          <g id="Group_139">
            <g id="Graphic_140">
              <path d="M -195.19542 373.57844 C -195.27446 373.57844 -195.3545 373.5735 -195.4355 373.56263 C -196.43436 373.4312 -197.1378 372.5153 -197.0064 371.51636 L -194.51174 352.48638 C -194.3922 351.57835 -193.6186 350.89956 -192.70273 350.89956 L -185.278 350.89956 C -184.36214 350.89956 -183.58855 351.57835 -183.46999 352.4854 L -181.0514 370.87413 C -180.919 371.87305 -181.62245 372.789 -182.6213 372.9204 C -183.61226 373.05477 -184.53603 372.3493 -184.66743 371.35037 L -186.87756 354.54747 L -191.1022 354.54747 L -193.3884 371.99063 C -193.50992 372.90953 -194.2934 373.57844 -195.19542 373.57844 Z" fill="#01abff"/>
            </g>
          </g>
          <g id="Group_137">
            <g id="Graphic_138">
              <path d="M -201.11347 359.9561 L -213.20842 359.9561 C -214.21616 359.9561 -215.03224 359.13897 -215.03224 358.13214 C -215.03224 357.1253 -214.21518 356.3082 -213.20842 356.3082 L -201.11446 356.3082 C -200.1067 356.3082 -199.29063 357.1253 -199.29063 358.13214 C -199.29063 359.13897 -200.1067 359.9561 -201.11347 359.9561 Z" fill="#01abff"/>
            </g>
          </g>
          <g id="Group_135">
            <g id="Graphic_136">
              <path d="M -182.9424 359.9561 L -195.03735 359.9561 C -196.0451 359.9561 -196.86117 359.13897 -196.86117 358.13214 C -196.86117 357.1253 -196.0441 356.3082 -195.03735 356.3082 L -182.9424 356.3082 C -181.93465 356.3082 -181.11858 357.1253 -181.11858 358.13214 C -181.11858 359.13897 -181.93465 359.9561 -182.9424 359.9561 Z" fill="#01abff"/>
            </g>
          </g>
          <g id="Group_133">
            <g id="Graphic_134">
              <path d="M -170.33765 352.46464 C -173.47254 352.46464 -177.1281 351.45485 -181.10968 350.35415 C -188.89305 348.2061 -197.71282 345.7676 -205.56436 349.8285 C -206.45848 350.2909 -207.5601 349.94015 -208.02247 349.04596 C -208.48485 348.1508 -208.1351 347.0501 -207.23998 346.58767 C -198.12086 341.8697 -188.1491 344.6244 -180.1375 346.83765 C -174.421 348.41756 -169.48403 349.78206 -166.99826 347.91562 C -166.19206 347.31093 -165.04797 347.47495 -164.4443 348.2802 C -163.84065 349.08647 -164.00367 350.22965 -164.80888 350.83435 C -166.37978 352.0131 -168.24312 352.46365 -170.33765 352.46464 Z" fill="#01abff"/>
            </g>
          </g>
          <g id="Group_131">
            <g id="Graphic_132">
              <path d="M -170.33963 358.48784 C -173.07734 358.48784 -176.2152 357.72802 -179.58818 356.80913 C -180.56036 356.54433 -181.1334 355.54145 -180.8696 354.5692 C -180.60285 353.59794 -179.603 353.02783 -178.62885 353.2887 C -173.6069 354.65714 -169.2647 355.6521 -166.99924 353.95265 C -166.19305 353.34698 -165.04896 353.511 -164.44628 354.31725 C -163.84164 355.1235 -164.00465 356.2667 -164.80986 356.8704 C -166.3689 358.03926 -168.2362 358.48784 -170.33963 358.48784 Z" fill="#01abff"/>
            </g>
          </g>
        </g>
      </g>
    </g>
  </g>
</svg>
