<?xml version="1.0" encoding="UTF-8" standalone="no"?>
<!DOCTYPE svg PUBLIC "-//W3C//DTD SVG 1.1//EN" "http://www.w3.org/Graphics/SVG/1.1/DTD/svg11.dtd">
<svg xmlns:dc="http://purl.org/dc/elements/1.1/" xmlns:xl="http://www.w3.org/1999/xlink" version="1.1" xmlns="http://www.w3.org/2000/svg" viewBox="-219 -292.7 65 33.9" width="65" height="33.9">
  <defs/>
  <g id="Canvas_1" fill="none" fill-opacity="1" stroke="none" stroke-dasharray="none" stroke-opacity="1">
    <title>Canvas 1</title>
    <g id="Canvas_1_Layer_1">
      <title>Layer 1</title>
      <g id="Graphic_269">
        <path d="M -154 -258.8 L -156 -268.4 L -162.6 -268.4 L -164.3 -276.5 L -170.9 -276.5 L -172.6 -284.6 L -179.2 -284.6 L -180.8 -292.7 L -192.4 -292.7 L -194 -284.6 L -200.6 -284.6 L -202.3 -276.5 L -208.9 -276.5 L -210.5 -268.4 L -217 -268.4 L -219 -258.8 L -203.2 -258.8 L -204.9 -266.9 L -201 -266.9 L -202.7 -258.8 L -186.9 -258.8 L -188.6 -266.9 L -184.7 -266.9 L -186.4 -258.8 L -170.6 -258.8 L -172.3 -266.9 L -168.4 -266.9 L -170.1 -258.8 Z M -157.2 -266.9 L -155.9 -260.3 L -168 -260.3 L -166.7 -266.9 Z M -173.6 -283.1 L -172.3 -276.5 L -184.4 -276.5 L -183.1 -283.1 Z M -176.3 -275 L -177.7 -268.4 L -178.9 -268.4 L -180.2 -275 L -176.3 -275 Z M -185.9 -276.5 L -187.1 -276.5 L -188.4 -283.1 L -184.5 -283.1 Z M -191.2 -291.2 L -181.7 -291.2 L -180.4 -284.6 L -192.6 -284.6 Z M -199.4 -283.1 L -189.9 -283.1 L -188.6 -276.5 L -200.8 -276.5 Z M -192.7 -275 L -194.1 -268.4 L -195.3 -268.4 L -196.6 -275 L -192.7 -275 Z M -205 -260.3 L -217.2 -260.3 L -215.9 -266.9 L -206.4 -266.9 Z M -209 -268.4 L -207.7 -275 L -198.2 -275 L -196.9 -268.4 Z M -188.6 -260.3 L -200.8 -260.3 L -199.5 -266.9 L -190 -266.9 Z M -192.6 -268.4 L -191.3 -275 L -181.8 -275 L -180.5 -268.4 Z M -172.2 -260.3 L -184.4 -260.3 L -183.1 -266.9 L -173.6 -266.9 Z M -176.2 -268.4 L -174.9 -275 L -165.4 -275 L -164 -268.4 Z" fill="#01abff"/>
      </g>
    </g>
  </g>
</svg>
