<?xml version="1.0" encoding="UTF-8" standalone="no"?>
<!DOCTYPE svg PUBLIC "-//W3C//DTD SVG 1.1//EN" "http://www.w3.org/Graphics/SVG/1.1/DTD/svg11.dtd">
<svg xmlns:dc="http://purl.org/dc/elements/1.1/" xmlns:xl="http://www.w3.org/1999/xlink" version="1.1" xmlns="http://www.w3.org/2000/svg" viewBox="6 72 65 56.54035" width="65" height="56.54035">
  <defs/>
  <g id="Canvas_1" fill="none" fill-opacity="1" stroke="none" stroke-dasharray="none" stroke-opacity="1">
    <title>Canvas 1</title>
    <g id="Canvas_1_Layer_1">
      <title>Layer 1</title>
      <g id="Group_584">
        <g id="Graphic_591">
          <path d="M 15.5162 87.92445 L 9.9738 84.72445 L 10.7238 83.42545 L 16.2662 86.62545 Z" fill="#01abff"/>
        </g>
        <g id="Graphic_590">
          <rect x="6" y="99.54035" width="6.4" height="1.5" fill="#01abff"/>
        </g>
        <g id="Graphic_589">
          <path d="M 10.77657 117.27825 L 10.02642 115.97925 L 15.56882 112.77861 L 16.31897 114.07761 Z" fill="#01abff"/>
        </g>
        <g id="Graphic_588">
          <path d="M 66.2792 117.25445 L 60.7368 114.05445 L 61.4868 112.75545 L 67.0292 115.95545 Z" fill="#01abff"/>
        </g>
        <g id="Graphic_587">
          <rect x="64.6" y="99.54035" width="6.4" height="1.5" fill="#01abff"/>
        </g>
        <g id="Graphic_586">
          <path d="M 66.21621 83.42512 L 66.96636 84.72412 L 61.42396 87.92476 L 60.67381 86.62576 Z" fill="#01abff"/>
        </g>
        <g id="Graphic_585">
          <path d="M 39.8 72.04035 C 29.1 71.34035 20.1 79.84035 20.1 90.34035 C 20.1 92.44035 20.4 94.44035 21.2 96.44035 L 22.8 99.64035 C 23 100.04035 23.3 100.44035 23.5 100.84035 L 23.6 100.94035 C 26.1 105.44035 28 110.44035 29.2 115.74035 L 25 115.74035 L 25 117.24035 L 29.5 117.24035 L 29.5 117.34035 C 29.6 118.04035 29.7 118.74035 29.8 119.44035 L 27.2 119.44035 L 27.2 120.94035 L 30 120.94035 C 30.1 121.44035 30.1 121.84035 30.2 122.34035 L 30.2 122.54035 C 30.7 123.84035 31.9 124.74035 33.2 124.94035 C 33.9 127.04035 36.1 128.54035 38.5 128.54035 C 40.9 128.54035 43 127.04035 43.8 124.94035 C 45.3 124.74035 46.6 123.64035 47 122.04035 C 47 121.74035 47.1 121.34035 47.1 121.04035 L 49.9 121.04035 L 49.9 119.54035 L 47.3 119.54035 C 47.3 119.44035 47.3 119.24035 47.4 119.14035 C 47.5 118.54035 47.6 117.94035 47.7 117.34035 L 52.1 117.34035 L 52.1 115.84035 L 48 115.84035 C 49.2 110.24035 51.3 104.84035 54.1 100.14035 C 54.2 99.94035 54.4 99.64035 54.6 99.34035 C 56.3 96.34035 57.1 92.84035 57 89.34035 C 56.4 80.14035 49 72.64035 39.8 72.04035 Z M 38.5 127.14035 C 37 127.14035 35.6 126.34035 34.9 125.04035 L 42.1 125.04035 C 41.4 126.34035 40 127.14035 38.5 127.14035 Z M 45.4 121.84035 C 45.2 122.84035 44.3 123.54035 43.3 123.54035 L 33.7 123.54035 C 32.8 123.54035 32 123.04035 31.7 122.24035 C 31.7 121.84035 31.6 121.54035 31.6 121.14035 L 45.5 121.14035 C 45.5 121.34035 45.4 121.64035 45.4 121.84035 Z M 45.8 118.94035 C 45.8 119.14035 45.7 119.34035 45.7 119.54035 L 31.4 119.54035 C 31.3 118.84035 31.2 118.14035 31 117.34035 L 46.1 117.34035 C 46 117.94035 45.9 118.44035 45.8 118.94035 Z M 36.2 115.94035 C 36.8 110.44035 36.8 106.04035 36.6 103.04035 C 37.2 103.14035 37.9 103.14035 38.6 103.14035 C 39.3 103.14035 39.9 103.14035 40.6 103.04035 C 40.4 106.04035 40.3 110.44035 41 115.94035 Z M 53.2 98.64035 L 53.1 98.74035 C 53 98.94035 52.8 99.24035 52.7 99.44035 C 49.8 104.34035 47.7 110.04035 46.4 115.94035 L 42.4 115.94035 C 41.7 110.24035 41.8 105.74035 42.1 102.84035 C 43.7 102.44035 44.9 101.84035 45.7 101.14035 C 45.9 100.94035 46 100.74035 46.1 100.54035 C 46.4 100.14035 46.5 99.74035 46.5 99.34035 C 46.5 99.24035 46.5 99.24035 46.5 99.14035 C 46.5 98.44035 46.2 97.74035 45.7 97.14035 C 44.7 96.14035 42.8 96.14035 41.8 97.14035 C 41.3 97.64035 41 98.34035 41 99.04035 C 41 99.24035 40.8 100.14035 40.7 101.44035 C 40.1 101.54035 39.4 101.54035 38.6 101.54035 C 37.8 101.54035 37.1 101.44035 36.5 101.44035 C 36.4 100.04035 36.2 99.24035 36.2 99.04035 C 36.2 98.34035 35.9 97.64035 35.4 97.14035 C 34.4 96.14035 32.5 96.14035 31.5 97.14035 C 31 97.64035 30.7 98.34035 30.7 99.14035 C 30.7 99.24035 30.7 99.24035 30.7 99.34035 C 30.7 99.74035 30.8 100.24035 31.1 100.54035 C 31.2 100.74035 31.4 100.94035 31.5 101.14035 C 32.3 101.94035 33.5 102.54035 35.1 102.84035 C 35.3 105.74035 35.4 110.34035 34.8 115.94035 L 30.8 115.94035 C 29.6 110.34035 27.6 105.04035 24.9 100.24035 L 24.8 100.14035 C 24.6 99.74035 24.4 99.34035 24.2 99.04035 L 22.7 95.94035 C 22.1 94.14035 21.8 92.24035 21.8 90.34035 C 21.8 80.64035 30 72.84035 39.8 73.54035 C 48.3 74.14035 55 80.94035 55.5 89.44035 C 55.5 92.74035 54.7 95.94035 53.2 98.64035 Z M 44.7 99.84035 C 44.3 100.34035 43.4 100.84035 42.2 101.14035 C 42.3 99.94035 42.5 99.24035 42.5 99.24035 L 42.5 99.14035 C 42.5 98.84035 42.6 98.54035 42.9 98.24035 C 43.4 97.74035 44.2 97.74035 44.7 98.24035 C 44.9 98.44035 45.1 98.74035 45.1 99.14035 C 44.9 99.44035 44.8 99.64035 44.7 99.84035 Z M 32.3 99.84035 C 32.1 99.64035 32 99.34035 32 99.04035 C 32 98.74035 32.1 98.44035 32.4 98.14035 C 32.9 97.64035 33.7 97.64035 34.2 98.14035 C 34.4 98.34035 34.6 98.74035 34.6 99.04035 L 34.6 99.14035 C 34.6 99.14035 34.7 99.84035 34.9 101.04035 C 33.6 100.84035 32.8 100.34035 32.3 99.84035 Z" fill="#01abff"/>
        </g>
      </g>
    </g>
  </g>
</svg>
