<?xml version="1.0" encoding="UTF-8" standalone="no"?>
<!DOCTYPE svg PUBLIC "-//W3C//DTD SVG 1.1//EN" "http://www.w3.org/Graphics/SVG/1.1/DTD/svg11.dtd">
<svg xmlns:dc="http://purl.org/dc/elements/1.1/" xmlns:xl="http://www.w3.org/1999/xlink" version="1.1" xmlns="http://www.w3.org/2000/svg" viewBox="-178 441 65 53" width="65" height="53">
  <defs/>
  <g id="Canvas_1" fill="none" fill-opacity="1" stroke="none" stroke-dasharray="none" stroke-opacity="1">
    <title>Canvas 1</title>
    <g id="Canvas_1_Layer_1">
      <title>Layer 1</title>
      <g id="Group_2">
        <g id="Graphic_15">
          <path d="M -140.1 486.4569 L -141.4 484.6704 L -142.6 485.4644 L -140.5 488.5412 L -133.6 483.8764 L -134.5 482.6854 Z" fill="#01abff"/>
        </g>
        <g id="Graphic_14">
          <path d="M -125.1 486.4569 L -126.4 484.6704 L -127.6 485.4644 L -125.5 488.5412 L -118.6 483.8764 L -119.5 482.6854 Z" fill="#01abff"/>
        </g>
        <g id="Graphic_13">
          <path d="M -133.6 461.14794 L -134.5 459.95693 L -140.1 463.72846 L -141.4 461.94195 L -142.6 462.73596 L -140.5 465.81273 Z" fill="#01abff"/>
        </g>
        <g id="Graphic_12">
          <path d="M -163.6 461.14794 L -164.4 459.95693 L -170 463.72846 L -171.3 461.94195 L -172.5 462.73596 L -170.4 465.81273 Z" fill="#01abff"/>
        </g>
        <g id="Graphic_11">
          <path d="M -159.2 467.00375 L -146.8 467.00375 L -146.8 458.1704 L -159.2 458.1704 Z M -157.7 459.7584 L -148.3 459.7584 L -148.3 465.61423 L -157.7 465.61423 L -157.7 459.7584 Z" fill="#01abff"/>
        </g>
        <g id="Graphic_10">
          <path d="M -174.2 489.83146 L -161.8 489.83146 L -161.8 480.9981 L -174.2 480.9981 Z M -172.7 482.4869 L -163.3 482.4869 L -163.3 488.3427 L -172.7 488.3427 Z" fill="#01abff"/>
        </g>
        <g id="Graphic_9">
          <path d="M -129.2 478.4176 L -116.8 478.4176 L -116.8 469.58427 L -129.2 469.58427 Z M -127.7 471.07303 L -118.3 471.07303 L -118.3 476.92884 L -127.7 476.92884 Z" fill="#01abff"/>
        </g>
        <g id="Graphic_8">
          <path d="M -129.2 467.00375 L -116.8 467.00375 L -116.8 458.1704 L -129.2 458.1704 Z M -127.7 459.7584 L -118.3 459.7584 L -118.3 465.61423 L -127.7 465.61423 Z" fill="#01abff"/>
        </g>
        <g id="Graphic_7">
          <path d="M -174.2 478.4176 L -161.8 478.4176 L -161.8 469.58427 L -174.2 469.58427 Z M -172.7 471.07303 L -163.3 471.07303 L -163.3 476.92884 L -172.7 476.92884 Z" fill="#01abff"/>
        </g>
        <g id="Graphic_6">
          <path d="M -159.2 478.4176 L -146.8 478.4176 L -146.8 469.58427 L -159.2 469.58427 Z M -157.7 471.07303 L -148.3 471.07303 L -148.3 476.92884 L -157.7 476.92884 L -157.7 471.07303 Z" fill="#01abff"/>
        </g>
        <g id="Graphic_5">
          <path d="M -144.2 478.4176 L -131.8 478.4176 L -131.8 469.58427 L -144.2 469.58427 Z M -142.7 471.07303 L -133.3 471.07303 L -133.3 476.92884 L -142.7 476.92884 Z" fill="#01abff"/>
        </g>
        <g id="Graphic_4">
          <path d="M -159.2 489.83146 L -146.8 489.83146 L -146.8 480.9981 L -159.2 480.9981 Z M -157.7 482.4869 L -148.3 482.4869 L -148.3 488.3427 L -157.7 488.3427 L -157.7 482.4869 Z" fill="#01abff"/>
        </g>
        <g id="Graphic_3">
          <path d="M -121.5 446.0618 L -121.5 441 L -127.1 441 L -127.1 446.0618 L -163.9 446.0618 L -163.9 441 L -169.5 441 L -169.5 446.0618 L -178 446.0618 L -178 494 L -113 494 L -113 446.0618 Z M -125.6 442.48876 L -123 442.48876 L -123 448.8408 L -125.6 448.8408 L -125.6 442.48876 Z M -168 442.48876 L -165.4 442.48876 L -165.4 448.8408 L -168 448.8408 Z M -169.5 447.55056 L -169.5 450.3296 L -163.9 450.3296 L -163.9 447.55056 L -127.1 447.55056 L -127.1 450.3296 L -121.5 450.3296 L -121.5 447.55056 L -114.4 447.55056 L -114.4 453.20787 L -176.4 453.20787 L -176.4 447.55056 Z M -176.5 492.51124 L -176.5 454.69663 L -114.5 454.69663 L -114.5 492.51124 Z" fill="#01abff"/>
        </g>
      </g>
    </g>
  </g>
</svg>
