<svg width="20" height="20" viewBox="0 0 20 20" fill="none" xmlns="http://www.w3.org/2000/svg">
<path d="M10.005 13.249V8.19899M19.25 5.50599V12.113C19.2503 12.6337 19.1479 13.1493 18.9488 13.6304C18.7497 14.1115 18.4578 14.5487 18.0896 14.9169C17.7215 15.2851 17.2844 15.5772 16.8034 15.7764C16.3223 15.9756 15.8067 16.0781 15.286 16.078H12.643L10.463 18.258C10.4036 18.321 10.3319 18.3711 10.2524 18.4054C10.1728 18.4397 10.0871 18.4574 10.0005 18.4574C9.91392 18.4574 9.82822 18.4397 9.74869 18.4054C9.66916 18.3711 9.59747 18.321 9.53802 18.258L7.35802 16.078H4.71302C4.19238 16.078 3.67684 15.9754 3.19584 15.7762C2.71484 15.5769 2.2778 15.2848 1.9097 14.9166C1.54159 14.5484 1.24963 14.1113 1.05048 13.6303C0.851327 13.1492 0.748892 12.6336 0.749024 12.113V5.50599C0.749024 4.45467 1.16666 3.44642 1.91005 2.70302C2.65345 1.95963 3.66171 1.54199 4.71302 1.54199H15.285C16.3363 1.54199 17.3446 1.95963 18.088 2.70302C18.8314 3.44642 19.25 4.45467 19.25 5.50599Z" stroke="#4CA8F8" stroke-width="1.5" stroke-linecap="round" stroke-linejoin="round"/>
</svg>
